<svg width="146" height="142" viewBox="0 0 146 142" fill="none" xmlns="http://www.w3.org/2000/svg">
<path fill-rule="evenodd" clip-rule="evenodd" d="M59.7832 20.8472C59.8237 21.0231 59.7073 21.161 59.4679 21.2067C59.2285 21.2525 59.1703 21.3214 59.2785 21.3892C59.3866 21.4569 59.4217 21.5692 59.3689 21.7017C59.3013 21.8099 59.1106 21.8259 58.9632 21.7487C58.6387 21.5454 58.1368 21.8181 58.0081 22.2644C57.9376 22.6418 57.2599 22.9549 56.7555 22.8949C56.3931 22.8485 56.0926 23.2324 56.271 23.5247C56.4642 23.8415 56.1179 23.9859 55.8368 23.6893C55.684 23.5485 55.561 23.4564 55.5367 23.4712C55.4149 23.5455 55.0535 24.2675 55.0304 24.4487C54.9788 24.7476 54.1484 24.9199 53.9997 24.6763C53.9254 24.5544 53.8321 24.5111 53.7983 24.5651C53.223 25.4844 52.8009 25.9426 52.391 26.0923C52.0447 26.2367 51.8404 26.3947 51.774 26.6693C51.7022 26.8802 51.5033 27.1019 51.318 27.1815C51.0935 27.2516 51.0258 27.3597 51.1001 27.4816C51.2933 27.7983 50.9809 27.8886 50.4603 27.6378C50.2197 27.5172 49.9844 27.4601 49.9654 27.5385C49.9316 27.5926 49.7801 27.6182 49.5989 27.595C49.3149 27.5676 49.3298 27.592 49.596 27.8642C50.0151 28.2772 50.0283 28.7372 49.6213 28.6177C49.2779 28.4929 48.4892 29.0075 48.7109 29.2065C48.7947 29.2892 48.7175 29.4365 48.5471 29.5405C48.3766 29.6445 48.2846 29.7675 48.3292 29.8406C48.4629 30.0599 48.0354 30.4544 47.7852 30.373C47.5892 30.3255 47.5986 30.2862 47.8042 30.2946C48.0733 30.2976 48.0585 30.2732 47.7542 30.1579C47.4108 30.0331 47.0996 30.2898 47.3943 30.4443C47.4876 30.4877 47.3713 30.6255 47.1521 30.7592C46.9329 30.8929 46.6853 31.1443 46.6082 31.2917C46.512 31.5175 46.5269 31.5418 46.7704 31.3933C47.0383 31.2299 47.0288 31.2691 46.846 31.6815C46.7255 31.9222 46.3615 32.3114 46.0206 32.5194C45.6945 32.7517 45.4172 32.9543 45.4469 33.003C45.4915 33.0761 44.8284 34.0156 44.5902 34.2278C44.5415 34.2575 44.3047 34.636 44.0191 35.0442C43.7335 35.4525 43.4331 35.8363 43.3113 35.9106C43.2139 35.97 43.1029 36.1715 43.0893 36.3135C43.0514 36.4704 42.8727 36.78 42.6589 36.9773C42.4452 37.1745 42.3098 37.3908 42.3693 37.4883C42.4733 37.6589 42.7317 37.5347 42.725 37.3047C42.7291 37.2019 42.9673 36.9898 43.2256 36.8656C43.5084 36.7265 43.8047 36.4455 43.8616 36.2101C43.909 36.014 44.0498 35.8613 44.1282 35.8804C44.2066 35.8994 44.3717 35.7318 44.5166 35.4763C44.637 35.2356 44.836 35.014 44.9631 35.0033C45.1146 34.9777 45.2215 34.8791 45.2256 34.7763C45.2297 34.6735 45.3461 34.5356 45.4922 34.4465C45.6139 34.3722 45.9197 34.0519 46.1228 33.7275C46.3988 33.3585 46.5788 33.2153 46.7113 33.2682C46.8438 33.3211 46.975 33.2076 47.1145 32.8885C47.3555 32.4071 47.4339 32.4261 47.4187 33.0038C47.432 33.4637 47.5942 33.5653 47.8703 33.1963C47.9623 33.0733 47.9842 32.7257 47.8842 32.4523C47.7546 32.1302 47.7925 31.9733 47.9683 31.9329C48.1198 31.9074 48.2957 31.867 48.3687 31.8224C48.4418 31.7779 48.5351 31.8213 48.5945 31.9187C48.654 32.0162 48.5714 32.1 48.4592 32.135C48.2833 32.1754 48.3184 32.2877 48.5604 32.5748C48.832 32.9106 48.9105 32.9296 48.8741 32.6509C48.8728 32.4845 48.9933 32.2438 49.1394 32.1547C49.3829 32.0061 49.3775 31.9425 49.0679 31.7637C48.7975 31.5943 48.7678 31.5455 48.9829 31.5147C49.1343 31.4891 49.2751 31.3364 49.313 31.1795C49.3605 30.9834 49.4092 30.9537 49.4983 31.0999C49.6172 31.2948 50.1827 31.0167 50.1707 30.7232C50.1587 30.4296 50.4319 30.3298 50.5805 30.5734C50.7292 30.8171 50.9145 30.7375 51.0147 30.4089C51.1191 29.9774 52.7696 28.9037 53.2591 28.9394C53.5039 28.9572 53.7284 28.8871 53.7812 28.7546C53.983 28.2638 54.4213 27.9964 54.8432 28.1402C55.2746 28.2448 55.2746 28.2448 55.2179 27.8782C55.1667 27.5751 55.2195 27.4426 55.532 27.3523C55.7322 27.297 55.9513 27.1633 55.9311 27.0754C55.9975 26.8008 56.7862 26.2863 56.9484 26.3879C57.1891 26.5085 58.3092 25.8252 58.1903 25.6303C57.9971 25.3135 58.634 25.4265 59.072 25.7611C59.4708 26.0862 59.51 26.0957 59.5075 25.7629C59.5306 25.5816 59.6267 25.3558 59.7728 25.2667C59.9433 25.1627 60.0204 25.0154 59.9758 24.9423C59.9164 24.8448 60.0328 24.7069 60.2276 24.5881C60.4224 24.4693 60.5969 24.2625 60.6349 24.1056C60.6823 23.9095 60.7702 23.8893 60.9473 24.0153C61.0704 24.1074 61.2664 24.1549 61.3638 24.0955C61.4612 24.0361 61.6424 24.0593 61.7655 24.1514C62.0805 24.3939 62.2699 24.2115 62.12 23.8014C62.0444 23.5132 62.0782 23.4591 62.4353 23.4419C62.6652 23.4354 62.9005 23.4925 62.9748 23.6143C63.1532 23.9067 63.3818 23.7337 63.359 23.313C63.347 23.0195 63.3714 23.0046 63.5146 23.1847C63.5889 23.3065 63.7904 23.4176 63.9662 23.3772C64.2056 23.3315 64.2002 23.2679 63.934 22.9957C63.6433 22.7384 63.6623 22.6599 63.8773 22.6291C64.0288 22.6035 64.3656 22.4984 64.6294 22.4378C64.8783 22.3528 65.1569 22.3166 65.2502 22.3599C65.3583 22.4277 65.7438 22.2928 66.0996 22.1092C66.4554 21.9256 66.8557 21.8151 66.9734 21.8436C67.091 21.8722 67.2764 21.7926 67.344 21.6844C67.4848 21.5317 67.5293 21.6048 67.6495 21.9661C67.7899 22.4154 67.8048 22.4397 67.9051 22.1111C67.9674 21.9394 67.9512 21.7486 67.8823 21.6904C67.8133 21.6321 67.808 21.5686 67.9054 21.5091C68.0028 21.4497 68.0866 21.5323 68.1514 21.6934C68.1973 21.9329 68.2608 21.9275 68.4503 21.7451C68.591 21.5924 68.7763 21.5128 68.8696 21.5561C68.9629 21.5995 69.2605 21.4848 69.5283 21.3214C69.7962 21.158 70.0451 21.0731 70.0897 21.1462C70.1343 21.2193 70.3398 21.2276 70.5251 21.148C70.7348 21.0535 70.9701 21.1106 71.1229 21.2514C71.2513 21.4071 71.4527 21.5183 71.619 21.5171C71.7705 21.4915 71.9625 21.6419 72.0517 21.7881C72.1557 21.9586 72.2787 22.0508 72.3518 22.0062C72.4005 21.9765 72.3451 21.7762 72.1775 21.611C71.9653 21.3727 71.9546 21.2455 72.125 21.1415C72.2468 21.0673 72.3983 21.0417 72.4429 21.1148C72.4875 21.1879 72.7566 21.1909 73.0501 21.179C73.353 21.1279 73.6762 21.1648 73.7992 21.2569C73.9074 21.3247 74.0737 21.3235 74.1658 21.2005C74.316 21.0086 75.0813 21.2772 75.1569 21.5654C75.1771 21.6534 75.2556 21.6724 75.3286 21.6278C75.4017 21.5833 75.9061 21.6433 76.4551 21.7765C77.2542 21.991 77.4057 21.9655 77.184 21.7664C77.0164 21.6012 76.9219 21.3914 76.9801 21.3225C77.0234 21.2292 76.9288 21.0194 76.7463 20.8298C76.4557 20.5725 76.4652 20.5333 76.8074 20.4917C77.1644 20.4745 77.5524 20.6724 78.1973 21.1817C78.4433 21.366 78.4379 21.3024 78.2583 20.8436C78.0584 20.2969 78.0679 20.2576 78.536 20.039C78.8187 19.9 78.9838 19.7324 78.9392 19.6593C78.8946 19.5862 78.7864 19.5184 78.689 19.5779C78.4455 19.7264 78.3253 19.3651 78.4838 18.9675C78.5745 18.6782 78.5502 18.693 78.0591 19.0929C77.5923 19.478 77.4408 19.5035 77.1556 19.3098C76.8459 19.1309 76.8406 19.0673 77.0841 18.9187C77.2789 18.7999 77.3073 18.6822 77.1695 18.5657C77.0316 18.4493 76.807 18.5194 76.5635 18.6679C76.2862 18.8705 76.1591 18.8812 75.9712 18.6281C75.8279 18.448 75.7969 18.2329 75.889 18.1099C76.1556 17.7801 75.9487 17.6054 75.5591 17.843C75.1695 18.0807 74.5718 17.9773 74.7113 17.6582C74.7789 17.55 74.7046 17.4282 74.5234 17.405C74.3517 17.3426 74.2002 17.3681 74.1664 17.4222C74.0702 17.648 73.532 17.6421 73.4861 17.4026C73.4308 17.2023 72.971 17.2153 72.4542 17.4637C72.3081 17.5528 72.1851 17.4607 72.0608 17.2022C71.9662 16.9924 71.8676 16.8855 71.8148 17.018C71.7471 17.1261 71.6348 17.1612 71.5415 17.1178C71.4334 17.0501 71.3211 17.0851 71.2778 17.1784C71.2345 17.2717 71.1222 17.3067 71.0289 17.2634C70.9356 17.22 70.7598 17.2604 70.6042 17.3887C70.4391 17.5563 70.3458 17.5129 70.3053 17.337C70.2797 17.1855 70.1621 17.1569 69.9429 17.2906C69.7724 17.3946 69.5425 17.4011 69.4344 17.3334C69.1735 17.1248 68.8825 17.4694 69.0027 17.8308C69.0729 18.0554 69.0242 18.0851 68.7877 17.8616C68.62 17.6964 68.424 17.6489 68.405 17.7273C68.386 17.8058 68.0777 17.7933 67.764 17.7172C67.1217 17.5406 66.7754 17.685 66.9686 18.0018C67.1173 18.2454 66.9035 18.4427 66.6818 18.2436C66.4898 18.0933 65.3118 18.2435 65.4307 18.4385C65.4604 18.4872 65.3399 18.7279 65.1262 18.9251C64.6404 19.3886 64.5282 19.4237 64.4092 19.2288C64.3498 19.1313 64.1929 19.0933 64.0468 19.1824C63.779 19.3458 63.088 19.199 62.9542 18.9797C62.7461 18.6386 62.4172 19.1401 62.4846 19.6339L62.5817 20.1765L61.9299 20.0392L61.3173 19.9114L61.3847 20.4052C61.4656 20.757 61.4033 20.9287 61.1883 20.9596C61.0368 20.9852 60.861 21.0256 60.8366 21.0404C60.7879 21.0701 60.7582 21.0214 60.7718 20.8794C60.7949 20.6981 59.985 20.3564 59.7902 20.4752C59.7807 20.5144 59.7427 20.6713 59.7832 20.8472Z" fill="#C33F40"/>
<path fill-rule="evenodd" clip-rule="evenodd" d="M67.8951 17.6037C67.9397 17.6768 68.0276 17.6566 68.0709 17.5633C68.1386 17.4552 68.1427 17.3524 68.1129 17.3036C68.0981 17.2793 68.0345 17.2846 67.9371 17.344C67.8641 17.3886 67.8356 17.5062 67.8951 17.6037Z" fill="#C33F40"/>
<path fill-rule="evenodd" clip-rule="evenodd" d="M57.9925 26.6204C58.0371 26.6935 58.1547 26.722 58.2521 26.6626C58.3252 26.618 58.305 26.5301 58.2117 26.4867C58.1035 26.4189 58.0007 26.4147 57.952 26.4445C57.9277 26.4593 57.933 26.5229 57.9925 26.6204Z" fill="#C33F40"/>
<path fill-rule="evenodd" clip-rule="evenodd" d="M46.4762 33.813C46.4869 33.9402 46.5369 34.0769 46.6153 34.0959C46.8114 34.1434 46.8535 33.8838 46.6466 33.709C46.5088 33.5925 46.4601 33.6223 46.4762 33.813Z" fill="#C33F40"/>
<path fill-rule="evenodd" clip-rule="evenodd" d="M65.9578 22.6977C66.0849 22.687 66.2162 22.5735 66.2108 22.51C66.2298 22.4315 66.127 22.4274 65.9714 22.5557C65.8253 22.6448 65.8307 22.7084 65.9578 22.6977Z" fill="#C33F40"/>
<path fill-rule="evenodd" clip-rule="evenodd" d="M66.7449 22.6183C66.8043 22.7158 66.9125 22.7835 66.9856 22.739C67.0586 22.6944 67.0965 22.5375 67.0614 22.4252C67.0358 22.2737 66.9182 22.2451 66.8208 22.3045C66.7234 22.364 66.6706 22.4965 66.7449 22.6183Z" fill="#C33F40"/>
<path fill-rule="evenodd" clip-rule="evenodd" d="M41.3543 38.5088C41.4814 38.4981 41.6126 38.3846 41.6073 38.321C41.6262 38.2426 41.5235 38.2384 41.3679 38.3667C41.2218 38.4559 41.2271 38.5195 41.3543 38.5088Z" fill="#C33F40"/>
<path fill-rule="evenodd" clip-rule="evenodd" d="M39.7891 40.4333C39.8932 40.6038 39.9567 40.5985 39.946 40.4713C39.9352 40.3441 39.8217 40.2128 39.7581 40.2181C39.6648 40.1747 39.6999 40.2871 39.7891 40.4333Z" fill="#C33F40"/>
<path fill-rule="evenodd" clip-rule="evenodd" d="M72.8282 21.5818C72.9215 21.6252 73.0392 21.6537 73.0879 21.624C73.1122 21.6092 73.092 21.5212 73.0474 21.4481C72.9879 21.3507 72.8851 21.3465 72.7877 21.4059C72.739 21.4356 72.7444 21.4992 72.8282 21.5818Z" fill="#C33F40"/>
<path fill-rule="evenodd" clip-rule="evenodd" d="M55.0823 35.8173C55.0782 35.9201 55.1471 35.9784 55.2202 35.9338C55.3176 35.8744 55.346 35.7567 55.3015 35.6836C55.242 35.5861 55.1879 35.5523 55.1636 35.5671C55.1149 35.5968 55.0715 35.6901 55.0823 35.8173Z" fill="#C33F40"/>
<path fill-rule="evenodd" clip-rule="evenodd" d="M56.5346 34.9653C56.6184 35.0479 56.6048 35.19 56.5074 35.2494C56.4249 35.3332 56.3274 35.3926 56.318 35.4318C56.2557 35.6035 55.1112 36.3017 54.769 36.3433C54.4417 36.4092 54.3984 36.5025 54.547 36.7462C54.6659 36.9411 54.6374 37.0588 54.5008 37.1087C54.3737 37.1194 54.233 37.2721 54.195 37.429C54.1476 37.6251 54.0692 37.606 53.9205 37.3624C53.7422 37.07 53.6786 37.0753 53.3823 37.3564C53.1928 37.5388 53.0236 37.8092 53.01 37.9512C52.9354 38.4314 52.4443 38.8313 52.0373 38.7118C51.7628 38.6453 51.6654 38.7047 51.6666 38.8711C51.6774 38.9982 51.5218 39.1266 51.3703 39.1521C51.1309 39.1979 51.112 39.2763 51.2891 39.4023C51.4661 39.5283 51.4377 39.646 51.1942 39.7945C51.0237 39.8985 50.7963 40.2378 50.7056 40.5272L50.5579 41.0519L50.3647 40.7352C50.2606 40.5646 50.2445 40.3739 50.3176 40.3293C50.415 40.2699 50.4042 40.1427 50.3299 40.0209C50.1367 39.7041 49.9716 39.8717 49.9754 40.3709C49.9577 40.6157 49.871 40.8023 49.6952 40.8427C49.5437 40.8682 49.5152 40.9859 49.6193 41.1565C49.8571 41.5463 49.6136 41.6948 49.2689 41.4036C49.008 41.195 49.008 41.195 48.8739 41.5777C48.8021 41.7887 48.8236 42.043 48.9318 42.1108C49.1927 42.3194 48.9248 42.4828 48.5029 42.339C48.292 42.267 48.0675 42.3371 47.8929 42.5439C47.7278 42.7115 47.5669 42.7763 47.5074 42.6788C47.3439 42.4108 47.1991 42.6663 47.2231 43.2534C47.2484 44.007 47.078 44.1109 46.6143 43.6248C46.417 43.4109 46.1763 43.2902 46.0789 43.3496C45.9815 43.4091 46.0018 43.497 46.0856 43.5796C46.2775 43.73 46.127 44.5239 45.8835 44.6724C45.8105 44.717 45.7915 44.7954 45.9091 44.824C46.0024 44.8674 46.028 45.0189 45.9604 45.127C45.8927 45.2352 45.7507 45.2215 45.5979 45.0807C45.2478 44.7259 45.0436 44.8839 45.1501 45.3873C45.227 45.8419 45.0319 46.5627 44.8832 46.3191C44.7346 46.0754 44.0812 46.3737 44.142 46.6375C44.1973 46.8378 44.1242 46.8824 43.8551 46.8794C43.6252 46.8859 43.2938 47.0546 42.9975 47.3357C42.5455 47.7451 42.5361 47.7843 42.8618 48.154C43.2416 48.5575 43.1645 48.7049 42.6939 48.5908C42.3017 48.4957 42.2799 48.8433 42.6923 49.0263C43.3751 49.3788 43.1126 49.6058 42.2499 49.3965C41.5832 49.2349 41.3546 49.4078 41.7587 49.7964C42.0791 50.1025 41.9479 50.216 41.3502 50.1126C40.9337 50.0323 40.9337 50.0323 40.9024 50.4192C40.8698 50.6396 40.7683 50.8019 40.6655 50.7977C40.5384 50.8084 40.2771 51.2018 40.051 51.7075C39.7193 52.4782 39.5786 52.6309 39.212 52.6873C38.7184 52.7545 38.5884 53.0344 39.0049 53.1146C39.4363 53.2192 39.4767 53.3951 39.1358 53.6031C38.9654 53.7071 38.9031 53.8788 38.9625 53.9763C39.1558 54.293 38.9635 54.7446 38.6106 54.6591C38.1792 54.5544 37.707 54.8759 37.715 55.2723C37.7418 55.5902 37.6688 55.6348 37.4091 55.5926C37.0224 55.561 36.9357 55.7476 37.2656 56.0145C37.3886 56.1066 37.5549 56.1054 37.6226 55.9973C37.6903 55.8891 37.6862 55.9919 37.5995 56.1785C37.5034 56.4043 37.4073 56.6301 37.3342 56.6747C37.2855 56.7044 37.2868 56.8708 37.376 57.017C37.4949 57.2119 37.4474 57.408 37.1511 57.6891C36.9373 57.8864 36.733 58.0444 36.7182 58.02C35.8678 57.5024 35.4864 57.5345 35.8283 58.0949C36.0809 58.5091 35.9551 58.6862 35.494 58.5328C35.1505 58.408 34.9327 58.7081 35.2084 58.9411C35.3314 59.0332 35.3517 59.1211 35.2786 59.1657C35.1812 59.2251 35.192 59.3523 35.2514 59.4497C35.3109 59.5472 35.3324 59.8015 35.2457 59.9881C35.155 60.2775 35.1063 60.3072 34.944 60.2056C34.8062 60.0891 34.7575 60.1188 34.6613 60.3446C34.599 60.5164 34.5408 60.5853 34.4962 60.5122C34.4517 60.4391 34.4178 60.4932 34.3894 60.6109C34.3878 61.0464 33.8723 61.4612 33.6263 61.277C33.2572 61.0006 33.1462 61.2021 33.4571 61.5473C33.6003 61.7274 33.7721 61.7898 33.8154 61.6965C33.8831 61.5884 33.9128 61.6371 33.9194 61.8671C33.9261 62.0971 33.9571 62.3122 33.9773 62.4001C33.9975 62.4881 33.9055 62.6111 33.7689 62.661C33.4077 62.781 32.4147 63.4537 32.3132 63.6159C32.2699 63.7092 32.3686 63.8162 32.5403 63.8786C32.8986 64.0277 32.904 64.0913 32.3993 64.6333C32.176 64.8698 31.9568 65.0034 31.8487 64.9357C31.5539 64.7812 31.3699 65.0272 31.5916 65.2263C31.8525 65.4349 31.6207 66.479 31.2798 66.6869C31.1824 66.7464 31.1295 66.8789 31.189 66.9763C31.2336 67.0494 31.1998 67.1035 31.0726 67.1142C30.9698 67.11 30.9117 67.179 30.9414 67.2277C30.986 67.3008 30.8317 67.5955 30.6232 67.8564C30.308 68.2159 30.2754 68.4364 30.4389 68.7044C30.5578 68.8993 30.5496 69.1049 30.4522 69.1643C30.3304 69.2386 30.1682 69.137 30.0493 68.9421C29.9547 68.7323 29.783 68.6699 29.6612 68.7441C29.5395 68.8184 29.5259 68.9604 29.6394 69.0918C29.7381 69.1988 29.7352 69.468 29.6242 69.6694C29.4794 69.9249 29.505 70.0765 29.6875 70.266C29.8943 70.4408 29.8753 70.5192 29.6075 70.6826C29.3396 70.846 29.3248 70.8216 29.352 70.5376C29.375 70.3563 29.3399 70.244 29.2912 70.2737C29.1208 70.3777 28.8915 71.7546 28.9956 71.9252C29.0253 71.9739 28.9089 72.1117 28.7385 72.2157C28.5288 72.3102 28.2907 72.5223 28.1986 72.6453C28.1066 72.7684 27.9267 72.9116 27.8239 72.9074C27.6967 72.9181 27.7021 72.9817 27.84 73.0981C27.9779 73.2146 28.1537 73.1742 28.2945 73.0215C28.4352 72.8688 28.5475 72.8337 28.592 72.9068C28.6812 73.053 28.2293 73.4624 27.7221 73.6716C27.6098 73.7067 27.557 73.8392 27.6016 73.9123C27.6462 73.9854 27.5933 74.1179 27.4959 74.1773C27.3742 74.2516 27.3862 74.5451 27.501 74.8429C27.6509 75.2529 27.6332 75.4977 27.4153 75.7978C27.2556 76.029 27.0187 76.4075 26.8983 76.6482C26.7778 76.8888 26.5058 77.155 26.3056 77.2103C26.008 77.325 25.9498 77.3939 26.1282 77.6863C26.366 78.0761 26.0356 79.0133 25.7354 78.7951C25.6124 78.703 25.5353 78.8504 25.4986 79.1737L25.4388 79.6782L24.9872 79.4856L24.56 79.2782L24.7978 79.6681C24.9464 79.9117 25.0992 80.0526 25.1722 80.008C25.2453 79.9634 25.3291 80.046 25.3006 80.1637C25.3114 80.2909 25.3275 80.4816 25.387 80.5791C25.4315 80.6522 25.3395 80.7752 25.1785 80.8399C25.0419 80.8899 24.8484 81.1751 24.782 81.4496C24.6912 81.739 24.4544 82.1176 24.2649 82.3C24.0268 82.5121 23.9645 82.6838 24.1024 82.8003C24.2254 82.8924 24.2023 83.0737 24.0183 83.3197C23.8829 83.536 23.6717 84.0661 23.5917 84.4826C23.5117 84.8992 23.3437 85.336 23.1976 85.4251C22.9054 85.6034 22.8444 85.9415 23.1094 86.0473C23.2176 86.115 23.5139 85.834 23.8089 85.3865C24.2109 84.8404 24.3016 84.551 24.1827 84.3561C24.0341 84.1124 24.0923 84.0435 24.4724 83.8451C24.843 83.6858 24.9256 83.602 24.7864 83.3192C24.6621 83.0606 24.7298 82.9525 25.0856 82.7689C25.417 82.6001 25.4603 82.5068 25.3319 82.3511C25.2184 82.2198 25.2171 82.0534 25.3876 81.9494C25.4945 81.8508 25.646 81.8253 25.6906 81.8983C25.8541 82.1664 26.0327 81.8568 25.8977 81.4711C25.8275 81.2465 25.8873 80.7419 26.0457 80.3444C26.2664 79.7751 26.441 79.5683 26.9239 79.374C27.4406 79.1257 27.4893 79.0959 27.292 78.882C27.1244 78.7168 27.1285 78.614 27.299 78.51C27.4938 78.3912 27.5115 78.1463 27.2452 77.8741C27.1911 77.8403 27.2534 77.6685 27.3698 77.5307C27.4862 77.3928 27.7284 77.0779 27.9219 76.7926C28.3185 76.183 28.3916 76.1384 28.4725 76.4902C28.4981 76.6417 28.582 76.7243 28.655 76.6798C28.8255 76.5758 28.9814 75.8455 28.8773 75.6749C28.8719 75.6113 28.8125 75.5139 28.7679 75.4408C28.7382 75.392 28.8463 75.4598 29.0234 75.5858C29.4466 75.896 29.6806 75.7867 29.5645 75.3226C29.5092 75.1223 29.6392 74.8424 29.8773 74.6303C30.1736 74.3492 30.2021 74.2315 29.9952 74.0568C29.8425 73.916 29.7777 73.7549 29.821 73.6616C29.8887 73.5535 29.7995 73.4073 29.6616 73.2908C29.4696 73.1404 29.5278 73.0715 30.0446 72.8231C30.6736 72.5397 30.7318 72.4708 31.2921 71.5271C31.4613 71.2568 31.7036 70.9418 31.8253 70.8676C31.9471 70.7933 32.0242 70.6459 31.9797 70.5728C31.9202 70.4754 31.9879 70.3672 32.0853 70.3078C32.207 70.2335 32.1814 70.082 31.9543 69.8193C31.6975 69.5079 31.7058 69.3023 31.9752 68.7033C32.3313 67.9177 32.6033 67.6515 32.9954 67.7466C33.1915 67.7941 33.3132 67.7199 33.4581 67.4644C33.5691 67.2629 33.8167 67.0115 34.0358 66.8779C34.2307 66.759 34.3809 66.5671 34.3363 66.494C34.2768 66.3965 34.3689 66.2735 34.5393 66.1695C34.7098 66.0656 34.7721 65.8938 34.7126 65.7964C34.6532 65.6989 34.6614 65.4933 34.7534 65.3703C34.8454 65.2473 34.8685 65.066 34.8091 64.9686C34.7347 64.8467 34.885 64.6548 35.2259 64.4468C35.6155 64.2091 35.7752 63.978 35.8119 63.6547C35.8634 63.3558 36.0082 63.1003 36.2423 62.991C36.4763 62.8816 36.544 62.7735 36.4304 62.6421C36.3318 62.5352 36.3751 62.4419 36.5996 62.3718C36.7998 62.3165 36.9744 62.1097 37.0069 61.8893C37.0544 61.6932 37.2615 61.2659 37.4794 60.9658C37.7798 60.5819 37.8124 60.3615 37.6638 60.1178C37.5449 59.9229 37.5287 59.7321 37.6018 59.6876C37.6992 59.6282 37.8222 59.7203 37.9114 59.8665C38.0154 60.037 38.1533 60.1535 38.2561 60.1577C38.4373 60.1809 38.6501 59.2152 38.473 59.0892C38.3892 59.0066 38.5543 58.839 38.9588 58.6257C39.0954 58.5758 39.2308 58.3595 39.2538 58.1783C39.3054 57.8794 39.3541 57.8497 39.5407 57.9364C39.7273 58.0232 39.7516 58.0083 39.6624 57.8622C39.603 57.7647 39.6801 57.6173 39.8262 57.5282C39.9723 57.4391 40.0833 57.2376 40.0577 57.0861C40.0321 56.9345 40.0944 56.7628 40.2067 56.7278C40.6557 56.5875 40.9306 56.0521 40.7089 55.853C40.5169 55.7027 40.5413 55.6878 40.7617 55.7205C41.0362 55.7871 41.4584 55.329 41.4843 54.8785C41.5033 54.8001 41.6535 54.6081 41.8483 54.4893C42.1892 54.2813 42.6304 53.7447 42.8862 53.2878C42.9634 53.1404 43.0987 52.9241 43.1907 52.8011C43.2828 52.6781 43.5345 52.3239 43.728 52.0387C44.1436 51.3506 44.7577 51.0428 44.8441 51.4582C44.8994 51.6584 44.9386 51.668 45.0699 51.5545C45.1619 51.4315 45.1606 51.2651 45.1255 51.1527C45.0512 51.0309 44.9864 50.8699 44.9269 50.7724C44.8918 50.6601 45.061 50.3897 45.3478 50.1479C45.6103 49.9209 45.8769 49.5911 45.9149 49.4342C45.9866 49.2232 46.0597 49.1787 46.2071 49.2559C46.5559 49.4443 47.2728 49.1407 47.3433 48.7634C47.3895 48.4009 47.0217 48.2909 46.8335 48.6397C46.7807 48.7723 46.7415 48.7627 46.7402 48.5964C46.7295 48.4692 46.9041 48.2624 47.1286 48.1923C47.3383 48.0978 47.4452 47.9992 47.3519 47.9558C47.1261 47.8595 47.2292 47.2617 47.4727 47.1131C47.5944 47.0389 47.7715 47.1649 47.935 47.4329C48.1431 47.774 48.2513 47.8417 48.4948 47.6932C48.7626 47.5298 48.7329 47.4811 48.4625 47.3117C48.0988 47.0989 48.2003 46.9367 48.6561 47.0264C48.9306 47.093 48.9008 47.0443 48.6643 46.8208C48.3885 46.5879 48.4223 46.5338 48.8607 46.2664C49.4207 45.9247 49.5792 45.5272 49.3116 45.0886C49.2076 44.9181 49.2117 44.8153 49.3442 44.8682C49.4375 44.9115 49.8378 44.801 50.2031 44.5782C50.6806 44.3203 50.9836 44.2692 51.2635 44.3994C51.7151 44.592 51.964 44.507 51.7707 44.1903C51.6667 44.0197 51.7492 43.9359 52.086 43.8308C52.4864 43.7202 52.4959 43.681 52.2445 43.4332C51.939 43.1515 52.2002 42.7581 52.8928 42.4694C53.1024 42.3749 53.4136 42.1182 53.549 41.9019C53.8197 41.4693 54.2741 41.3927 54.5119 41.7825C54.5863 41.9043 54.689 41.9085 54.7324 41.8152C54.8 41.707 54.7649 41.5947 54.6716 41.5513C54.4161 41.4063 55.0195 40.9714 55.3724 41.057C55.6862 41.133 55.7105 41.1182 55.5767 40.8989C55.4281 40.6553 55.8098 40.0212 56.1181 40.0337C56.2209 40.0379 56.2465 40.1894 56.1599 40.376C55.9825 40.852 56.2962 40.9281 56.552 40.4711C56.663 40.2697 56.8038 40.1169 56.9065 40.1211C57.0337 40.1104 57.0378 40.0076 56.9783 39.9101C56.7851 39.5934 57.0678 39.4544 57.3828 39.6968C57.5748 39.8472 57.6235 39.8175 57.533 39.5049C57.4508 38.9867 57.6943 38.8382 57.9713 39.2375C58.1146 39.4176 58.1687 39.4515 58.1187 39.3148C58.0931 39.1632 58.1203 38.8792 58.2069 38.6926C58.4141 38.2653 59.0497 38.2119 59.4147 38.5911C59.612 38.805 59.6607 38.7753 59.7663 38.5103C59.8138 38.3141 59.8125 38.1478 59.7436 38.0895C59.6503 38.0461 59.8505 37.9909 60.1683 37.9642C60.4861 37.9374 60.7593 37.8376 60.7783 37.7592C60.7973 37.6807 60.6797 37.6522 60.5038 37.6926C60.3523 37.7181 60.1563 37.6706 60.0968 37.5731C59.9482 37.3295 60.3919 37.1257 60.7407 37.3141C60.9421 37.4252 61.0152 37.3806 61.0721 37.1453C61.129 36.91 61.2169 36.8898 61.5063 36.9807C61.7957 37.0717 61.82 37.0568 61.6916 36.9011C61.3808 36.5558 61.6973 36.3627 62.0082 36.708C62.388 37.1115 63.017 36.8281 62.6616 36.4097C62.4642 36.1958 62.4886 36.1809 62.7726 36.2083C63.0714 36.26 63.1296 36.1911 63.2055 35.8773C63.3193 35.4067 63.5236 35.2486 63.702 35.541C63.7615 35.6385 63.9778 35.774 64.1833 35.7823C64.5214 35.8435 64.5065 35.8192 64.1821 35.6159C63.7643 35.3693 63.7928 35.2516 64.3718 34.8315C64.7317 34.5451 64.7953 34.5397 64.9493 34.847C65.1532 35.2909 65.6956 35.1941 65.5552 34.7448C65.4647 34.4322 65.5473 34.3484 65.972 34.2231C66.2452 34.1233 66.6902 34.0858 66.9498 34.128C67.2243 34.1946 67.5124 34.1192 67.6045 33.9962C67.8129 33.7353 68.0494 33.9588 67.8951 34.2535C67.7746 34.4942 69.1231 34.2399 69.3166 33.9547C69.3843 33.8465 69.3587 33.695 69.2357 33.6029C69.1126 33.5108 69.0775 33.3984 69.1749 33.339C69.3697 33.2202 70.6936 33.5828 70.8273 33.802C70.926 33.909 70.9598 33.8549 70.9924 33.6345C71.0575 33.1935 71.4661 32.8774 71.6148 33.1211C71.6891 33.2429 71.8608 33.3053 72.0272 33.3041C72.1786 33.2786 72.2612 33.1948 72.2166 33.1217C72.1571 33.0242 72.2938 32.9743 72.5237 32.9678C72.7684 32.9857 73.024 33.1307 73.1726 33.3743C73.3807 33.7154 73.474 33.7588 73.8393 33.536C74.1315 33.3577 74.337 33.3661 74.5046 33.5313C74.6574 33.6721 74.8291 33.7345 74.9265 33.6751C75.0239 33.6157 74.9888 33.5034 74.8806 33.4356C74.7576 33.3435 74.7077 33.2068 74.7605 33.0743C74.8281 32.9662 74.9458 32.9947 75.0052 33.0922C75.0796 33.214 75.2269 33.2912 75.3243 33.2318C75.4461 33.1576 75.4758 33.2063 75.4284 33.4024C75.3335 33.7946 75.4619 33.9503 75.7785 33.7572C75.9489 33.6532 76.2424 33.6413 76.4926 33.7228C77.0172 33.8708 77.3148 33.7561 76.985 33.4892C76.8619 33.3971 76.8566 33.3335 76.9593 33.3377C77.0865 33.327 77.2297 33.5071 77.2851 33.7074C77.3755 34.0199 77.454 34.039 77.9071 33.7959C78.175 33.6325 78.5456 33.4733 78.7363 33.4573C79.0393 33.4062 79.0542 33.4305 78.958 33.6564C78.847 33.8578 78.9403 33.9012 79.3812 33.9666C79.68 34.0183 80.0222 33.9767 80.1832 33.912C80.378 33.7931 80.4713 33.8365 80.5415 34.0611C80.6278 34.4765 81.5623 34.4748 81.6667 34.0434C81.7141 33.8473 81.6208 33.8039 81.2786 33.8455C81.0244 33.8668 80.9459 33.8478 81.0677 33.7735C81.1746 33.6749 81.4532 33.6387 81.698 33.6565C82.0604 33.7029 82.105 33.776 82.1224 34.1331C82.1357 34.5931 82.4114 34.8261 82.6442 34.5503C82.7362 34.4273 82.839 34.4315 82.8985 34.529C82.9579 34.6264 83.0256 34.5183 83.0433 34.2734C83.0746 33.8866 83.0746 33.8866 83.2922 34.1885C83.5003 34.5296 83.7153 34.4987 84.3525 34.0097C84.6055 33.8219 84.6988 33.8653 84.8921 34.182C85.1002 34.5231 85.1786 34.5422 85.4506 34.276C85.8051 33.926 86.1295 34.1292 86.6741 34.9671C86.8376 35.2352 87.0985 35.4438 87.2108 35.4087C87.3623 35.3832 87.3664 35.2804 87.1596 35.1056C86.8 34.7901 86.9704 34.6861 87.6561 34.7693C88.1605 34.8294 88.1902 34.8781 88.0751 35.1824C87.9884 35.3689 87.9707 35.6138 88.0153 35.6869C88.1342 35.8818 88.824 35.8622 88.8714 35.6661C88.8904 35.5877 89.0431 35.7285 89.1918 35.9722C89.4742 36.4351 89.7582 36.4625 89.7502 36.0661C89.7477 35.7333 90.0115 35.6727 90.2047 35.9895C90.3087 36.16 90.4561 36.2373 90.5292 36.1927C90.6266 36.1333 90.7347 36.2011 90.809 36.3229C90.8834 36.4447 91.0159 36.4976 91.0889 36.4531C91.1863 36.3936 91.1904 36.2908 91.131 36.1934C91.0715 36.0959 91.1054 36.0418 91.1838 36.0609C91.2622 36.0799 91.3365 36.2017 91.3229 36.3437C91.3309 36.7401 91.816 37.4806 92.0554 37.4348C92.1825 37.4241 92.3232 37.2714 92.3855 37.0997C92.4817 36.8739 92.5452 36.8685 92.7426 37.0825C92.8953 37.2233 93.1698 37.2899 93.37 37.2346C93.5702 37.1794 93.7906 37.2121 93.8501 37.3095C93.9987 37.5532 93.7701 37.7261 93.524 37.5419C93.3861 37.4254 93.3374 37.4551 93.2562 37.7053C93.2236 37.9257 93.229 37.9893 93.3507 37.9151C93.4481 37.8556 93.5509 37.8598 93.5806 37.9085C93.74 38.2794 93.9266 38.3661 94.1945 38.2027C94.3649 38.0987 94.5461 38.1219 94.6056 38.2194C94.7988 38.5361 95.3519 38.5665 95.3007 38.2634C95.29 38.1362 95.3684 38.1553 95.4576 38.3015C95.586 38.4572 95.6467 38.721 95.5939 38.8535C95.5085 39.2065 96.1615 39.5102 96.6742 39.3646C97.1232 39.2244 97.3206 39.4384 97.0783 39.7533C96.8943 39.9993 97.1429 40.5163 97.4756 40.514C97.6027 40.5033 97.6852 40.4195 97.7137 40.3019C97.7029 40.1747 97.8829 40.0315 98.0831 39.9762C98.2832 39.921 98.4252 39.9346 98.4455 40.0226C98.4414 40.1254 98.3588 40.2092 98.2561 40.205C97.9869 40.202 98.1599 40.4308 98.5128 40.5164C98.7089 40.564 98.7386 40.6127 98.5438 40.7315C98.4221 40.8058 98.3301 40.9288 98.3895 41.0263C98.4341 41.0994 98.5517 41.1279 98.6491 41.0685C98.7465 41.0091 98.8601 41.1404 98.9695 41.3746C99.0694 41.6479 99.2222 41.7888 99.4521 41.7823C99.7456 41.7704 99.7456 41.7704 99.5859 42.0015C99.368 42.3016 99.7924 42.7782 100.109 42.5851C100.255 42.496 100.339 42.5786 100.409 42.8032C100.505 43.1794 100.857 43.0986 100.946 42.6428C100.993 42.4467 101.081 42.4265 101.229 42.5038C101.361 42.5567 101.417 42.7569 101.311 43.022C101.239 43.2329 101.251 43.5265 101.326 43.6483C101.424 43.7553 101.543 43.9502 101.642 44.0572C101.74 44.1642 101.932 44.3145 102.08 44.3918C102.32 44.5124 102.369 44.4827 102.363 44.2527C102.376 44.1107 102.468 43.9877 102.595 43.977C102.864 43.98 103.149 44.7757 103.01 45.0948C102.923 45.2814 103.187 45.2208 103.489 45.0034C103.523 44.9493 103.655 45.0022 103.778 45.0943C103.931 45.2351 103.887 45.3284 103.644 45.477C103.449 45.5958 103.323 45.7729 103.383 45.8704C103.442 45.9678 103.579 45.9179 103.759 45.7747C103.982 45.5382 104.021 45.5477 103.936 45.9007C103.818 46.4742 103.872 46.508 104.579 46.2436L105.189 46.0387L104.846 46.5158C104.502 46.993 104.55 47.5653 104.916 47.3424C104.989 47.2979 105.067 47.3169 105.063 47.4197C105.041 47.7673 105.478 47.9355 106.035 47.8631C106.641 47.7609 106.863 47.96 106.424 48.2274C106.181 48.3759 106.192 48.5031 106.489 48.9904C106.742 49.4046 106.894 49.5455 107.065 49.4415C107.308 49.2929 107.506 49.5069 107.361 49.7624C107.173 50.1112 107.453 50.2414 107.773 49.9455C108.011 49.7333 108.202 49.7173 108.404 49.8284C108.644 49.9491 108.625 50.0275 108.288 50.1327C107.918 50.2919 107.881 50.6152 108.253 50.6223C108.38 50.6116 108.499 50.8066 108.589 51.1192C108.73 51.5684 108.76 51.6172 109.027 51.4537C109.344 51.2606 109.264 51.0752 108.872 50.9801C108.715 50.9421 108.646 50.8838 108.744 50.8244C108.987 50.6759 109.612 51.0972 109.708 51.4734C109.754 51.7129 109.701 51.8454 109.437 51.906C109.149 51.9815 109.154 52.045 109.312 52.2495C109.456 52.4295 109.646 52.4135 109.987 52.2055C110.611 51.8585 110.846 51.9156 110.63 52.3821C110.496 52.7648 110.496 52.7648 110.922 52.8058C111.166 52.8236 111.289 52.9157 111.216 52.9603C111.119 53.0197 110.928 53.0358 110.771 52.9977C110.575 52.9502 110.478 53.0096 110.416 53.1813C110.378 53.3382 110.476 53.4452 110.766 53.5361C111.025 53.5783 111.124 53.6853 111.071 53.8178C110.965 54.0828 111.751 55.0414 111.97 54.9077C112.067 54.8483 112.13 54.6766 112.119 54.5494C112.084 54.4371 112.166 54.3533 112.284 54.3818C112.402 54.4104 112.427 54.5619 112.355 54.7729C112.269 54.9595 112.285 55.1502 112.363 55.1692C112.442 55.1883 112.492 55.3249 112.415 55.4723C112.318 55.6981 112.333 55.7225 112.577 55.5739C112.859 55.4349 112.859 55.4349 112.632 55.7742C112.482 55.9661 112.459 56.1474 112.552 56.1908C112.754 56.3019 113.134 56.1035 113.127 55.8735C113.122 55.8099 113.137 55.8343 113.196 55.9317C113.231 56.044 113.393 56.1457 113.52 56.135C113.662 56.1486 113.927 56.2544 114.11 56.444C114.371 56.6526 114.376 56.7162 114.15 56.6199C113.91 56.4993 113.861 56.529 113.824 56.8523C113.816 57.0579 113.671 57.3134 113.55 57.3877C113.355 57.5065 113.36 57.5701 113.616 57.7151C113.832 57.8506 113.906 57.9724 113.859 58.1685C113.811 58.3646 113.871 58.4621 114.121 58.5435C114.332 58.6154 114.391 58.7129 114.339 58.8454C114.175 59.1794 114.48 59.4611 114.821 59.2531C114.992 59.1491 115.119 59.1384 115.1 59.2169C115.081 59.2953 115.18 59.4023 115.327 59.4795C115.484 59.5176 115.543 59.6151 115.47 59.6596C115.397 59.7042 115.286 59.9056 115.199 60.0922C115.084 60.3965 115.105 60.4844 115.414 60.6633C115.685 60.8327 115.774 60.9789 115.825 61.282C115.832 61.5119 115.956 61.7704 116.079 61.8626C116.31 62.0224 116.334 62.0076 116.39 61.6059C116.421 61.219 116.494 61.1744 116.769 61.241C117.043 61.3076 117.064 61.3955 116.978 61.7485C116.882 61.9743 116.762 62.215 116.679 62.2988C116.003 62.7783 116.003 62.7783 116.311 62.7908C116.477 62.7896 116.571 62.833 116.498 62.8776C116.425 62.9221 116.523 63.0291 116.671 63.1064C116.833 63.208 117.124 63.4653 117.33 63.6401C117.68 63.9948 117.68 63.9948 117.183 64.1648C116.797 64.2996 116.729 64.4078 116.766 64.6865C116.821 64.8868 116.94 65.0817 117.048 65.1494C117.142 65.1928 117.162 65.2808 117.04 65.3551C116.918 65.4293 116.948 65.4781 117.159 65.55C117.409 65.6314 117.429 65.7194 117.275 66.0141C117.004 66.4467 117.123 66.6416 117.587 66.5258C117.875 66.4503 117.944 66.5086 117.902 66.7682C117.879 66.9495 117.753 67.1266 117.656 67.186C117.388 67.3494 117.507 67.5443 117.948 67.6097C118.129 67.6329 118.315 67.7197 118.375 67.8171C118.434 67.9146 118.386 67.9443 118.19 67.8968C117.758 67.7921 117.691 67.9003 117.846 68.3739C117.936 68.6865 118.104 68.8517 118.354 68.9332C118.698 69.058 118.712 69.0823 118.562 69.2743C118.47 69.3973 118.477 69.6272 118.566 69.7734C118.655 69.9196 118.677 70.174 118.678 70.3404C118.597 70.5905 118.69 70.6339 119.013 70.6708C119.258 70.6886 119.523 70.7944 119.612 70.9406C119.809 71.1546 119.785 71.1694 119.451 71.0054C119.279 70.943 119.035 70.9251 118.937 70.9846C118.742 71.1034 118.728 71.079 119.255 71.5598C119.614 71.8754 119.635 71.9633 119.425 72.0578C119.039 72.1927 119.093 72.8285 119.52 73.036C119.815 73.1905 119.845 73.2392 119.65 73.358C119.528 73.4323 119.49 73.5892 119.565 73.711C119.639 73.8329 119.772 73.8858 119.845 73.8412C119.942 73.7818 120.02 73.8008 120.08 73.8983C120.124 73.9714 120.072 74.1039 119.926 74.193C119.755 74.297 119.8 74.3701 120.201 74.426L120.706 74.486L120.234 74.8075C119.771 75.0897 119.761 75.1289 120.078 75.5378C120.379 75.9223 120.365 76.0643 120.07 76.5118C119.785 76.92 119.771 77.0621 119.983 77.3004C120.151 77.4656 120.246 77.6754 120.187 77.7443C120.076 77.9457 119.415 77.8476 119.345 77.623C119.2 77.2766 118.999 77.1654 118.731 77.3288C118.366 77.5516 118.014 77.0304 118.132 76.457C118.175 76.1973 118.139 76.085 118.018 76.1593C117.896 76.2336 117.812 76.1509 117.757 75.9507C117.701 75.7504 117.588 75.6191 117.485 75.6149C117.358 75.6256 117.224 75.4063 117.149 75.1181C117.064 74.8691 116.9 74.6011 116.777 74.509C116.644 74.4561 116.516 74.3004 116.49 74.1488C116.48 74.0216 116.347 73.9688 116.225 74.043C115.836 74.2807 115.609 74.018 115.717 73.4838C115.835 72.9103 115.631 72.4664 115.021 72.0694C114.721 71.8513 114.617 71.6808 114.62 71.4116C114.608 71.118 114.549 71.0205 114.196 70.9349C113.906 70.844 113.837 70.7858 113.954 70.6479C114.061 70.5493 114.001 70.4518 113.824 70.3258C113.421 70.1035 113.063 69.3524 113.282 69.2187C113.38 69.1593 113.408 69.0416 113.349 68.9441C113.304 68.871 113.226 68.852 113.182 68.9453C113.149 68.9994 112.892 68.688 112.595 68.2007C112.128 67.3818 112.099 67.333 111.758 67.541C111.563 67.6598 111.428 67.8761 111.492 68.0372C111.518 68.1887 111.45 68.2969 111.323 68.3076C111.22 68.3034 111.192 68.4211 111.281 68.5673C111.37 68.7134 111.422 69.0165 111.413 69.2221C111.367 69.5846 111.367 69.5846 111.116 69.3368C110.766 68.982 110.552 69.1793 110.727 69.7409C110.863 70.1266 110.819 70.2199 110.497 70.3494C110.063 70.514 110.063 70.514 110.758 71.7619C110.956 72.1423 111.155 72.5226 111.166 72.6498C111.176 72.7769 111.355 73.0693 111.606 73.3172C111.872 73.5893 112.041 73.9209 112.057 74.1117C112.064 74.3417 112.138 74.4635 112.329 74.4475C112.456 74.4368 112.57 74.5681 112.58 74.6953C112.582 74.8617 112.72 74.9782 113.004 75.0055C113.43 75.0466 113.381 75.0763 112.496 75.2147C112.257 75.2604 112.238 75.3389 112.519 75.6354C112.746 75.8981 112.801 76.0983 112.647 76.3931C112.551 76.6189 112.562 76.7461 112.659 76.6866C112.757 76.6272 112.949 76.7776 113.112 77.0456C113.251 77.3285 113.508 77.6399 113.67 77.7415C113.862 77.8919 113.908 78.1314 113.813 78.5236C113.739 79.0037 113.734 79.1065 113.989 79.0851C114.219 79.0786 114.278 79.1761 114.31 79.5576C114.307 79.8268 114.422 80.1245 114.585 80.2262C114.708 80.3183 114.748 80.4942 114.68 80.6023C114.506 80.8091 115.149 81.754 115.595 81.883C115.885 81.9739 115.776 82.5082 115.354 82.9663C115.087 83.2961 115.236 83.5398 115.601 83.3169C116.015 83.0644 116.326 83.4097 116.411 84.2607C116.5 85.0088 116.5 85.0088 116.812 84.9185C117.213 84.808 117.395 84.9976 117.138 85.2882C117.012 85.4653 117.067 85.6655 117.33 86.0405C117.661 86.4737 117.657 86.5766 117.364 86.7548C116.941 87.0466 116.899 87.3063 117.256 87.289C117.525 87.292 117.516 87.3313 117.321 87.4501C117.175 87.5392 117.083 87.6622 117.142 87.7597C117.187 87.8328 117.329 87.8465 117.426 87.787C117.67 87.6385 118.186 87.9921 118.189 88.3249C118.165 88.5061 118.429 88.4455 118.707 88.2429C118.755 88.2132 118.834 88.2322 118.878 88.3053C118.938 88.4028 118.846 88.5258 118.675 88.6298C118.529 88.7189 118.409 88.9596 118.41 89.126C118.437 89.4439 118.412 89.4587 118.195 89.1568C118.091 88.9863 117.953 88.8698 117.88 88.9144C117.709 89.0183 117.875 89.6191 118.202 90.1552C118.366 90.4232 118.528 90.5248 118.674 90.4357C118.942 90.2723 118.957 90.2967 119.059 90.9028C119.105 91.1423 119.073 91.3628 118.946 91.3735C118.843 91.3693 118.981 91.4858 119.251 91.6551C119.546 91.8097 119.806 91.8519 119.873 91.7437C119.931 91.6748 119.912 91.7532 119.865 91.9493C119.731 92.332 119.782 92.6351 119.936 92.3404C120.1 92.0064 120.365 92.7142 120.242 93.224C120.137 93.6555 120.167 93.7042 120.356 93.5218C120.512 93.3934 120.654 93.4071 120.812 93.6115C120.955 93.7916 120.927 93.9093 120.79 93.9592C120.663 93.9699 120.61 94.1024 120.7 94.2486C120.789 94.3948 120.867 94.4138 120.969 94.2516C121.022 94.119 121.051 94.1678 121.034 94.4126C121.001 94.6331 120.826 94.8399 120.665 94.9046C120.49 94.945 120.334 95.0734 120.369 95.1857C120.376 95.4157 120.865 95.4514 120.976 95.2499C120.995 95.1715 121.113 95.2 121.202 95.3462C121.276 95.468 121.268 95.6736 121.201 95.7818C121.06 95.9345 121.149 96.0807 121.4 96.3285C121.706 96.6102 121.732 96.7617 121.558 97.1349C121.308 97.6555 121.497 98.075 121.97 97.92C122.17 97.8647 122.352 97.8879 122.396 97.961C122.456 98.0585 122.553 97.999 122.576 97.8178C122.657 97.5676 122.745 97.5474 122.977 97.7073C123.178 97.8184 123.417 97.7727 123.817 97.4958C124.118 97.2783 124.44 97.1488 124.563 97.2409C124.735 97.3033 124.744 97.2641 124.596 97.0204C124.477 96.8255 124.5 96.6442 124.622 96.57C124.743 96.4957 124.781 96.3388 124.707 96.217C124.529 95.9246 124.933 95.7113 125.209 95.9443C125.47 96.1529 125.791 95.8569 125.597 95.5402C125.523 95.4184 125.501 95.164 125.51 94.9584C125.537 94.6744 125.634 94.6149 125.943 94.6274C126.402 94.6144 126.465 94.4426 126.123 93.8822C125.88 93.4288 125.956 93.1151 126.413 92.7692C126.52 92.6706 126.533 92.5285 126.39 92.3485C126.202 92.0953 126.202 92.0953 126.482 92.2255C126.885 92.4478 127.129 92.2992 126.92 91.9581C126.802 91.7632 126.879 91.6158 127.161 91.4768C127.502 91.2688 127.531 91.1511 127.347 90.7952C127.009 90.132 126.997 89.8384 127.285 89.7629C127.437 89.7374 127.597 89.5062 127.702 89.2412C127.827 88.8977 127.821 88.8342 127.681 88.9869C127.298 89.4545 127.294 88.9553 127.724 88.2916C128.14 87.6035 128.14 87.6035 128.245 87.9404C128.3 88.1407 128.399 88.2476 128.472 88.2031C128.74 88.0397 128.759 87.3593 128.477 86.8963C128.105 86.2872 128.201 86.0614 128.765 86.2189C129.29 86.3669 129.515 86.2968 129.321 85.98C129.247 85.8582 129.285 85.7013 129.382 85.6419C129.577 85.5231 129.529 84.9508 129.307 84.7517C129.154 84.6109 129.392 83.6303 129.586 83.5115C129.684 83.4521 129.807 83.5442 129.911 83.7148C130.178 84.1533 130.387 83.8925 130.168 83.4242C129.999 83.0926 130.086 82.906 130.459 82.4776C130.716 82.187 130.818 82.0248 130.681 82.0747C130.398 82.2137 130.078 81.9076 130.247 81.6373C130.291 81.544 130.211 81.3586 130.073 81.2421C129.935 81.1256 129.855 80.9402 129.914 80.8712C130.034 80.6306 130.821 80.5516 130.828 80.7816C130.824 80.8844 130.893 80.9426 130.966 80.8981C131.063 80.8386 131.062 80.6722 130.958 80.5017C130.854 80.3311 130.877 80.1499 130.999 80.0756C131.12 80.0013 131.223 80.0055 131.253 80.0542C131.383 80.3763 131.485 80.3805 131.571 80.0275C131.637 79.753 131.602 79.6407 131.391 79.5687C131.048 79.4439 131.148 79.1153 131.596 78.8087C131.766 78.7047 131.804 78.5478 131.745 78.4504C131.592 78.3095 131.718 78.1324 132.21 77.8989C132.508 77.7842 132.328 77.3255 132.001 77.3914C131.825 77.4318 131.795 77.3831 131.867 77.1721C131.92 77.0396 131.919 76.8732 131.85 76.815C131.781 76.7567 131.8 76.6783 131.873 76.6337C131.946 76.5892 132.024 76.6082 132.059 76.7205C132.08 76.8085 132.151 76.5975 132.237 76.2445C132.336 75.7495 132.462 75.5724 132.798 75.4673C133.311 75.3217 133.528 74.8552 133.213 74.6128C132.789 74.3025 132.76 73.6518 133.154 73.3113C133.45 73.0303 133.479 72.9126 133.212 72.6404C132.862 72.2856 133.095 72.0099 133.775 72.0296C133.981 72.0379 134.19 71.9434 134.209 71.865C134.214 71.7622 134.13 71.6796 133.949 71.6564C133.694 71.6778 133.665 71.629 133.761 71.4032C133.838 71.2559 133.788 71.1192 133.665 71.027C133.517 70.9498 133.512 70.8862 133.654 70.8999C133.781 70.8892 133.943 70.9908 134.018 71.1126C134.152 71.3319 134.425 71.2321 134.418 71.0021C134.437 70.9237 134.278 70.5529 134.118 70.182C133.959 69.8112 133.824 69.4255 133.813 69.2984C133.802 69.1712 133.664 69.0547 133.523 69.041C133.293 69.0476 133.326 68.9935 133.566 68.9477C133.742 68.9073 133.965 68.6708 134.125 68.4397C134.332 68.0124 134.317 67.9881 133.791 67.6737C133.506 67.4799 133.093 67.2969 132.882 67.225C132.515 67.115 132.539 67.1001 132.827 67.0247C133.106 66.9884 133.052 66.9546 132.611 66.8892C131.974 66.7762 131.784 66.9587 131.868 67.6432L131.911 68.1519L131.488 67.8417C131.02 67.4584 130.747 67.5582 131.181 67.9956C131.447 68.2678 131.452 68.3314 131.184 68.4948C130.965 68.6285 130.927 68.7854 131.061 69.0046C131.2 69.2875 131.146 69.2536 130.826 68.9476C130.451 68.6076 130.373 68.5886 130.267 68.8536C130.205 69.0254 130.221 69.2161 130.329 69.2839C130.413 69.3665 130.405 69.5721 130.318 69.7587C130.207 69.9601 130.223 70.1509 130.317 70.1943C130.44 70.2864 130.391 70.3161 130.122 70.3131C129.574 70.3464 129.54 70.4004 129.762 70.5995C129.885 70.6917 129.92 70.804 129.823 70.8634C129.725 70.9228 129.712 71.0648 129.786 71.1867C129.86 71.3085 129.847 71.4505 129.749 71.5099C129.676 71.5545 129.607 71.4963 129.597 71.3691C129.586 71.2419 129.571 71.2176 129.518 71.3501C129.451 71.4582 129.467 71.649 129.526 71.7464C129.63 71.917 129.504 72.0941 128.92 72.4506C128.628 72.6289 128.718 72.9414 129.025 72.7875C129.123 72.7281 129.104 72.8066 128.978 72.9837C128.852 73.1607 128.642 73.2552 128.5 73.2415C128.099 73.1856 127.979 73.5927 128.347 73.7027C128.597 73.7841 128.627 73.8328 128.427 73.8881C128.29 73.938 128.262 74.0556 128.351 74.2018C128.465 74.3332 128.466 74.4996 128.344 74.5738C128.222 74.6481 128.179 74.7414 128.238 74.8389C128.283 74.912 128.401 74.9405 128.498 74.8811C128.571 74.8365 128.625 74.8704 128.636 74.9976C128.624 75.306 128.229 75.4801 128.08 75.2364C128.006 75.1146 127.897 75.0468 127.8 75.1063C127.727 75.1508 127.684 75.2441 127.728 75.3172C127.773 75.3903 127.666 75.4889 127.466 75.5442C127.193 75.644 127.183 75.6832 127.375 75.8336C127.498 75.9257 127.548 76.0624 127.451 76.1218C127.353 76.1812 127.306 76.3773 127.331 76.5289C127.414 77.0471 127.242 77.5866 127.035 77.4119C126.951 77.3293 126.809 77.3156 126.687 77.3899C126.371 77.583 125.929 77.3512 126.029 77.0226C126.076 76.8265 126.032 76.7534 125.826 76.7451C125.596 76.7516 125.615 76.6732 125.799 76.4272C125.94 76.2744 125.997 76.0391 125.908 75.8929C125.818 75.7467 125.821 75.4775 125.923 75.3153C126.034 75.1139 126.031 74.7811 125.952 74.5957C125.827 74.3372 125.88 74.2047 126.148 74.0413C126.406 73.9171 126.45 73.8238 126.316 73.6045C126.212 73.4339 126.065 73.3567 125.991 73.4012C125.894 73.4606 125.82 73.3388 125.808 73.0453C125.784 72.4581 125.929 72.2026 126.267 72.2638C126.448 72.287 126.521 72.2425 126.461 72.145C126.402 72.0475 126.284 72.019 126.172 72.0541C126.06 72.0891 125.9 71.7183 125.724 70.9903C125.567 70.3503 125.436 69.8618 125.397 69.8523C125.358 69.8428 125.167 69.8588 124.937 69.8653C124.58 69.8826 124.565 69.8582 124.832 69.5284C125.249 69.0067 125.231 68.6495 124.81 67.9037C124.611 67.5234 124.476 67.1377 124.49 66.9957C124.565 66.6819 124.437 66.5262 124.169 66.6896C124.047 66.7639 123.891 66.7258 123.801 66.5796C123.682 66.3847 123.731 66.355 123.991 66.3972C124.25 66.4394 124.284 66.3853 124.151 66.1661C124.046 65.9955 123.991 65.7952 124.034 65.7019C124.101 65.4274 123.609 64.4569 122.704 63.137C122.105 62.2652 122.057 61.693 122.535 61.6015C122.76 61.5314 122.721 61.5219 122.398 61.485C122.035 61.4386 121.966 61.3804 121.978 61.072C121.987 60.8663 122.132 60.6108 122.272 60.4581C122.608 60.1866 122.419 59.767 121.929 59.7313C121.464 59.6808 121.144 58.7727 121.459 58.4132C121.643 58.1672 121.612 57.9521 121.151 57.1968C120.78 56.5876 120.612 56.4224 120.417 56.5413C120.125 56.7195 119.721 56.3309 119.861 56.0117C120.004 55.5898 119.775 54.9944 119.282 54.6259C118.992 54.3686 118.888 54.198 118.911 54.0168C118.987 53.703 118.618 53.4267 118.374 53.5752C118.252 53.6495 118.195 53.8848 118.226 54.0999C118.298 54.491 118.298 54.491 118.045 54.0767C117.872 53.8479 117.771 53.4082 117.789 53.1634C117.805 52.7521 117.776 52.7034 117.536 52.7491C117.17 52.8056 116.833 52.3088 117.125 52.1305C117.393 51.9671 117.289 51.7965 116.921 51.6866C116.764 51.6485 116.696 51.5903 116.769 51.5457C116.881 51.5107 117.076 51.3918 117.27 51.273C117.523 51.0852 117.542 51.0068 117.276 50.7346C117.079 50.5207 116.999 50.3352 117.076 50.1879C117.163 50.0013 117.07 49.9579 116.742 50.0238C115.697 50.227 115.736 50.2365 115.989 50.0488C116.388 49.7719 116.375 49.3119 115.898 48.9678C115.568 48.701 115.48 48.7212 115.399 48.9713C115.298 49.3 115.082 49.1644 115.182 48.8358C115.23 48.6397 114.491 47.3187 114.289 47.2075C114.235 47.1736 114.079 47.302 113.944 47.5183C113.751 47.8035 113.726 47.8184 113.744 47.5735C113.767 47.3923 113.602 46.9579 113.364 46.568C112.978 45.9345 112.924 45.9007 112.839 46.2537C112.772 46.5282 112.714 46.5971 112.576 46.4806C112.453 46.3885 112.432 46.1342 112.518 45.9476C112.609 45.6582 112.533 45.37 112.281 44.9558C111.825 44.264 111.54 44.0703 111.346 44.3555C111.206 44.5082 111.295 44.6544 111.561 44.9266C111.783 45.1257 111.887 45.2962 111.79 45.3557C111.716 45.4002 111.623 45.3568 111.579 45.2838C111.519 45.1863 111.392 45.197 111.27 45.2712C110.954 45.4644 110.854 45.191 110.977 44.6811C111.072 44.2889 111.042 44.2402 110.803 44.2859C110.651 44.3115 110.534 44.2829 110.538 44.1801C110.557 44.1017 110.443 43.9704 110.286 43.9323C109.865 43.7885 109.373 42.818 109.531 42.4205C109.646 42.1162 109.617 42.0675 109.115 41.7383C108.83 41.5445 108.534 41.2236 108.464 40.999C108.364 40.7256 108.295 40.6674 108.1 40.7862C107.978 40.8605 107.886 40.9835 107.946 41.0809C107.99 41.154 107.962 41.2717 107.889 41.3163C107.791 41.3757 107.638 41.2348 107.49 40.9912C107.232 40.5134 106.536 39.701 106.418 39.6725C106.364 39.6386 106.348 39.4478 106.429 39.1977C106.59 38.5309 106.398 38.3806 105.898 38.8197C105.519 39.1845 105.416 39.1804 105.008 38.8945C104.693 38.652 104.574 38.4571 104.552 38.2028C104.528 37.6156 104.405 37.5235 103.966 37.6245L103.565 37.735L103.832 37.4052C104.05 37.1051 104.03 37.0172 103.72 36.8383C103.465 36.6933 103.274 36.7093 103.06 36.9066C102.764 37.1877 101.98 36.9975 102.153 36.6243C102.22 36.5161 102.111 36.282 101.929 36.0924C101.716 35.8541 101.52 35.8065 101.286 35.9159C100.97 36.109 100.97 36.109 101.236 35.7792C101.362 35.6021 101.449 35.4155 101.404 35.3424C101.375 35.2937 101.277 35.3531 101.185 35.4761C101.093 35.5991 100.981 35.6342 100.936 35.5611C100.877 35.4636 100.92 35.3703 101.017 35.3109C101.091 35.2663 100.977 35.135 100.751 35.0387C100.525 34.9424 100.21 34.7 100.106 34.5294C99.9874 34.3345 99.8009 34.2477 99.6791 34.322C99.5574 34.3963 99.5194 34.5531 99.5937 34.675C99.668 34.7968 99.6301 34.9537 99.5083 35.0279C99.2161 35.2062 99.077 34.9233 99.1611 34.404C99.237 34.0902 99.1775 33.9927 98.9125 33.8869C98.7408 33.8245 98.4865 33.8459 98.3648 33.9202C98.2282 33.9701 97.7873 33.9047 97.3601 33.6973C96.5745 33.3407 96.4651 33.1065 97.0103 32.7405C97.2782 32.5771 97.0862 32.4267 96.5182 32.372C96.0679 32.3459 96.0192 32.3756 96.1232 32.5461C96.1975 32.668 96.2137 32.8587 96.146 32.9669C96.0688 33.1142 96.0242 33.0411 95.9297 32.8314C95.8446 32.5824 95.7608 32.4998 95.6147 32.5889C95.3468 32.7523 95.109 32.3624 95.3418 32.0867C95.4825 31.934 95.3595 31.8419 94.8497 31.7183C94.4819 31.6083 94.1343 31.5863 94.0464 31.6065C93.9585 31.6267 93.7476 31.5548 93.5556 31.4044C93.3393 31.2689 93.2216 31.2404 93.2567 31.3527C93.3175 31.6165 92.9332 31.9178 92.7995 31.6985C92.7549 31.6254 92.7726 31.3806 92.8051 31.1601C92.9 30.7679 92.8852 30.7436 92.4348 30.7174C92.1752 30.6752 91.9102 30.5694 91.8656 30.4963C91.8061 30.3988 91.5465 30.3566 91.3071 30.4024C91.0041 30.4534 90.8473 30.4154 90.8163 30.2003C90.7907 30.0487 90.6474 29.8687 90.4513 29.8211C90.2796 29.7587 90.1661 29.6274 90.1458 29.5394C90.1499 29.4366 89.9444 29.4283 89.6711 29.5281C89.3735 29.6428 89.0598 29.5667 88.7354 29.3634C88.2581 29.0193 88.0187 29.0651 87.0488 29.5565C86.459 29.8494 86.1494 29.6705 86.6162 29.2855C86.8448 29.1126 86.8341 28.9854 86.6516 28.7958C86.5137 28.6793 86.3177 28.6318 86.2203 28.6912C86.1228 28.7506 85.8781 28.7328 85.6523 28.6365C85.4116 28.5158 85.0843 28.5818 84.7042 28.7802C84.1779 29.0678 83.7127 29.0173 84.1997 28.7202C84.3215 28.6459 84.3107 28.5187 84.1431 28.3535C83.8525 28.0962 83.5116 28.3042 83.763 28.552C83.8468 28.6346 83.8184 28.7522 83.7453 28.7968C83.6723 28.8414 83.5397 28.7885 83.4506 28.6423C83.3614 28.4961 83.1653 28.4485 82.9651 28.5038C82.5891 28.5995 82.412 28.4735 82.5663 28.1787C82.7207 27.884 82.3677 27.7984 81.9538 28.0509C81.759 28.1698 81.5831 28.2102 81.5872 28.1074C81.5913 28.0045 81.444 27.9273 81.2723 27.8649C81.091 27.8417 80.9788 27.8767 81.0085 27.9255C81.0382 27.9742 80.7691 27.9712 80.3675 27.9153C79.7454 27.8267 79.6575 27.8469 79.6452 28.1554C79.6085 28.4786 79.5693 28.4691 79.211 28.3199C78.9703 28.1993 78.8188 28.2248 78.7904 28.3425C78.8024 28.6361 78.3979 28.8494 78.2641 28.6301C78.2047 28.5326 78.1832 28.2783 78.2401 28.043C78.3106 27.6656 78.2957 27.6413 77.9305 27.8641C77.7357 27.9829 77.5611 28.1897 77.5475 28.3317C77.5731 28.4833 77.3919 28.4601 77.0972 28.3056C76.7335 28.0928 76.6307 28.0886 76.4615 28.359C76.249 28.7227 76.2341 28.6983 75.8531 28.1284C75.6355 27.8265 75.5178 27.798 75.089 28.0261C74.8063 28.1652 74.5682 28.3773 74.5546 28.5193C74.5517 28.7885 74.146 28.8355 73.9676 28.5431C73.9081 28.4456 73.6972 28.3737 73.4727 28.4438C73.1846 28.5193 73.1156 28.461 73.1726 28.2257C73.1956 28.0444 73.1308 27.8834 73.0227 27.8156C72.782 27.695 72.1489 28.0812 72.1852 28.3599C72.2257 28.5358 72.177 28.5655 72.0053 28.5031C71.8187 28.4164 71.6483 28.5203 71.3424 28.8406C70.8134 29.3974 70.8769 29.3921 70.7134 29.1241C70.6391 29.0022 70.6771 28.8453 70.8232 28.7562C70.9449 28.6819 70.9585 28.5399 70.8747 28.4573C70.776 28.3503 70.5028 28.4502 70.1186 28.7514C69.7682 28.9986 69.4949 29.0984 69.4355 29.001C69.376 28.9035 69.2881 28.9237 69.2448 29.017C69.1676 29.1644 69.2514 29.247 69.4624 29.3189C69.6733 29.3908 69.703 29.4395 69.5813 29.5138C69.4839 29.5732 69.2729 29.5013 69.081 29.351C68.574 28.9581 68.0601 28.9373 67.9355 29.2808C67.8543 29.5309 67.7663 29.5511 67.5352 29.3913C67.2012 29.2272 67.0415 29.4584 67.2645 29.8239C67.5171 30.2381 67.1465 30.3973 66.6449 30.0681C66.0109 29.6859 65.7417 29.6829 65.6076 30.0656C65.5264 30.3158 65.4628 30.3212 65.3142 30.0775C65.1655 29.8339 65.0235 29.8202 64.7557 29.9836C64.5365 30.1173 64.4499 30.3039 64.5093 30.4013C64.6134 30.5719 64.4916 30.6462 63.9452 30.8458C63.4717 31.0009 63.2526 31.1346 63.2538 31.301C63.2361 31.5458 62.6991 31.7062 62.5654 31.4869C62.5059 31.3895 62.3693 31.4394 62.2286 31.5921C62.0878 31.7448 61.9512 31.7947 61.8918 31.6972C61.7729 31.5023 61.2735 32.1078 61.1989 32.588C61.1663 32.8085 61.0458 33.0491 60.9728 33.0937C60.8754 33.1531 60.832 33.2464 60.8915 33.3439C60.9361 33.417 60.9076 33.5346 60.8102 33.594C60.7128 33.6535 60.5993 33.5221 60.5237 33.2339C60.413 32.8334 60.3738 32.8239 60.2587 33.1281C60.1679 33.4175 60.0949 33.4621 59.8934 33.3509C59.5446 33.1625 58.5408 33.708 58.5975 34.0747C58.6528 34.2749 58.5797 34.3195 58.3593 34.2868C58.1145 34.2689 58.0902 34.2838 58.1645 34.4056C58.224 34.5031 58.205 34.5815 58.0779 34.5922C57.9751 34.5881 57.8764 34.4811 57.8508 34.3295C57.7955 34.1293 57.7562 34.1198 57.606 34.3117C57.514 34.4347 57.4517 34.6064 57.4814 34.6552C57.5112 34.7039 57.4881 34.8852 57.3812 34.9838C57.2648 35.1217 57.0592 35.1133 56.8281 34.9535C56.6105 34.6516 56.2683 34.6931 56.5346 34.9653ZM62.1808 32.3902C62.2064 32.5417 62.178 32.6594 62.1388 32.6498C62.0603 32.6308 62.0401 32.5429 62.0293 32.4157C62.0025 32.0978 62.1147 32.0627 62.1808 32.3902ZM73.121 28.5246C73.102 28.603 72.9803 28.6773 72.868 28.7124C72.7165 28.7379 72.7355 28.6595 72.906 28.5555C73.0277 28.4812 73.14 28.4462 73.121 28.5246ZM40.8654 51.3444C40.8274 51.5013 40.6813 51.5904 40.5785 51.5863C40.3973 51.5631 40.3825 51.5387 40.4542 51.3278C40.6086 51.033 40.9413 51.0307 40.8654 51.3444ZM81.4073 28.2506C81.4816 28.3724 81.4924 28.4996 81.395 28.559C81.3219 28.6035 81.1894 28.5506 81.1151 28.4288C81.0408 28.307 81.0544 28.165 81.1274 28.1204C81.2248 28.061 81.3478 28.1531 81.4073 28.2506ZM43.6322 51.6625C43.8254 51.9793 43.6996 52.1564 43.3466 52.0708C42.9153 51.9661 42.8558 51.8687 43.2211 51.6459C43.3672 51.5567 43.5728 51.5651 43.6322 51.6625ZM76.3199 32.892C76.639 33.0316 76.5077 33.1451 76.0817 33.1041C75.7342 33.0821 75.7193 33.0577 75.9141 32.9389C76.021 32.8403 76.2361 32.8094 76.3199 32.892ZM77.971 33.1886C77.952 33.267 77.8303 33.3413 77.718 33.3764C77.5665 33.4019 77.5855 33.3235 77.756 33.2195C77.8628 33.1209 77.99 33.1102 77.971 33.1886ZM85.472 29.3817C85.453 29.4601 85.3354 29.4316 85.1975 29.3151C84.9812 29.1796 84.9907 29.1404 85.2111 29.1731C85.3828 29.2355 85.5059 29.3276 85.472 29.3817ZM80.8732 33.2904C80.8609 33.5988 80.7783 33.6826 80.5579 33.6499C80.1414 33.5697 80.0766 33.4086 80.4365 33.1222C80.8058 32.7966 80.8694 32.7912 80.8732 33.2904ZM36.1423 62.7176C36.2166 62.8394 36.1977 62.9179 36.0705 62.9286C35.9678 62.9244 35.8353 62.8715 35.7758 62.774C35.7312 62.7009 35.7745 62.6076 35.8476 62.5631C35.945 62.5037 36.0531 62.5714 36.1423 62.7176ZM31.2153 71.0725C31.245 71.1213 31.2409 71.2241 31.1732 71.3322C31.1299 71.4255 31.042 71.4457 30.9974 71.3726C30.9379 71.2752 30.9664 71.1575 31.0395 71.1129C31.1369 71.0535 31.2004 71.0482 31.2153 71.0725ZM29.7236 73.721C29.7195 73.8238 29.6423 73.9712 29.5693 74.0158C29.4718 74.0752 29.4273 74.0021 29.4314 73.8993C29.4206 73.7721 29.5126 73.6491 29.5857 73.6046C29.6831 73.5451 29.7128 73.5939 29.7236 73.721ZM29.6325 74.6124C29.5851 74.8085 29.5215 74.8139 29.358 74.5458C29.1945 74.2778 29.2135 74.1994 29.4244 74.2713C29.6205 74.3189 29.6799 74.4163 29.6325 74.6124ZM98.4167 35.5936C98.3977 35.672 98.2462 35.6976 98.0893 35.6596C97.8784 35.5876 97.8635 35.5633 98.1422 35.527C98.3031 35.4623 98.4356 35.5152 98.4167 35.5936ZM100.704 35.2348C100.748 35.3079 100.696 35.4404 100.574 35.5147C100.452 35.589 100.31 35.5753 100.265 35.5022C100.206 35.4047 100.274 35.2966 100.395 35.2223C100.517 35.148 100.644 35.1374 100.704 35.2348ZM103.067 38.5069C103.048 38.5854 102.931 38.5568 102.793 38.4404C102.577 38.3049 102.586 38.2656 102.806 38.2983C102.963 38.3364 103.062 38.4433 103.067 38.5069ZM103.272 39.7192C103.234 39.8761 103.176 39.945 103.117 39.8476C102.998 39.6527 103.049 39.3537 103.221 39.4162C103.275 39.45 103.31 39.5623 103.272 39.7192ZM105.026 40.02C105.071 40.0931 105.067 40.1959 104.969 40.2553C104.896 40.2999 104.779 40.2714 104.734 40.1983C104.675 40.1008 104.718 40.0075 104.791 39.963C104.864 39.9184 104.967 39.9226 105.026 40.02ZM106.489 41.2675C106.413 41.5812 105.911 41.854 105.777 41.6347C105.584 41.3179 105.937 40.8015 106.247 40.9804C106.409 41.082 106.508 41.189 106.489 41.2675ZM106.688 42.4162C106.733 42.4893 106.705 42.6069 106.607 42.6663C106.534 42.7109 106.465 42.6527 106.469 42.5499C106.459 42.4227 106.502 42.3294 106.551 42.2997C106.575 42.2848 106.629 42.3187 106.688 42.4162ZM107.881 42.8922C108.368 43.1971 108.383 43.2215 108.08 43.2726C107.928 43.2981 107.728 43.3534 107.679 43.3831C107.631 43.4128 107.453 43.2868 107.335 43.0919C107.037 42.6046 107.262 42.5345 107.881 42.8922ZM108.769 43.855C108.843 43.9768 108.766 44.1242 108.596 44.2282C108.279 44.4213 108.117 44.3197 108.221 43.8882C108.312 43.5988 108.576 43.5382 108.769 43.855ZM114.301 48.1031C114.253 48.2992 113.827 48.2581 113.821 48.0282C113.81 47.901 113.907 47.8416 114.079 47.904C114.221 47.9176 114.305 48.0003 114.301 48.1031ZM114.308 50.3054C114.32 50.5989 114.296 50.6138 114.152 50.4337C114.004 50.1901 114.016 49.8816 114.197 49.9048C114.276 49.9239 114.316 50.0998 114.308 50.3054ZM118.994 54.7014C119.054 54.7988 119.065 54.926 118.997 55.0341C118.954 55.1274 118.836 55.0989 118.776 55.0014C118.702 54.8796 118.701 54.7132 118.774 54.6687C118.847 54.6241 118.95 54.6283 118.994 54.7014ZM115.851 60.2295C115.945 60.2729 115.98 60.3852 115.927 60.5178C115.883 60.611 115.766 60.5825 115.706 60.4851C115.543 60.217 115.586 60.1237 115.851 60.2295ZM111.18 70.7018C111.273 70.7452 111.284 70.8724 111.177 70.971C111.017 71.2022 110.773 71.1843 110.654 70.9894C110.589 70.8284 110.979 70.5907 111.18 70.7018ZM123.993 67.332C124.086 67.3754 124.058 67.493 123.96 67.5524C123.839 67.6267 123.672 67.6279 123.628 67.5548C123.568 67.4573 123.587 67.3789 123.66 67.3343C123.758 67.2749 123.885 67.2642 123.993 67.332ZM120.647 75.1569C120.692 75.23 120.688 75.3328 120.615 75.3774C120.517 75.4368 120.375 75.4231 120.282 75.3797C120.174 75.312 120.217 75.2187 120.315 75.1593C120.461 75.0702 120.603 75.0838 120.647 75.1569ZM126.48 77.8172C126.525 77.8903 126.496 78.0079 126.399 78.0673C126.326 78.1119 126.257 78.0537 126.261 77.9509C126.25 77.8237 126.294 77.7304 126.342 77.7007C126.367 77.6858 126.435 77.7441 126.48 77.8172ZM126.78 78.6373C126.899 78.8322 126.72 79.1418 126.49 79.1483C126.363 79.159 126.264 79.052 126.269 78.9492C126.271 78.68 126.661 78.4423 126.78 78.6373ZM132.872 74.8207C132.901 74.8694 132.897 74.9723 132.83 75.0804C132.786 75.1737 132.698 75.1939 132.654 75.1208C132.594 75.0233 132.623 74.9057 132.696 74.8611C132.754 74.7922 132.842 74.772 132.872 74.8207ZM130.477 78.4544C130.406 78.6654 130.381 78.6803 130.345 78.4015C130.304 78.2257 130.333 78.108 130.411 78.127C130.49 78.146 130.515 78.2976 130.477 78.4544ZM129.089 85.0518C129.134 85.1249 129.105 85.2425 129.008 85.302C128.935 85.3465 128.866 85.2883 128.87 85.1855C128.859 85.0583 128.903 84.965 128.951 84.9353C128.976 84.9205 129.03 84.9543 129.089 85.0518ZM127.054 90.807C127.105 91.1101 126.906 91.3318 126.772 91.1125C126.668 90.9419 126.749 90.6917 126.895 90.6026C126.968 90.558 127.028 90.6555 127.054 90.807Z" fill="#C33F40"/>
<path fill-rule="evenodd" clip-rule="evenodd" d="M68.2019 28.3491C68.3291 28.3384 68.4603 28.2249 68.4549 28.1613C68.4739 28.0829 68.3711 28.0787 68.2155 28.2071C68.0694 28.2962 68.0748 28.3598 68.2019 28.3491Z" fill="#C33F40"/>
<path fill-rule="evenodd" clip-rule="evenodd" d="M74.1106 28.1211C74.1849 28.2429 74.3417 28.2809 74.4391 28.2215C74.7557 28.0284 74.7045 27.7253 74.3771 27.7913C73.9958 27.8233 73.9471 27.853 74.1106 28.1211Z" fill="#C33F40"/>
<path fill-rule="evenodd" clip-rule="evenodd" d="M66.1996 34.6521C66.2104 34.7792 66.2455 34.8916 66.3239 34.9106C66.4808 34.9486 66.6541 34.5754 66.55 34.4049C66.446 34.2343 66.2025 34.3829 66.1996 34.6521Z" fill="#C33F40"/>
<path fill-rule="evenodd" clip-rule="evenodd" d="M52.8489 43.1648C52.8935 43.2379 53.0112 43.2664 53.0842 43.2219C53.1816 43.1624 53.1858 43.0596 53.1412 42.9865C53.0817 42.8891 53.0033 42.87 52.9059 42.9295C52.8328 42.974 52.8044 43.0917 52.8489 43.1648Z" fill="#C33F40"/>
<path fill-rule="evenodd" clip-rule="evenodd" d="M49.4388 46.4485C49.4834 46.5216 49.601 46.5501 49.6741 46.5055C49.7715 46.4461 49.7756 46.3433 49.731 46.2702C49.6715 46.1728 49.5931 46.1537 49.4957 46.2132C49.4227 46.2577 49.3942 46.3754 49.4388 46.4485Z" fill="#C33F40"/>
<path fill-rule="evenodd" clip-rule="evenodd" d="M46.1104 50.084C46.1942 50.1666 46.3119 50.1951 46.3849 50.1506C46.5405 50.0222 46.3729 49.857 46.1579 49.8879C46.0213 49.9378 46.0023 50.0162 46.1104 50.084Z" fill="#C33F40"/>
<path fill-rule="evenodd" clip-rule="evenodd" d="M84.9587 28.1571C84.9884 28.2058 85.2035 28.175 85.4618 28.0508C85.7933 27.882 85.8027 27.8428 85.558 27.825C85.1861 27.8178 84.8695 28.0109 84.9587 28.1571Z" fill="#C33F40"/>
<path fill-rule="evenodd" clip-rule="evenodd" d="M40.1585 58.1277C40.2031 58.2008 40.3208 58.2293 40.4182 58.1699C40.4912 58.1253 40.471 58.0374 40.3777 57.994C40.2695 57.9262 40.1667 57.9221 40.118 57.9518C40.0937 57.9666 40.1139 58.0546 40.1585 58.1277Z" fill="#C33F40"/>
<path d="M85.4651 34.9025C85.5458 34.8533 85.5713 34.7479 85.522 34.6672C85.4728 34.5865 85.3674 34.5609 85.2867 34.6101C85.206 34.6594 85.1806 34.7647 85.2298 34.8455C85.2791 34.9262 85.3844 34.9517 85.4651 34.9025Z" fill="#C33F40"/>
<path fill-rule="evenodd" clip-rule="evenodd" d="M32.6457 68.762C32.64 69.3004 32.709 69.3586 32.9648 68.9017C33.0758 68.7002 33.226 68.5083 33.3139 68.4881C33.3775 68.4827 33.3965 68.4043 33.3519 68.3312C33.1884 68.0632 32.6527 68.39 32.6457 68.762Z" fill="#C33F40"/>
<path fill-rule="evenodd" clip-rule="evenodd" d="M28.4715 71.9438C28.5946 72.0359 28.746 72.0103 28.8381 71.8873C29.0221 71.6413 28.7517 71.4719 28.4595 71.6502C28.377 71.734 28.3634 71.876 28.4715 71.9438Z" fill="#C33F40"/>
<path fill-rule="evenodd" clip-rule="evenodd" d="M27.0443 75.3552C27.0889 75.4283 27.2065 75.4568 27.2795 75.4123C27.377 75.3529 27.3811 75.2501 27.3365 75.177C27.277 75.0795 27.1986 75.0605 27.1012 75.1199C27.0281 75.1645 26.9848 75.2578 27.0443 75.3552Z" fill="#C33F40"/>
<path fill-rule="evenodd" clip-rule="evenodd" d="M30.5667 74.6106C30.6113 74.6837 30.729 74.7122 30.8264 74.6528C30.8994 74.6082 30.8792 74.5203 30.7859 74.4769C30.6777 74.4091 30.5749 74.405 30.5262 74.4347C30.5262 74.4347 30.5073 74.5131 30.5667 74.6106Z" fill="#C33F40"/>
<path fill-rule="evenodd" clip-rule="evenodd" d="M28.4398 77.3127C28.4844 77.3858 28.602 77.4144 28.6751 77.3698C28.7725 77.3104 28.7766 77.2076 28.732 77.1345C28.6725 77.037 28.5941 77.018 28.4967 77.0774C28.4236 77.122 28.3803 77.2153 28.4398 77.3127Z" fill="#C33F40"/>
<path fill-rule="evenodd" clip-rule="evenodd" d="M26.6154 81.3337C26.7586 81.5137 26.9601 81.6249 27.0331 81.5803C27.1062 81.5357 27.2143 81.6035 27.2886 81.7253C27.363 81.8471 27.4955 81.9 27.5685 81.8555C27.7633 81.7366 27.7485 81.7123 27.1293 81.3545C26.5047 80.9331 26.2599 80.9153 26.6154 81.3337Z" fill="#C33F40"/>
<path fill-rule="evenodd" clip-rule="evenodd" d="M22.4979 86.6879C22.8008 86.6368 22.9251 86.8953 22.8261 87.3903C22.7556 87.7676 22.7853 87.8164 23.0301 87.8342C23.2357 87.8425 23.3182 87.7588 23.2831 87.6464C23.248 87.5341 23.2996 87.2352 23.3416 86.9755L23.4555 86.5049L22.9956 86.5179C22.7414 86.5393 22.4628 86.5755 22.3897 86.6201C22.3167 86.6647 22.3464 86.7134 22.4979 86.6879Z" fill="#C33F40"/>
<path fill-rule="evenodd" clip-rule="evenodd" d="M22.5667 88.7185C22.6113 88.7916 22.7046 88.835 22.7777 88.7904C22.8751 88.731 22.9279 88.5985 22.932 88.4957C22.9212 88.3685 22.8185 88.3643 22.721 88.4238C22.5749 88.5129 22.5073 88.621 22.5667 88.7185Z" fill="#C33F40"/>
<path fill-rule="evenodd" clip-rule="evenodd" d="M22.1887 89.8515C22.041 90.3762 22.4088 90.4862 22.5713 89.9858C22.6431 89.7748 22.646 89.5056 22.6014 89.4326C22.4973 89.262 22.2836 89.4593 22.1887 89.8515Z" fill="#C33F40"/>
<path fill-rule="evenodd" clip-rule="evenodd" d="M21.7864 92.2035C21.7823 92.3063 21.8512 92.3646 21.9243 92.32C21.9973 92.2755 22.0745 92.1281 22.0786 92.0253C22.0679 91.8981 22.0138 91.8642 21.9407 91.9088C21.8677 91.9534 21.7756 92.0764 21.7864 92.2035Z" fill="#C33F40"/>
<path fill-rule="evenodd" clip-rule="evenodd" d="M22.0873 93.1902C22.1319 93.2633 22.2793 93.3405 22.3821 93.3447C22.5092 93.334 22.5431 93.2799 22.4985 93.2068C22.4539 93.1337 22.3308 93.0416 22.2037 93.0523C22.1009 93.0481 22.0279 93.0927 22.0873 93.1902Z" fill="#C33F40"/>
<path fill-rule="evenodd" clip-rule="evenodd" d="M110.791 43.3905C110.676 43.6947 110.711 43.807 110.907 43.8546C111.103 43.9021 111.161 43.8332 111.218 43.5979C111.263 43.069 110.959 42.9537 110.791 43.3905Z" fill="#C33F40"/>
<path fill-rule="evenodd" clip-rule="evenodd" d="M117.61 52.1027C117.684 52.2246 117.787 52.2287 117.83 52.1354C117.898 52.0273 117.848 51.8906 117.754 51.8472C117.489 51.7414 117.446 51.8347 117.61 52.1027Z" fill="#C33F40"/>
<path fill-rule="evenodd" clip-rule="evenodd" d="M122.559 62.1887C122.603 62.2618 122.721 62.2903 122.794 62.2458C122.892 62.1864 122.896 62.0835 122.851 62.0105C122.792 61.913 122.713 61.894 122.616 61.9534C122.543 61.998 122.499 62.0913 122.559 62.1887Z" fill="#C33F40"/>
<path fill-rule="evenodd" clip-rule="evenodd" d="M113.589 69.6667C113.6 69.7939 113.635 69.9062 113.714 69.9252C113.87 69.9633 114.044 69.5901 113.94 69.4195C113.836 69.249 113.592 69.3975 113.589 69.6667Z" fill="#C33F40"/>
<path fill-rule="evenodd" clip-rule="evenodd" d="M112.353 77.0071C112.397 77.0802 112.515 77.1087 112.612 77.0493C112.686 77.0047 112.665 76.9168 112.572 76.8734C112.464 76.8056 112.361 76.8015 112.312 76.8312C112.288 76.846 112.308 76.934 112.353 77.0071Z" fill="#C33F40"/>
<path fill-rule="evenodd" clip-rule="evenodd" d="M134.275 67.6457C134.319 67.7188 134.437 67.7474 134.51 67.7028C134.607 67.6434 134.612 67.5406 134.567 67.4675C134.507 67.37 134.429 67.351 134.332 67.4104C134.259 67.455 134.23 67.5727 134.275 67.6457Z" fill="#C33F40"/>
<path fill-rule="evenodd" clip-rule="evenodd" d="M115.473 83.7633C115.487 83.7877 115.597 84.0218 115.721 84.2803L115.94 84.7486L116.024 84.2293C116.112 83.6071 115.993 83.4122 115.701 83.5904C115.555 83.6795 115.473 83.7633 115.473 83.7633Z" fill="#C33F40"/>
<path fill-rule="evenodd" clip-rule="evenodd" d="M133.599 73.2742C133.692 73.3176 133.81 73.3461 133.858 73.3164C133.883 73.3016 133.862 73.2136 133.818 73.1405C133.758 73.043 133.656 73.0389 133.558 73.0983C133.51 73.128 133.53 73.216 133.599 73.2742Z" fill="#C33F40"/>
<path fill-rule="evenodd" clip-rule="evenodd" d="M132.615 75.8798C132.709 75.9232 132.826 75.9517 132.875 75.922C132.899 75.9072 132.879 75.8192 132.835 75.7461C132.775 75.6486 132.672 75.6445 132.575 75.7039C132.502 75.7485 132.522 75.8364 132.615 75.8798Z" fill="#C33F40"/>
</svg>
