<svg width="433" height="800" viewBox="0 0 433 800" fill="none" xmlns="http://www.w3.org/2000/svg">
<g clip-path="url(#clip0_377_623)">
<path d="M139.717 16.2803C140.034 16.1229 140.303 15.8817 140.494 15.5828C140.685 15.2839 140.791 14.9385 140.8 14.584C140.874 12.7737 140.727 10.9612 140.364 9.18628C140.2 8.38366 139.967 7.5966 139.669 6.83373C139.399 6.12389 139.074 5.43605 138.697 4.77639C138.046 3.59459 137.158 2.55959 136.089 1.73578C135.115 1.00652 133.961 0.555251 132.751 0.430073C131.795 0.349226 130.833 0.470703 129.927 0.78659C128.747 1.18144 127.678 1.85254 126.81 2.74402C126.388 3.17521 126.015 3.65111 125.697 4.16327C125.369 4.67672 125.095 5.22226 124.878 5.79143C124.437 6.94539 124.235 8.17684 124.285 9.41108C124.315 10.042 124.405 10.6686 124.555 11.2822C124.702 11.9191 124.917 12.5381 125.198 13.1284C125.52 13.8096 125.879 14.5136 126.29 15.2311C127.14 16.7227 128.086 18.1578 129.121 19.5275C129.364 19.8541 129.709 20.0896 130.102 20.1962C130.495 20.3029 130.912 20.2745 131.287 20.1156C134.101 18.8637 136.911 17.5852 139.717 16.2803Z" fill="#C33F40"/>
<path d="M135.226 47.338C135.453 47.5492 135.734 47.774 136.043 48.0056C137.306 48.9709 138.887 49.4225 140.469 49.2696C142.051 49.1167 143.516 48.3706 144.571 47.1813C145.457 46.2001 146.23 45.1222 146.875 43.9681C147.251 43.2985 147.584 42.606 147.874 41.8949C148.195 41.1188 148.454 40.3185 148.648 39.5015C149.128 37.4954 149.281 35.4252 149.102 33.3703C148.914 31.5649 148.504 29.7895 147.883 28.0839C147.608 27.3257 147.286 26.5855 146.918 25.8676C146.573 25.1863 146.217 24.5505 145.867 23.9806C145.298 23.0479 144.668 22.1542 143.98 21.3055C143.745 21.0055 143.418 20.7901 143.05 20.6918C142.681 20.5935 142.291 20.6176 141.937 20.7606C140.257 21.4781 138.565 22.1874 136.86 22.8883C135.156 23.5892 133.456 24.2795 131.761 24.9593C131.472 25.0779 131.216 25.2669 131.018 25.5092C130.82 25.7514 130.685 26.0393 130.626 26.3467C130.399 27.439 130.256 28.5176 130.133 29.5781C130.01 30.6153 129.942 31.6583 129.929 32.7027C129.92 33.6981 129.963 34.6934 130.058 35.6843C130.135 36.6297 130.271 37.5694 130.465 38.4978C130.652 39.3821 130.9 40.2524 131.207 41.1024C131.488 41.9161 131.829 42.7077 132.227 43.4708C132.984 44.9311 134 46.2415 135.226 47.338Z" fill="#C33F40"/>
<path d="M110.431 61.0833C110.748 60.4566 111.064 59.7663 111.366 59.0169C111.679 58.2234 111.947 57.4129 112.17 56.5894C112.374 55.8446 112.54 55.1202 112.674 54.4208C112.903 53.2294 112.837 52.0001 112.483 50.8398C112.152 49.7252 111.581 48.6967 110.81 47.8264C109.998 46.9373 108.998 46.2402 107.883 45.7857C106.768 45.3313 105.566 45.1309 104.364 45.1991C103.412 45.2362 102.474 45.4462 101.597 45.819C100.548 46.2681 99.6264 46.9703 98.9152 47.8627C98.1828 48.7844 97.6522 49.8497 97.3578 50.9896C97.1978 51.6011 97.0937 52.2259 97.0467 52.8562C96.9931 53.5309 96.9863 54.2084 97.0263 54.884C97.0731 55.6077 97.1756 56.3266 97.3328 57.0345C97.4123 57.4001 97.5076 57.7725 97.6166 58.1472C97.7256 58.5219 97.8436 58.8988 97.9685 59.2826C98.082 59.5852 98.2742 59.8521 98.5252 60.0557C98.7762 60.2593 99.077 60.3922 99.3966 60.4407C102.412 60.9539 105.428 61.4837 108.446 62.0302C108.835 62.1072 109.238 62.0567 109.596 61.886C109.953 61.7154 110.246 61.4339 110.431 61.0833Z" fill="#C33F40"/>
<path d="M107.588 86.9429C108.788 85.9576 109.768 84.7324 110.467 83.3459C110.832 82.6266 111.136 81.8776 111.375 81.1069C111.497 80.7141 111.602 80.3099 111.702 79.8989C111.802 79.4878 111.863 79.0677 111.929 78.6386C112.406 75.2187 111.886 71.3152 110.278 67.5116C110.158 67.2344 109.97 66.9917 109.732 66.8053C109.495 66.619 109.214 66.4949 108.916 66.4444C105.332 65.7813 101.747 65.1387 98.1612 64.5165C97.8036 64.4502 97.4345 64.4871 97.0972 64.6231C96.7598 64.759 96.4682 64.9883 96.2564 65.284C95.7347 66.0559 95.2674 66.8633 94.8578 67.7001C94.2921 68.8271 93.836 70.0057 93.4956 71.2199C93.313 71.9033 93.172 72.5971 93.0733 73.2976C92.9622 74.044 92.9113 74.798 92.9212 75.5525C92.9333 76.3578 93.0176 77.1604 93.1732 77.9505C93.3288 78.8125 93.5652 79.658 93.8793 80.4756C94.8392 82.8902 96.3352 85.0551 98.2543 86.8066C100.572 88.9525 104.157 89.3386 106.78 87.5605C107.082 87.3403 107.354 87.1359 107.588 86.9429Z" fill="#C33F40"/>
<path d="M132.545 136.367C134.134 133.084 134.717 129.743 134.379 126.955C134.041 124.166 132.772 121.914 130.672 120.74C129.831 120.276 128.903 119.992 127.947 119.904C126.728 119.788 125.498 119.947 124.348 120.37C123.199 120.792 122.158 121.467 121.304 122.345C120.425 123.229 119.74 124.286 119.293 125.45C118.847 126.614 118.647 127.858 118.709 129.103C118.748 129.848 118.804 130.622 118.902 131.428C119.106 133.106 119.442 134.765 119.908 136.39C120.016 136.779 120.251 137.122 120.575 137.363C120.899 137.604 121.295 137.73 121.699 137.721C124.769 137.643 127.849 137.562 130.919 137.455C131.263 137.44 131.597 137.33 131.884 137.138C132.17 136.946 132.399 136.68 132.545 136.367Z" fill="#C33F40"/>
<path d="M116.508 163.658C116.678 163.919 116.876 164.205 117.11 164.502C118.074 165.738 119.445 166.592 120.98 166.911C122.514 167.23 124.113 166.995 125.49 166.246C127.925 164.951 130.008 163.08 131.556 160.796C132.607 159.226 133.383 157.487 133.849 155.655C134.252 154.03 134.439 152.359 134.405 150.685C134.347 148.206 133.894 145.753 133.064 143.418C132.939 143.063 132.708 142.756 132.401 142.538C132.094 142.321 131.728 142.204 131.352 142.203C127.698 142.243 124.043 142.263 120.388 142.264C120.08 142.266 119.777 142.344 119.506 142.493C119.236 142.641 119.007 142.854 118.84 143.114C114.122 150.392 113.102 158.367 116.508 163.658Z" fill="#C33F40"/>
<path d="M88.9623 170.234C90.0292 168.943 90.9861 167.565 91.8229 166.115C92.2248 165.42 92.5813 164.736 92.9014 164.071C95.1559 159.363 92.7175 153.693 87.7272 152.358C86.8048 152.103 85.8416 152.031 84.8915 152.145C80.1532 152.755 76.9451 158.276 77.3334 165.352C77.35 165.69 77.4592 166.017 77.649 166.297C77.8387 166.577 78.1018 166.8 78.4095 166.941L86.7895 170.747C87.1577 170.912 87.5701 170.952 87.9629 170.859C88.3557 170.766 88.707 170.546 88.9623 170.234Z" fill="#C33F40"/>
<path d="M81.1205 196.571C86.3424 193.001 88.6741 185.278 87.2687 176.769C87.219 176.466 87.094 176.18 86.9052 175.938C86.7164 175.695 86.4698 175.504 86.188 175.382L76.1438 171.031C75.8004 170.885 75.4206 170.848 75.0554 170.924C74.6901 171.001 74.357 171.187 74.1005 171.458C72.4102 173.233 71.0159 175.268 69.9707 177.485C69.2634 179.001 68.7603 180.605 68.4745 182.253C68.1564 184.133 68.161 186.052 68.4881 187.93C68.9746 190.676 70.1277 193.26 71.846 195.456C72.8076 196.703 74.1876 197.56 75.7315 197.869C77.2753 198.178 78.8789 197.919 80.2464 197.138C80.5666 196.934 80.864 196.757 81.1205 196.571Z" fill="#C33F40"/>
<path d="M104.054 246.503C104.379 246.474 104.69 246.356 104.954 246.163C105.217 245.971 105.423 245.71 105.55 245.409C106.154 243.968 106.553 242.45 106.735 240.899C106.917 239.534 106.875 238.149 106.61 236.798C106.373 235.595 105.9 234.451 105.218 233.432C104.555 232.469 103.66 231.689 102.616 231.162C101.76 230.737 100.831 230.478 99.8784 230.399C98.6741 230.287 97.4602 230.449 96.3275 230.873C95.1947 231.297 94.1725 231.972 93.3374 232.846C92.5231 233.708 91.9036 234.735 91.5211 235.858C91.117 237.023 90.9911 238.268 91.1533 239.491C91.2486 240.211 91.3803 240.958 91.537 241.728C91.7153 242.577 91.9381 243.417 92.2045 244.244C92.461 245.025 92.7358 245.745 93.0127 246.405C93.1715 246.773 93.4449 247.079 93.7919 247.277C94.1389 247.476 94.541 247.558 94.938 247.509C97.9803 247.152 101.019 246.816 104.054 246.503Z" fill="#C33F40"/>
<path d="M94.0658 272.583C94.2929 272.794 94.5449 273.019 94.8378 273.249C96.0671 274.189 97.5733 274.696 99.121 274.69C100.669 274.684 102.171 274.165 103.393 273.215C103.819 272.881 104.246 272.511 104.687 272.102C105.142 271.678 105.573 271.229 105.979 270.758C106.877 269.72 107.625 268.562 108.201 267.317C108.941 265.796 109.386 264.147 109.511 262.46C109.637 260.974 109.548 259.478 109.246 258.018C108.984 256.751 108.611 255.509 108.131 254.308C107.772 253.416 107.354 252.549 106.88 251.712C106.695 251.395 106.422 251.137 106.094 250.971C105.766 250.804 105.397 250.736 105.032 250.775C101.413 251.131 97.8074 251.517 94.1884 251.933C93.8881 251.965 93.6007 252.072 93.3521 252.244C93.1035 252.416 92.9017 252.647 92.7649 252.916C91.8686 254.705 91.2004 256.599 90.7761 258.554C90.377 260.333 90.2333 262.16 90.3492 263.979C90.4395 265.634 90.8175 267.26 91.4662 268.784C92.0611 270.217 92.9462 271.51 94.0658 272.583Z" fill="#C33F40"/>
<path d="M68.8439 285.379C69.5319 283.795 70.1137 282.167 70.5853 280.506C70.8123 279.709 70.994 278.935 71.1461 278.19C71.2782 277.545 71.3406 276.888 71.3323 276.23C71.337 275.596 71.2746 274.962 71.1461 274.341C70.8969 273.128 70.4041 271.979 69.6976 270.962C69.0095 269.964 68.1211 269.121 67.0889 268.487C66.0272 267.843 64.8251 267.466 63.5857 267.39C62.4945 267.304 61.3991 267.49 60.3975 267.932C59.3958 268.373 58.5193 269.056 57.8462 269.92C57.0137 270.995 56.4012 272.225 56.0435 273.537C55.8332 274.269 55.6814 275.017 55.5895 275.774C55.5028 276.587 55.4717 277.406 55.4964 278.224C55.5177 279.096 55.5935 279.966 55.7234 280.829C55.7938 281.283 55.8755 281.721 55.9754 282.171C56.0753 282.62 56.2025 283.079 56.3432 283.533C56.4347 283.872 56.6183 284.178 56.8736 284.419C57.1289 284.66 57.446 284.824 57.7895 284.896C60.8166 285.441 63.8438 285.97 66.871 286.485C67.2762 286.549 67.6909 286.474 68.0487 286.274C68.4065 286.073 68.6866 285.758 68.8439 285.379Z" fill="#C33F40"/>
<path d="M68.5146 314.555C68.7666 314.259 68.9891 313.98 69.1775 313.721C71.0869 311.107 71.902 307.772 71.8702 304.093C71.8539 303.15 71.7781 302.209 71.6432 301.275C71.5168 300.294 71.3357 299.32 71.1005 298.359C70.8509 297.351 70.5477 296.356 70.1924 295.38C69.8269 294.381 69.4409 293.375 68.9709 292.369C68.8433 292.085 68.6461 291.839 68.3976 291.652C68.1491 291.465 67.8575 291.343 67.5497 291.299C63.9307 290.806 60.3117 290.295 56.6927 289.767C56.313 289.719 55.9279 289.794 55.5943 289.982C55.2607 290.169 54.9963 290.459 54.8401 290.809C53.6875 293.167 52.9312 295.699 52.6015 298.302C52.0634 302.102 52.692 305.975 54.4042 309.409C55.7258 311.967 57.667 314.153 60.0506 315.767C61.3596 316.654 62.9519 317.021 64.5169 316.797C66.0818 316.573 67.5071 315.773 68.5146 314.555Z" fill="#C33F40"/>
<path d="M108.562 351.852C108.85 351.705 109.091 351.482 109.26 351.208C109.429 350.933 109.519 350.617 109.521 350.294C109.509 349.506 109.458 348.718 109.366 347.935C109.277 347.201 109.132 346.476 108.932 345.764C108.747 345.096 108.508 344.443 108.217 343.814C107.94 343.223 107.622 342.653 107.264 342.108C105.877 340.003 103.858 338.647 101.479 338.448C100.526 338.376 99.5683 338.482 98.6545 338.761C97.4985 339.1 96.4342 339.696 95.5416 340.505C94.649 341.314 93.9514 342.314 93.501 343.432C93.0507 344.549 92.8594 345.754 92.9416 346.956C93.0237 348.158 93.3771 349.326 93.9752 350.372C94.3294 350.998 94.7245 351.639 95.1604 352.284C95.4124 352.661 95.6803 353.017 95.9505 353.355C96.2206 353.694 96.4885 354.021 96.7564 354.33C97.29 354.945 97.819 355.499 98.3276 355.996C98.6165 356.271 98.9864 356.446 99.3824 356.494C99.7783 356.541 100.179 356.46 100.525 356.262C103.2 354.768 105.879 353.298 108.562 351.852Z" fill="#C33F40"/>
<path d="M118.379 376.077C118.936 375.048 119.393 373.968 119.741 372.85C120.158 371.568 120.393 370.233 120.441 368.886C120.465 368.037 120.41 367.188 120.277 366.349C120.17 365.567 119.989 364.797 119.737 364.049C119.5 363.344 119.204 362.661 118.854 362.005C118.515 361.365 118.123 360.772 117.748 360.202C116.481 358.384 114.924 356.786 113.139 355.472C112.847 355.257 112.499 355.13 112.137 355.107C111.775 355.083 111.414 355.163 111.096 355.338L108.689 356.635L106.308 357.94C104.718 358.815 103.129 359.699 101.54 360.59C101.277 360.735 101.056 360.943 100.895 361.196C100.734 361.449 100.639 361.738 100.618 362.037C100.478 364.018 100.604 366.009 100.993 367.957C101.176 368.863 101.416 369.756 101.712 370.632C101.864 371.059 102.02 371.476 102.182 371.883C102.345 372.285 102.531 372.678 102.739 373.059C104.378 376.084 106.682 378.344 109.609 379.32C109.897 379.42 110.22 379.518 110.58 379.604C113.664 380.349 116.91 378.782 118.379 376.077Z" fill="#C33F40"/>
<path d="M90.6756 403.279C91.0702 403.165 91.4146 402.921 91.6525 402.586C91.8905 402.251 92.0079 401.846 91.9856 401.435C91.9652 400.675 91.9198 399.846 91.8312 398.99L91.6905 397.648C91.636 397.194 91.5724 396.717 91.4975 396.233C91.3658 395.406 91.2144 394.619 91.0434 393.871C90.893 393.225 90.6738 392.596 90.3895 391.996C90.2465 391.703 90.0989 391.417 89.9355 391.137C89.778 390.862 89.6068 390.594 89.4223 390.336C88.6979 389.322 87.7757 388.465 86.7115 387.817C85.6684 387.176 84.5017 386.763 83.2878 386.605C82.0617 386.441 80.8143 386.582 79.6552 387.014C78.7485 387.342 77.9225 387.861 77.2327 388.535C75.5095 390.247 74.9169 392.861 75.3415 395.829C75.5881 397.43 76.0902 398.981 76.8286 400.423C77.221 401.226 77.6638 402.003 78.1545 402.75C78.4042 403.134 78.6721 403.515 78.9514 403.886C79.2306 404.256 79.5508 404.628 79.8731 404.994C80.099 405.267 80.3961 405.472 80.7315 405.587C81.067 405.702 81.4276 405.721 81.7735 405.643C84.7461 404.877 87.7135 404.089 90.6756 403.279Z" fill="#C33F40"/>
<path d="M104.621 428.163C104.714 427.781 104.78 427.427 104.83 427.109C105.074 425.474 105.019 423.808 104.666 422.193C104.484 421.347 104.251 420.512 103.967 419.695C103.665 418.837 103.303 418.003 102.882 417.197C101.971 415.469 100.887 413.839 99.6465 412.331C98.9949 411.54 98.2683 410.775 97.5146 410.012C96.7608 409.249 95.9662 408.504 95.108 407.784C94.87 407.581 94.5848 407.441 94.2786 407.377C93.9723 407.313 93.6548 407.326 93.3552 407.417C89.874 408.519 86.3776 409.596 82.8661 410.65C82.5001 410.77 82.1833 411.006 81.9639 411.322C81.7446 411.639 81.6349 412.018 81.6514 412.403C81.6551 413.525 81.7309 414.645 81.8785 415.757C81.967 416.438 82.0919 417.17 82.2576 417.939C82.4409 418.742 82.6683 419.533 82.9387 420.31C83.2307 421.155 83.5695 421.983 83.9536 422.79C84.1534 423.208 84.3668 423.625 84.5984 424.041C84.8293 424.466 85.0832 424.877 85.359 425.274C86.5268 426.989 87.9581 428.509 89.6 429.777C91.9462 431.529 94.6938 432.665 97.5918 433.081C100.963 433.519 103.853 431.394 104.621 428.163Z" fill="#C33F40"/>
<path d="M152.581 449.908C154.193 447.301 155.827 444.712 157.482 442.142C157.662 441.873 157.766 441.56 157.781 441.236C157.797 440.913 157.724 440.592 157.571 440.307C156.828 438.977 155.918 437.748 154.865 436.648C154.381 436.158 153.859 435.707 153.303 435.3C152.788 434.914 152.242 434.571 151.672 434.273C149.452 433.138 147.027 432.952 144.861 433.91C143.993 434.306 143.205 434.859 142.536 435.54C141.661 436.411 140.995 437.471 140.591 438.638C140.218 439.748 140.1 440.927 140.243 442.089C140.374 443.285 140.781 444.435 141.432 445.447C142.083 446.459 142.96 447.306 143.994 447.921C144.609 448.293 145.254 448.668 145.96 449.011C147.427 449.719 148.953 450.297 150.521 450.737C150.908 450.84 151.318 450.815 151.689 450.666C152.061 450.516 152.373 450.25 152.581 449.908Z" fill="#C33F40"/>
<path d="M172.814 465.996C174.334 465.653 175.687 464.794 176.644 463.564C177.603 462.344 178.126 460.838 178.131 459.286C178.15 456.67 177.558 454.085 176.401 451.738C176 450.943 175.524 450.187 174.98 449.481C174.489 448.828 173.94 448.22 173.341 447.664C172.775 447.138 172.167 446.658 171.525 446.229C170.925 445.823 170.302 445.453 169.658 445.121C168.505 444.537 167.296 444.069 166.051 443.722C165.138 443.455 164.209 443.25 163.269 443.107C162.906 443.059 162.536 443.116 162.204 443.271C161.872 443.427 161.591 443.674 161.394 443.983C159.426 447.04 157.488 450.119 155.577 453.221C155.416 453.476 155.321 453.768 155.302 454.07C155.283 454.372 155.34 454.673 155.468 454.947C155.914 455.864 156.41 456.756 156.956 457.617C157.473 458.447 158.049 459.24 158.677 459.99C159.278 460.706 159.922 461.385 160.606 462.023C161.257 462.632 161.954 463.19 162.691 463.692C164.059 464.64 165.573 465.361 167.172 465.824C168.679 466.246 170.253 466.367 171.806 466.18C172.115 466.133 172.451 466.074 172.814 465.996Z" fill="#C33F40"/>
<path d="M165.322 496.01C165.628 495.744 165.837 495.384 165.916 494.987C165.996 494.59 165.942 494.177 165.762 493.814C165.021 492.286 164.163 490.817 163.194 489.422C162.727 488.741 162.252 488.132 161.78 487.549C160.98 486.546 159.973 485.728 158.828 485.151C158.279 484.875 157.703 484.655 157.11 484.494C156.526 484.331 155.927 484.229 155.323 484.19C154.101 484.092 152.873 484.273 151.732 484.722C150.591 485.17 149.567 485.873 148.739 486.777C148.09 487.484 147.596 488.318 147.286 489.227C146.91 490.38 146.849 491.612 147.109 492.796C147.393 494.098 147.942 495.328 148.721 496.409C149.609 497.657 150.681 498.763 151.899 499.691C153.28 500.734 154.788 501.598 156.386 502.263C156.701 502.399 157.048 502.445 157.388 502.396C157.727 502.346 158.047 502.204 158.311 501.984L165.322 496.01Z" fill="#C33F40"/>
<path d="M181.409 519.828C182.932 519.465 184.278 518.577 185.21 517.319C186.143 516.061 186.602 514.515 186.506 512.952C186.483 512.573 186.443 512.228 186.395 511.921C185.435 505.708 179.391 500.422 171.034 498.135C170.737 498.054 170.424 498.048 170.124 498.118C169.825 498.188 169.547 498.332 169.317 498.537L161.144 505.838C160.867 506.09 160.674 506.421 160.593 506.787C160.511 507.153 160.545 507.535 160.69 507.881C161.857 510.779 165.521 517.832 173.302 519.807C174.737 520.173 176.216 520.343 177.697 520.312C178.948 520.284 180.193 520.122 181.409 519.828Z" fill="#C33F40"/>
<path d="M237.955 524.66C239.349 521.922 240.729 519.171 242.094 516.408C242.244 516.094 242.304 515.745 242.27 515.399C242.236 515.053 242.107 514.722 241.899 514.444C239.719 511.458 237.058 509.341 234.443 508.34C231.827 507.339 229.264 507.393 227.244 508.681C226.44 509.202 225.75 509.881 225.216 510.677C224.532 511.69 224.085 512.845 223.909 514.055C223.732 515.265 223.831 516.499 224.197 517.666C224.558 518.859 225.164 519.963 225.976 520.909C226.788 521.854 227.788 522.62 228.912 523.157C229.593 523.482 230.302 523.795 231.06 524.09C232.639 524.714 234.263 525.216 235.919 525.591C236.313 525.686 236.728 525.646 237.097 525.477C237.467 525.308 237.769 525.021 237.955 524.66Z" fill="#C33F40"/>
<path d="M265.289 536.378C265.382 533.465 264.74 530.575 263.423 527.976C263.179 527.491 262.923 527.026 262.653 526.579C262.381 526.136 262.09 525.721 261.79 525.319C261.209 524.54 260.567 523.807 259.872 523.128C258.608 521.892 257.18 520.836 255.629 519.989C254.331 519.261 252.962 518.67 251.542 518.225C250.525 517.9 249.489 517.643 248.438 517.455C248.067 517.382 247.682 517.429 247.339 517.59C246.997 517.752 246.715 518.019 246.536 518.352C244.827 521.596 243.098 524.824 241.348 528.035C241.199 528.308 241.121 528.613 241.121 528.924C241.121 529.234 241.199 529.54 241.348 529.813C242.338 531.68 243.516 533.442 244.865 535.07C246.078 536.57 247.466 537.92 249.001 539.089C250.389 540.176 251.929 541.053 253.572 541.691C253.964 541.841 254.359 541.971 254.759 542.084C255.159 542.198 255.547 542.311 255.944 542.384C256.732 542.545 257.533 542.63 258.337 542.638C258.655 542.638 259.018 542.638 259.395 542.6C260.98 542.494 262.466 541.794 263.558 540.641C264.651 539.488 265.269 537.966 265.289 536.378Z" fill="#C33F40"/>
<path d="M247.825 571.284C248.169 571.086 248.439 570.781 248.596 570.417C248.752 570.052 248.786 569.646 248.693 569.261C248.279 567.705 247.729 566.189 247.049 564.73C246.717 564.031 246.352 563.386 245.991 562.773C245.366 561.731 244.512 560.845 243.493 560.182C242.5 559.562 241.384 559.165 240.222 559.017C239.061 558.869 237.882 558.978 236.769 559.337C235.595 559.724 234.524 560.368 233.633 561.224C232.938 561.875 232.37 562.649 231.958 563.507C230.934 565.652 231.079 568.037 232.196 570.242C233.261 572.478 235.325 574.522 238.099 576.119C238.385 576.271 238.707 576.344 239.031 576.33C239.355 576.317 239.669 576.218 239.943 576.044C242.569 574.445 245.203 572.849 247.825 571.284Z" fill="#C33F40"/>
<path d="M263.005 591.508C263.109 591.156 263.186 590.827 263.245 590.532C263.39 589.784 263.457 589.023 263.447 588.261C263.447 587.877 263.415 587.493 263.372 587.107C263.329 586.721 263.252 586.349 263.163 585.972C262.778 584.38 262.133 582.862 261.256 581.478C260.258 579.979 259.066 578.617 257.712 577.429C256.201 576.156 254.544 575.068 252.776 574.186C252.503 574.059 252.203 574 251.902 574.016C251.601 574.033 251.309 574.123 251.051 574.279C247.909 576.137 244.782 578.012 241.67 579.904C241.358 580.087 241.104 580.355 240.939 580.677C240.775 580.999 240.705 581.361 240.739 581.721C240.782 582.068 240.843 582.477 240.93 582.934C241.016 583.39 241.109 583.903 241.243 584.444C241.534 585.649 241.952 586.819 242.489 587.936C243.753 590.757 245.922 593.075 248.653 594.521C249.274 594.846 249.916 595.126 250.576 595.359C251.19 595.587 251.817 595.777 252.454 595.929C253.611 596.196 254.791 596.348 255.978 596.383C259.106 596.504 262.112 594.528 263.005 591.508Z" fill="#C33F40"/>
<path d="M312.685 616.755C312.96 616.53 313.168 616.235 313.288 615.902C313.408 615.568 313.435 615.209 313.367 614.861C313.287 614.386 313.196 613.918 313.092 613.462C313.04 613.235 312.987 613.008 312.926 612.781C312.865 612.554 312.797 612.338 312.726 612.122C312.458 611.28 312.138 610.456 311.766 609.654C311.42 608.905 311.025 608.18 310.581 607.485C310.174 606.838 309.708 606.23 309.189 605.669C307.178 603.509 304.789 602.392 302.41 602.692C301.46 602.819 300.549 603.146 299.735 603.652C298.688 604.306 297.8 605.187 297.137 606.229C296.474 607.271 296.053 608.448 295.905 609.674C295.737 610.927 295.82 612.201 296.149 613.422C296.479 614.642 297.049 615.784 297.826 616.782C298.291 617.377 298.82 617.979 299.361 618.599C300.491 619.892 301.722 621.095 303.041 622.196C303.349 622.463 303.738 622.62 304.146 622.639C304.554 622.658 304.956 622.54 305.289 622.302C307.768 620.487 310.233 618.638 312.685 616.755Z" fill="#C33F40"/>
<path d="M324.091 645.748C324.743 644.602 325.268 643.388 325.658 642.129C326.114 640.602 326.36 639.021 326.389 637.428C326.415 636.375 326.353 635.321 326.205 634.278C326.13 633.774 326.046 633.282 325.932 632.8C325.819 632.319 325.676 631.851 325.526 631.395C324.959 629.681 324.182 628.044 323.212 626.521C322.985 626.169 322.758 625.827 322.531 625.502C322.304 625.177 322.048 624.866 321.805 624.569C321.319 623.976 320.835 623.433 320.37 622.956C319.611 622.17 318.8 621.435 317.943 620.756C317.651 620.511 317.287 620.369 316.907 620.351C316.526 620.334 316.151 620.443 315.838 620.66C312.84 622.795 309.826 624.891 306.798 626.948C306.542 627.126 306.334 627.364 306.193 627.641C306.052 627.918 305.982 628.227 305.989 628.538C306.001 629.094 306.028 629.644 306.067 630.186C306.085 630.459 306.11 630.727 306.135 630.995L306.205 631.799C306.3 632.836 306.452 633.868 306.659 634.889C306.862 635.862 307.12 636.823 307.433 637.766C307.508 637.994 307.59 638.221 307.66 638.448C307.731 638.675 307.815 638.902 307.887 639.129C308.051 639.571 308.227 640.002 308.416 640.423C309.128 642.037 310.076 643.537 311.229 644.872C312.292 646.123 313.573 647.171 315.01 647.965C315.289 648.117 315.607 648.276 315.961 648.43C317.402 649.072 319.029 649.164 320.533 648.687C322.047 648.19 323.318 647.141 324.091 645.748Z" fill="#C33F40"/>
<path d="M329.168 738.297C329.513 738.222 329.831 738.053 330.087 737.808C330.342 737.564 330.524 737.254 330.614 736.912C331.139 735.182 331.432 733.391 331.486 731.584C331.546 730.006 331.36 728.428 330.935 726.907C330.576 725.604 329.959 724.388 329.118 723.33C328.351 722.386 327.341 721.669 326.196 721.257C325.289 720.947 324.327 720.832 323.372 720.919C320.79 721.13 318.661 722.569 317.267 724.57C316.568 725.587 316.08 726.734 315.83 727.942C315.556 729.203 315.556 730.508 315.83 731.768C315.982 732.506 316.157 733.274 316.377 734.069C316.633 734.991 316.917 735.858 317.215 736.667C317.512 737.475 317.803 738.222 318.105 738.91C318.263 739.284 318.543 739.595 318.899 739.791C319.255 739.987 319.667 740.059 320.068 739.993C323.1 739.454 326.133 738.889 329.168 738.297Z" fill="#C33F40"/>
<path d="M317.582 767.229C317.766 767.488 317.984 767.767 318.236 768.06C319.256 769.263 320.682 770.05 322.243 770.272C323.82 770.483 325.418 770.095 326.723 769.184C327.803 768.442 328.801 767.585 329.697 766.627C331.492 764.687 332.829 762.367 333.609 759.84C333.906 758.904 334.125 757.945 334.262 756.972C334.39 756.055 334.456 755.13 334.46 754.204C334.46 753.75 334.46 753.316 334.426 752.882C334.392 752.449 334.356 752.024 334.303 751.611C334.122 750.112 333.795 748.634 333.329 747.198C332.99 746.164 332.582 745.154 332.108 744.174C331.952 743.827 331.686 743.54 331.352 743.358C331.018 743.175 330.634 743.107 330.257 743.163C326.625 743.752 323 744.302 319.382 744.814C319.074 744.861 318.783 744.984 318.534 745.172C318.285 745.36 318.088 745.607 317.959 745.891C317.482 746.897 317.051 747.9 316.701 748.902C316.522 749.401 316.358 749.9 316.208 750.398C316.059 750.896 315.917 751.39 315.784 751.881C315.537 752.841 315.346 753.814 315.212 754.797C315.07 755.73 314.988 756.671 314.966 757.615C314.882 761.277 315.72 764.629 317.582 767.229Z" fill="#C33F40"/>
<path d="M283.74 673.89C283.39 673.855 283.056 673.724 282.776 673.512C282.496 673.3 282.279 673.014 282.151 672.687C281.425 671.03 280.923 669.283 280.657 667.494C280.411 665.933 280.411 664.343 280.657 662.782C280.855 661.451 281.318 660.173 282.019 659.024C282.67 657.995 283.589 657.164 284.677 656.619C285.541 656.201 286.482 655.969 287.44 655.938C290.031 655.842 292.313 657.021 293.936 658.842C294.746 659.77 295.364 660.851 295.752 662.021C296.174 663.24 296.329 664.536 296.206 665.82C296.141 666.572 296.059 667.355 295.934 668.17C295.789 669.117 295.609 670.012 295.407 670.85C295.205 671.688 295.01 672.462 294.79 673.182C294.676 673.572 294.436 673.912 294.107 674.149C293.778 674.386 293.379 674.506 292.973 674.49C289.908 674.32 286.831 674.121 283.74 673.89Z" fill="#C33F40"/>
<path d="M298.665 701.251C298.511 701.53 298.329 701.835 298.114 702.159C297.242 703.473 295.919 704.422 294.395 704.828C292.855 705.224 291.222 705.028 289.82 704.278C288.655 703.67 287.56 702.936 286.555 702.089C284.543 700.375 282.942 698.231 281.869 695.815C281.462 694.92 281.131 693.993 280.879 693.042C280.645 692.147 280.47 691.236 280.357 690.317C280.3 689.874 280.26 689.434 280.235 689.002C280.21 688.571 280.203 688.142 280.205 687.724C280.21 686.21 280.362 684.701 280.659 683.216C280.875 682.15 281.161 681.098 281.515 680.069C281.63 679.706 281.859 679.39 282.169 679.17C282.48 678.949 282.853 678.836 283.234 678.847C286.904 678.999 290.569 679.117 294.227 679.202C294.539 679.212 294.844 679.3 295.113 679.459C295.382 679.618 295.606 679.842 295.766 680.11C296.349 681.029 296.885 681.977 297.371 682.951C297.598 683.425 297.825 683.902 298.039 684.377C298.252 684.851 298.452 685.326 298.634 685.798C298.991 686.723 299.295 687.668 299.542 688.628C299.792 689.538 299.984 690.462 300.119 691.396C300.636 695.029 300.205 698.449 298.665 701.251Z" fill="#C33F40"/>
<path d="M290.377 775.163C291.399 773.904 292.297 772.549 293.058 771.117C293.424 770.428 293.748 769.754 294.03 769.096C294.499 767.996 294.711 766.803 294.651 765.609C294.591 764.414 294.26 763.249 293.682 762.202C293.103 761.146 292.294 760.235 291.314 759.534C290.335 758.834 289.211 758.362 288.025 758.155C287.089 757.977 286.129 757.971 285.191 758.137C284.054 758.348 282.987 758.837 282.085 759.561C281.166 760.318 280.412 761.255 279.87 762.315C278.714 764.529 278.235 767.434 278.596 770.695C278.637 771.018 278.763 771.324 278.963 771.581C279.163 771.838 279.428 772.037 279.731 772.157C282.564 773.318 285.396 774.493 288.225 775.681C288.591 775.842 288.999 775.878 289.388 775.784C289.776 775.691 290.124 775.473 290.377 775.163Z" fill="#C33F40"/>
<path d="M282.221 800.126C283.585 799.372 284.787 798.355 285.758 797.136C286.782 795.823 287.585 794.353 288.135 792.782C288.736 791.055 289.095 789.253 289.205 787.428C289.264 786.452 289.264 785.473 289.205 784.496C289.137 783.476 289.011 782.461 288.828 781.456C288.771 781.16 288.641 780.882 288.451 780.649C288.26 780.415 288.014 780.233 287.736 780.118C284.377 778.709 281.009 777.314 277.633 775.933C277.296 775.791 276.926 775.75 276.567 775.815C276.208 775.88 275.875 776.048 275.61 776.299C274.929 776.963 274.293 777.672 273.705 778.42C273.353 778.874 272.992 779.369 272.645 779.909C272.272 780.474 271.93 781.058 271.621 781.66C271.291 782.306 271.004 782.973 270.762 783.656C270.497 784.381 270.289 785.126 270.143 785.884C269.815 787.573 269.788 789.306 270.063 791.004C270.285 792.391 270.688 793.742 271.262 795.024C271.52 795.602 271.81 796.165 272.131 796.711C272.436 797.238 272.754 797.724 273.071 798.173C274.908 800.753 278.345 801.807 281.29 800.567C281.644 800.421 281.951 800.271 282.221 800.126Z" fill="#C33F40"/>
</g>
<defs>
<clipPath id="clip0_377_623">
<rect width="800" height="433" fill="white" transform="translate(433 1.8927e-05) rotate(90)"/>
</clipPath>
</defs>
</svg>
