<svg width="48" height="48" viewBox="0 0 48 48" fill="none" xmlns="http://www.w3.org/2000/svg">
<path fill-rule="evenodd" clip-rule="evenodd" d="M19.3994 23.1893C19.4236 23.1802 19.4477 23.1707 19.4716 23.1608C19.6158 23.1011 19.7545 23.0272 19.8854 22.9396C19.9565 22.8922 20.0246 22.8411 20.0897 22.7868C20.2655 22.64 20.4191 22.469 20.5459 22.2791C20.6326 22.1494 20.7068 22.0109 20.7671 21.8653C20.888 21.5735 20.9493 21.2621 20.9493 20.9493C20.9493 20.7932 20.934 20.6368 20.9033 20.4823C20.8902 20.4162 20.8743 20.351 20.8557 20.2866C20.7439 19.8985 20.5353 19.5438 20.2482 19.2567C20.2138 19.2223 20.1786 19.1891 20.1424 19.1571C19.9236 18.9633 19.6716 18.8118 19.3994 18.7092C19.2774 18.6633 19.1515 18.6272 19.0225 18.6016C18.868 18.5708 18.7116 18.5556 18.5556 18.5556C18.2427 18.5556 17.9314 18.6169 17.6395 18.7378C17.494 18.798 17.3554 18.8723 17.2257 18.959C17.2159 18.9655 17.2062 18.9721 17.1966 18.9787C16.9488 19.1496 16.7342 19.3666 16.5653 19.6194C16.4777 19.7504 16.4037 19.8891 16.3441 20.0333C16.253 20.2531 16.1951 20.4857 16.1725 20.7234C16.1689 20.761 16.1663 20.7987 16.1645 20.8365C16.1627 20.874 16.1619 20.9116 16.1619 20.9493C16.1619 21.1072 16.1774 21.2636 16.2078 21.4163C16.2878 21.8186 16.4704 22.1954 16.7397 22.5089C16.7789 22.5546 16.82 22.599 16.8629 22.6419C17.2002 22.9791 17.6276 23.2053 18.0885 23.297C18.2412 23.3274 18.3976 23.343 18.5556 23.343C18.7318 23.343 18.9066 23.3235 19.0768 23.2856C19.1209 23.2757 19.1646 23.2647 19.208 23.2524C19.2727 23.2341 19.3365 23.2131 19.3994 23.1893ZM27.0272 20.2866C26.965 20.5023 26.9336 20.7254 26.9336 20.9493C26.9336 21.1053 26.9489 21.2617 26.9796 21.4163C27.0719 21.8806 27.2999 22.3072 27.6347 22.6419C27.8765 22.8837 28.1663 23.0698 28.4835 23.1893C28.5463 23.213 28.6101 23.234 28.6748 23.2524C28.7059 23.2612 28.7371 23.2694 28.7686 23.2769C28.799 23.2842 28.8296 23.2909 28.8603 23.297C29.0149 23.3277 29.1713 23.343 29.3274 23.343C29.6402 23.343 29.9515 23.2817 30.2434 23.1608C30.3355 23.1226 30.4248 23.0789 30.5108 23.03C30.5608 23.0016 30.6096 22.9714 30.6572 22.9396C30.9173 22.7658 31.1421 22.5418 31.3177 22.2791C31.4052 22.1482 31.4791 22.0095 31.5389 21.8653C31.6586 21.5763 31.7211 21.2652 31.7211 20.9493C31.7211 20.917 31.7204 20.8849 31.7191 20.8528C31.7141 20.7276 31.6993 20.6038 31.6751 20.4823C31.5834 20.0213 31.3572 19.5939 31.0199 19.2567C31.0112 19.248 31.0026 19.2394 30.9937 19.2308L30.9928 19.2299C30.8919 19.1322 30.7833 19.0442 30.6685 18.9666C30.4043 18.7878 30.107 18.6638 29.7943 18.6016C29.6416 18.5712 29.4853 18.5556 29.3274 18.5556C29.0376 18.5556 28.7519 18.6081 28.4835 18.7092C28.4593 18.7183 28.4352 18.7278 28.4113 18.7378C28.2671 18.7975 28.1285 18.8715 27.9974 18.959C27.9265 19.0064 27.8583 19.0574 27.7932 19.1118C27.7432 19.1536 27.6949 19.1973 27.6486 19.2429C27.5322 19.3574 27.4278 19.4836 27.337 19.6194C27.2503 19.7491 27.1761 19.8877 27.1158 20.0333C27.0815 20.1162 27.0519 20.2008 27.0272 20.2866ZM19.2469 26.2949C19.1447 26.192 19.0305 26.1021 18.9069 26.0268C18.7967 25.9597 18.6789 25.9044 18.5556 25.8621C18.5118 25.847 18.4673 25.8337 18.4221 25.8221C18.1471 25.7511 17.8619 25.747 17.5893 25.8067C17.4105 25.8459 17.2371 25.9125 17.0757 26.0057C17.0293 26.0325 16.9843 26.0612 16.9409 26.0918C16.6025 26.3297 16.3552 26.6784 16.2437 27.0801C16.2385 27.0987 16.2337 27.1173 16.2291 27.136C16.2256 27.1506 16.2222 27.1651 16.2191 27.1797C16.127 27.6037 16.1915 28.048 16.4027 28.4297L16.4034 28.4309C16.4141 28.4494 16.4249 28.4679 16.4357 28.4862C16.7214 28.9732 17.0394 29.4242 17.3859 29.8371C17.4867 29.9572 17.5898 30.074 17.6953 30.1876C17.9671 30.4801 18.2543 30.7509 18.5556 30.9991C18.6075 31.0419 18.6599 31.0841 18.7127 31.1256C18.8065 31.1992 18.9015 31.2708 18.9978 31.3401C19.5309 31.7242 20.1021 32.0419 20.7043 32.2892C20.9102 32.3738 21.1198 32.4501 21.3327 32.5181C21.6132 32.6075 21.8995 32.6824 22.1909 32.7422C22.7556 32.8581 23.3394 32.9177 23.9376 32.9179H23.9414C24.8785 32.9179 25.7807 32.7723 26.6293 32.4924C26.815 32.4311 26.9981 32.3633 27.1785 32.2893C27.2414 32.2635 27.304 32.2369 27.3662 32.2096C28.0077 31.9276 28.6125 31.5645 29.1713 31.1256C29.289 31.0332 29.4047 30.9373 29.5182 30.8382C29.7507 30.6353 29.9743 30.4184 30.1882 30.1882C30.3181 30.0485 30.4444 29.9037 30.567 29.7542C30.7625 29.5156 30.9485 29.2647 31.1244 29.0019C31.1645 28.9419 31.204 28.8814 31.2431 28.8202C31.3238 28.6937 31.4022 28.5646 31.4783 28.4329L31.4802 28.4297C31.4914 28.4109 31.5024 28.3921 31.513 28.373C31.6177 28.1837 31.6875 27.9769 31.7187 27.7625C31.7504 27.5446 31.7418 27.3229 31.6934 27.1084C31.6893 27.0905 31.6851 27.0728 31.6805 27.055C31.6208 26.8241 31.5158 26.6073 31.3715 26.4174C31.2706 26.2845 31.1518 26.1667 31.0188 26.067C30.9617 26.0242 30.902 25.9848 30.8399 25.949C30.6334 25.8297 30.4051 25.7528 30.1685 25.7227C29.9319 25.6926 29.6917 25.71 29.4619 25.7738C29.4164 25.7864 29.3715 25.8008 29.3274 25.8169C29.1481 25.8822 28.9802 25.9758 28.83 26.0944C28.7536 26.1546 28.6824 26.2209 28.6171 26.2924C28.5369 26.38 28.4656 26.4756 28.4041 26.5777C28.3928 26.5963 28.3819 26.6153 28.3714 26.6344L28.3709 26.6352C28.2981 26.7608 28.2134 26.8971 28.1159 27.0394C28.0756 27.0983 28.033 27.1583 27.9882 27.219C27.8854 27.3582 27.7709 27.5012 27.6439 27.6439C27.4555 27.8556 27.2397 28.0668 26.9946 28.2644C26.3391 28.7929 25.4732 29.2244 24.3571 29.3113C24.3169 29.3145 24.2764 29.3172 24.2355 29.3194C24.2075 29.3209 24.1793 29.3222 24.1509 29.3233C24.082 29.326 24.0122 29.3274 23.9414 29.3274C23.9389 29.3274 23.9363 29.3274 23.9338 29.3274C23.8537 29.3272 23.7748 29.3253 23.6971 29.3218C23.6394 29.3192 23.5823 29.3157 23.5258 29.3114C22.5282 29.2338 21.7304 28.8809 21.1041 28.4296C21.0675 28.4032 21.0315 28.3765 20.9961 28.3495C20.3068 27.824 19.8369 27.1846 19.5446 26.6909C19.5333 26.6718 19.5223 26.653 19.5115 26.6344L19.5103 26.6323C19.4357 26.5086 19.347 26.3956 19.2469 26.2949ZM36.5085 23.9454C36.5077 24.5246 36.467 25.0997 36.3878 25.667C36.3794 25.727 36.3706 25.787 36.3614 25.8469C36.2294 26.7023 36.0099 27.5388 35.7081 28.3437C35.6086 28.6091 35.5002 28.8711 35.383 29.1292C35.2159 29.4972 35.031 29.8572 34.8289 30.2081C34.8067 30.2467 34.7843 30.2851 34.7617 30.3235C34.7602 30.326 34.7587 30.3285 34.7573 30.331C34.7468 30.3486 34.7364 30.3662 34.7259 30.3837C34.6173 30.5653 34.5041 30.7443 34.3863 30.9205C34.1242 31.3125 33.8393 31.6909 33.5325 32.0534C33.3558 32.2624 33.1718 32.466 32.9807 32.664C32.9289 32.7177 32.8766 32.771 32.8238 32.8238C31.6459 34.0016 30.2585 34.9219 28.7491 35.5481C27.2394 36.1745 25.6076 36.5067 23.9414 36.5085C23.1143 36.5085 22.2932 36.4269 21.4897 36.267C19.8789 35.9466 18.3384 35.3119 16.9596 34.3906C16.2718 33.931 15.6345 33.407 15.0552 32.8277C15.0263 32.7988 14.9975 32.7698 14.9689 32.7406C14.2884 32.0467 13.6901 31.2755 13.1865 30.4424C13.1638 30.4049 13.1413 30.3672 13.119 30.3294C13.1069 30.3088 13.0945 30.2878 13.0825 30.2671C12.8671 29.8974 12.6701 29.5158 12.4927 29.1239C12.4369 29.0005 12.383 28.8761 12.331 28.7506C12.1731 28.3694 12.0345 27.9819 11.9155 27.5894C11.7959 27.195 11.696 26.7959 11.6159 26.3931C11.5744 26.1846 11.5382 25.9753 11.5074 25.7651C11.3001 24.3517 11.3342 22.9057 11.6159 21.4897C11.6519 21.3084 11.6919 21.1282 11.7358 20.9493C11.807 20.6589 11.8884 20.3717 11.9797 20.0882C12.0839 19.7645 12.2012 19.4456 12.331 19.1322C12.5816 18.5272 12.8791 17.9428 13.2206 17.3845C13.7353 16.5427 14.3502 15.7602 15.0552 15.0552C15.3016 14.8088 15.5574 14.5735 15.8219 14.3496C16.1854 14.0419 16.5653 13.7558 16.9596 13.4923C18.0035 12.7948 19.1483 12.2562 20.3563 11.8966C20.7285 11.7858 21.1066 11.692 21.4897 11.6159C21.7566 11.5627 22.0246 11.5184 22.2932 11.4829C22.8398 11.4106 23.389 11.3745 23.9375 11.3744H23.9414C24.4929 11.3744 25.0435 11.4107 25.5897 11.483C26.6701 11.6259 27.733 11.9094 28.7506 12.331C28.9454 12.4116 29.1376 12.497 29.3274 12.587C30.6308 13.2053 31.8139 14.0414 32.8277 15.0552C33.227 15.4544 33.5999 15.8812 33.9436 16.333C34.0986 16.5368 34.2477 16.7458 34.3906 16.9596C35.0188 17.8997 35.5137 18.915 35.8666 19.9764C35.9731 20.2968 36.0667 20.6213 36.1471 20.9493C36.2777 21.4818 36.3735 22.0234 36.4336 22.5705C36.4833 23.0243 36.5085 23.4819 36.5085 23.9414C36.5085 23.9428 36.5085 23.9441 36.5085 23.9454ZM39.4827 28.3617C39.4341 28.5324 39.3828 28.7022 39.3287 28.8712C38.9668 30.0007 38.4804 31.0909 37.8759 32.1208C37.8528 32.1601 37.8296 32.1992 37.8062 32.2384C37.6687 32.4681 37.5253 32.6947 37.376 32.9181C36.7852 33.8024 36.1114 34.6218 35.3667 35.3667C33.8735 36.8598 32.0946 38.0532 30.1247 38.8692C28.1561 39.6846 26.0556 40.0986 23.9453 40.0991H23.9414C22.8882 40.0991 21.8323 39.9961 20.7893 39.7886C18.6981 39.3726 16.7205 38.5492 14.9647 37.376C14.0889 36.7908 13.2683 36.1186 12.5163 35.3667C11.5418 34.3921 10.7013 33.3025 10.0106 32.1269C9.98698 32.0867 9.96357 32.0464 9.94028 32.006C9.59124 31.4 9.28164 30.7716 9.01369 30.1247C8.79451 29.5955 8.60316 29.054 8.44086 28.5023C8.30465 28.0395 8.18893 27.5695 8.09429 27.0937C7.67831 25.0025 7.68227 22.8603 8.09423 20.7893C8.2189 20.1625 8.38093 19.5422 8.58 18.9318C8.70908 18.5361 8.85367 18.1446 9.01375 17.7582C9.35578 16.9324 9.76417 16.1401 10.2332 15.3885C10.6361 14.7427 11.0838 14.1268 11.5725 13.5453C11.872 13.189 12.1868 12.8457 12.5163 12.5163C13.261 11.7714 14.0804 11.0977 14.9647 10.5068C16.7375 9.32231 18.7182 8.50625 20.7893 8.09423C21.8223 7.88873 22.8779 7.78378 23.9414 7.78378C26.0836 7.78618 28.1816 8.21338 30.1226 9.01881C32.0632 9.82398 33.847 11.0071 35.3614 12.5215C35.677 12.8371 35.9783 13.1645 36.2646 13.5025C36.3427 13.5946 36.4197 13.6875 36.4955 13.7811C36.8059 14.1645 37.0977 14.5607 37.3703 14.9685C38.2 16.2093 38.8523 17.5568 39.3108 18.9712C39.8266 20.5622 40.0972 22.2378 40.0991 23.9414V23.9453C40.0987 25.447 39.8892 26.9328 39.4827 28.3617ZM47.8829 23.9328V23.9414C47.8829 28.6766 46.4787 33.3054 43.8481 37.2426C41.2173 41.1797 37.4781 44.2484 33.1035 46.0605C28.7287 47.8725 23.9149 48.3466 19.2707 47.4228C14.6265 46.4991 10.3605 44.2189 7.01228 40.8706C3.66403 37.5223 1.38383 33.2563 0.460038 28.6122C-0.463747 23.968 0.0103739 19.1542 1.82244 14.7795C3.63451 10.4047 6.70313 6.66558 10.6403 4.03486C14.5775 1.40414 19.2063 0 23.9414 0H23.9501C30.2953 0.00704335 36.3786 2.53079 40.8654 7.01753C45.3521 11.5043 47.8759 17.5876 47.8829 23.9328Z" fill="#FFC300"/>
</svg>
