<svg width="66" height="29" viewBox="0 0 66 29" fill="none" xmlns="http://www.w3.org/2000/svg">
<path d="M2.17844 28.5711C1.99291 28.5749 1.80797 28.5413 1.63509 28.4738C1.46238 28.4064 1.3048 28.3055 1.17102 28.1772C1.03717 28.0487 0.929055 27.8957 0.854543 27.7258C0.78002 27.5559 0.740663 27.3723 0.736861 27.1868L0.400356 10.8747C0.396533 10.6892 0.42918 10.504 0.496638 10.3312C0.564056 10.1585 0.66501 10.0009 0.793322 9.8671C0.92179 9.73322 1.07568 9.62529 1.2456 9.55077C1.41538 9.47634 1.59832 9.4368 1.78367 9.43294C1.96917 9.42912 2.1543 9.46177 2.32716 9.52922C2.49982 9.59668 2.65747 9.69755 2.79123 9.82591C2.92509 9.95437 3.03208 10.1081 3.10659 10.278C3.18108 10.4479 3.22156 10.6308 3.22539 10.8163L3.47122 22.7531L3.49135 23.7189L4.15964 23.0222L13.0058 13.804C26.3444 -0.0958173 47.1629 -3.53956 64.2035 5.13989C64.8833 5.48629 65.1308 6.33945 64.7467 7.02346C64.3667 7.6998 63.5007 7.94962 62.7876 7.58987C46.8767 -0.440429 27.483 2.79943 15.0449 15.7608L6.19888 24.978L5.53059 25.6747L6.49625 25.6555L18.4333 25.4087C18.8077 25.4012 19.1695 25.5433 19.4397 25.8025C19.7101 26.062 19.8671 26.4184 19.8749 26.793C19.8825 27.1675 19.7403 27.5301 19.4809 27.8004C19.2215 28.0706 18.8651 28.2269 18.4906 28.2346L2.17844 28.5711Z" fill="#3D405B" stroke="#E5CEB1" stroke-width="0.8"/>
</svg>
