<svg width="77" height="55" viewBox="0 0 77 55" fill="none" xmlns="http://www.w3.org/2000/svg">
<path fill-rule="evenodd" clip-rule="evenodd" d="M71.7386 30.5299C71.8361 30.4741 71.9576 30.3062 72.0111 30.1824C72.0498 30.0645 72.1535 29.9379 72.2274 29.9085C72.3456 29.8617 72.3425 29.8971 72.2447 30.0385C72.1765 30.1682 72.1851 30.2331 72.2618 30.254C72.3326 30.2601 72.4363 30.1335 72.5107 29.933C72.5703 29.7383 72.5766 29.5819 72.5264 29.5847C72.3405 29.5901 72.3471 29.3481 72.542 29.3221C72.6867 29.2989 72.7251 29.2665 72.6576 29.1394C72.4932 28.8113 72.4848 28.6607 72.6445 28.5461C72.7363 28.4755 72.7719 28.3929 72.7454 28.3693C72.7041 28.3514 72.7222 28.2246 72.7963 28.1097C72.8855 27.9033 72.8855 27.9033 72.95 28.0658C72.991 28.1692 73.0794 28.2197 73.1385 28.1962C73.301 28.1318 73.3756 27.8457 73.2727 27.7155C73.2138 27.6533 73.223 27.5471 73.2704 27.4941C73.3325 27.4353 73.3713 27.3173 73.342 27.2434C73.3126 27.1695 73.3483 27.087 73.4222 27.0577C73.5995 26.9874 73.6331 26.5978 73.4619 26.5973C73.3763 26.5971 73.3646 26.5676 73.4384 26.5382C73.4917 26.5 73.4978 26.4292 73.4389 26.3671C73.3742 26.2901 73.3714 26.2399 73.4511 26.2254C73.5811 26.2081 73.5767 25.6797 73.4501 25.576C73.4088 25.5582 73.4355 25.4963 73.4829 25.4433C73.5451 25.3844 73.5395 25.2841 73.463 25.1776C73.3866 25.0711 73.3247 25.0444 73.2921 25.0915C73.2595 25.1386 73.2271 25.1002 73.2332 25.0293C73.2335 24.9437 73.3313 24.8023 73.4704 24.6788C73.6568 24.5022 73.6688 24.4462 73.5483 24.2717C73.4543 24.1209 73.4397 24.0411 73.5284 24.006C73.7205 23.9298 73.5393 23.3005 73.2565 23.1049C73.0944 22.9982 73.0593 22.9095 73.1038 22.8063C73.1395 22.7238 73.1838 22.7062 73.1956 22.7358C73.2131 22.7801 73.2664 22.7419 73.302 22.6593C73.3525 22.5709 73.3293 22.4262 73.2646 22.3493C73.1881 22.2428 73.1942 22.172 73.2977 22.131C73.4159 22.0841 73.4044 21.9689 73.2286 21.5257C73.1055 21.2154 72.9855 20.8697 72.9475 20.7308C72.9154 20.6068 72.8155 20.4412 72.7419 20.3849C72.6476 20.3197 72.6331 20.24 72.7011 20.1959C72.7632 20.137 72.7133 20.0542 72.522 19.8736C72.1775 19.5657 72.1482 19.4918 72.3145 19.1351C72.4719 18.7991 72.4604 18.6839 72.2304 18.6213C72.021 18.5675 71.73 18.1357 71.8482 18.0889C71.9221 18.0596 71.8986 18.0005 71.7779 17.9116C71.6454 17.7931 71.6395 17.7783 71.7753 17.7758C71.9967 17.7735 71.932 17.6965 71.5812 17.545C71.4161 17.4737 71.2423 17.3374 71.2072 17.2487C71.172 17.1601 71.0484 17.021 70.9335 16.9469C70.7096 16.8134 70.6336 16.5357 70.7939 16.2499C70.9036 16.0524 70.9036 16.0524 70.7233 16.1582C70.6316 16.2287 70.481 16.2372 70.3985 16.2015C70.3101 16.1511 70.2245 16.1508 70.1919 16.1979C70.1593 16.2451 70.08 16.0884 70.0069 15.8609C69.9426 15.6128 69.8575 15.4414 69.8132 15.4589C69.7393 15.4882 69.1149 15.0348 69.0002 14.8751C68.8298 14.6178 68.7207 14.5585 68.5582 14.6229C68.44 14.6698 68.3575 14.6342 68.3106 14.516C68.2695 14.4125 68.1694 14.3326 68.0838 14.3323C67.9982 14.3321 67.9098 14.2816 67.8864 14.2225C67.8571 14.1486 67.7539 14.1041 67.6387 14.1155C67.5236 14.127 67.4087 14.0529 67.3735 13.9642C67.3384 13.8756 67.1409 13.7658 66.9226 13.7327C66.5007 13.6607 66.383 13.5363 66.6637 13.425C66.7671 13.384 66.7939 13.3221 66.7468 13.2895C66.6201 13.1858 66.3776 13.3504 66.3682 13.5422C66.3797 13.6574 66.303 13.6365 66.1234 13.4854C65.9496 13.3491 65.8936 13.3372 65.9287 13.4258C65.9991 13.6031 65.7097 13.6495 65.6393 13.4722C65.6159 13.4131 65.4625 13.3714 65.2766 13.3767C65.0552 13.379 64.9726 13.3434 65.0083 13.2608C65.0439 13.1783 65.1415 13.1225 65.3275 13.1171C65.7201 13.1153 65.6999 12.9352 65.2867 12.9281C65.1155 12.9276 64.8972 12.8945 64.85 12.8619C64.7616 12.8115 64.7379 12.838 64.7377 12.9236C64.7464 12.9885 64.6605 13.0739 64.5719 13.109C64.4537 13.1559 64.4065 13.1233 64.3833 12.9786C64.3601 12.8339 64.313 12.8013 64.1653 12.8599C64.0618 12.9009 63.87 12.8915 63.7255 12.8291C63.5811 12.7667 63.3745 12.7632 63.271 12.8042C63.1528 12.8511 62.9964 12.8447 62.8932 12.8002C62.7783 12.726 62.6986 12.7406 62.6688 12.8379C62.5975 13.003 62.3759 13.0909 62.3881 12.9493C62.427 12.7457 62.0997 12.6533 61.8337 12.7587C61.6121 12.8467 61.5708 12.8288 61.5507 12.6487C61.5333 12.5188 61.5216 12.4892 61.5155 12.5601C61.5094 12.6309 61.4383 12.7104 61.3349 12.7514C61.2315 12.7924 61.1663 12.8867 61.166 12.9723C61.1658 13.0579 61.1242 13.1257 61.0682 13.1137C61.0269 13.0959 60.98 12.9777 60.9775 12.8419C60.9662 12.6411 60.9487 12.5968 60.8452 12.6378C60.7714 12.6671 60.7357 12.7497 60.7591 12.8088C60.8002 12.9122 60.7469 12.9504 60.5166 12.9734C60.3513 12.9877 60.2331 13.0345 60.2507 13.0789C60.2683 13.1232 60.1442 13.1553 59.9936 13.1637C59.7722 13.166 59.6897 13.1304 59.6813 12.9798C59.6642 12.7643 59.5343 12.7816 59.4362 13.0086C59.3916 13.1118 59.3414 13.1146 59.2561 13.0288C59.1002 12.8512 58.9435 12.9305 59.0757 13.1345C59.2345 13.3623 59.0804 13.5773 58.806 13.5322C58.6172 13.4874 58.564 13.5256 58.4837 13.7113C58.3887 13.9029 58.3296 13.9264 58.1261 13.8874C57.9992 13.8693 57.8578 13.7715 57.8285 13.6977C57.7347 13.4612 57.4863 13.6111 57.5653 13.8533L57.6415 14.0454L57.4176 13.9119C57.1613 13.74 56.9279 13.7984 57.0041 13.9904C57.0334 14.0643 57.0864 14.1117 57.1455 14.0883C57.3524 14.0062 57.2574 14.1978 57.0416 14.3005C56.9145 14.368 56.6485 14.4735 56.4623 14.5645C55.8535 14.8402 55.7146 14.8781 55.6619 14.7452C55.6326 14.6713 55.4998 14.6384 55.3345 14.6527C55.1396 14.6787 55.0984 14.6609 55.2048 14.5845C55.3793 14.4639 55.3296 14.2955 55.1523 14.3659C54.9898 14.4303 54.9488 14.3269 55.0231 14.1264C55.1123 13.9201 54.9383 13.8694 54.8285 14.0668C54.7335 14.2584 54.5269 14.2549 54.4507 14.0628C54.4214 13.9889 54.4925 13.9094 54.5959 13.8684C54.7141 13.8215 54.7467 13.7744 54.6848 13.7476C54.614 13.7415 54.5317 13.6203 54.4848 13.5021C54.4203 13.3395 54.3525 13.298 54.2402 13.3597C54.1722 13.4037 54.0866 13.4035 54.069 13.3592C54.0514 13.3149 54.0693 13.2736 54.1284 13.2501C54.1727 13.2326 54.1994 13.1706 54.176 13.1115C54.1584 13.0672 54.1082 13.07 54.0756 13.1172C54.0282 13.1702 53.9987 13.1819 53.9663 13.1434C53.9546 13.1139 53.8636 12.9276 53.7727 12.7414C53.5907 12.369 53.5171 12.3127 53.2511 12.4182C53.1477 12.4592 53.0356 12.4353 52.9826 12.3879C52.9179 12.311 52.9564 12.2786 53.1217 12.2643C53.2664 12.2411 53.296 12.2294 53.2134 12.1937C53.122 12.1787 53.0662 12.0812 53.0695 11.9601C53.07 11.7889 53.0552 11.7948 52.9721 11.9303C52.895 12.0807 52.8596 12.0776 52.8453 11.9123C52.8078 11.6022 52.5247 11.4922 52.2527 11.6685C52.0723 11.7743 52.0074 11.7829 51.9722 11.6943C51.9429 11.6204 51.9786 11.5379 52.0524 11.5086C52.1263 11.4793 52.1737 11.4263 52.1561 11.3819C52.1385 11.3376 52.056 11.3019 51.9704 11.3017C51.8848 11.3015 51.7847 11.2215 51.7436 11.118C51.7026 11.0146 51.629 10.9583 51.5846 10.9759C51.5255 10.9993 51.4725 10.952 51.4432 10.8781C51.4139 10.8042 51.3314 10.7686 51.2575 10.7979C51.1836 10.8272 51.1775 10.898 51.2364 10.9601C51.3865 11.1229 51.227 11.152 51.0178 11.0126C50.8912 10.909 50.8677 10.8499 50.921 10.8116C50.9684 10.7587 50.9538 10.6789 50.8891 10.602C50.8303 10.5398 50.7388 10.5248 50.7003 10.5572C50.653 10.6102 50.6 10.5628 50.5531 10.4446C50.4769 10.2525 50.3704 10.3289 50.4112 10.518C50.414 10.5681 50.4374 10.6272 50.4402 10.6774C50.452 10.707 50.3457 10.6978 50.2071 10.6502C49.9241 10.5402 49.8066 10.3303 50.0132 10.3338C50.1284 10.3223 50.1314 10.2869 50.0344 10.1715C49.9462 10.0355 49.8606 10.0352 49.7689 10.1058C49.6535 10.2029 49.6122 10.1851 49.5536 10.0373C49.4892 9.87478 49.4596 9.8865 49.3412 10.019C49.1664 10.2251 48.9392 10.2126 49.0135 10.0121C49.0968 9.791 48.6456 9.64507 48.4031 9.80967C48.2375 9.90955 48.2021 9.90649 48.182 9.72638C48.1529 9.56691 48.0852 9.52539 47.8961 9.56617C47.7367 9.59522 47.6213 9.6923 47.5678 9.81612C47.4965 9.9812 47.4669 9.99293 47.352 9.9188C47.2636 9.86837 47.1961 9.74125 47.1698 9.63196C47.1436 9.52267 47.0758 9.48115 47.0078 9.52523C46.9545 9.56345 46.7627 9.55404 46.6035 9.4975C46.2407 9.402 46.1166 9.43412 45.8471 9.74622C45.6576 9.9582 45.6281 9.96992 45.5812 9.85171C45.4991 9.64486 45.051 9.46351 45.024 9.61102C45.0179 9.68184 45.0678 9.76463 45.1562 9.81507C45.2859 9.88333 45.2829 9.91874 45.1499 9.97149C45.0465 10.0125 44.8753 10.012 44.7573 9.97331C44.5833 9.92263 44.5509 9.88416 44.5838 9.75143C44.6166 9.6187 44.5784 9.56546 44.3927 9.48523C44.2128 9.41977 44.1479 9.42844 44.1181 9.52576C44.1031 9.61722 43.9879 9.6287 43.7077 9.56886C43.3507 9.48813 42.6866 9.49507 42.0428 9.59652C41.8479 9.62253 41.7858 9.68138 41.7825 9.80239C41.7909 9.95295 41.7555 9.9499 41.6113 9.8019C41.4612 9.63912 41.4406 9.63021 41.4814 9.81923C41.5219 10.0939 41.4269 10.2854 41.3507 10.0934C41.3214 10.0195 41.2478 9.9632 41.2034 9.98078C41.1443 10.0042 41.1324 10.0603 41.1499 10.1046C41.1734 10.1637 41.1556 10.205 41.1112 10.2226C41.0669 10.2401 41.0022 10.1632 40.9612 10.0598C40.9115 9.89139 40.8348 9.8705 40.5719 9.94059C40.2942 10.0165 40.2705 10.043 40.3793 10.188C40.5381 10.4157 40.4196 10.5482 40.252 10.3411C40.1549 10.2257 40.0988 10.2137 40.0897 10.32C40.0746 10.4114 40.0334 10.3936 39.9422 10.293C39.8334 10.148 39.7625 10.1419 39.3753 10.3297C39.13 10.4441 38.9114 10.4966 38.8997 10.4671C38.8411 10.3193 38.6251 10.5076 38.6305 10.6936C38.6534 10.9239 38.5174 11.012 38.3732 10.864C38.2555 10.7397 37.9982 10.9102 37.9207 11.1461C37.8701 11.3201 37.341 11.5813 37.3621 11.419C37.3741 11.3629 37.4716 11.3071 37.5868 11.2957C37.8171 11.2727 37.7618 11.004 37.505 11.0032C37.2482 11.0025 37.186 11.0613 37.2388 11.1943C37.2798 11.2977 37.2118 11.3418 36.9135 11.4088C36.6299 11.47 36.5471 11.52 36.5823 11.6086C36.6027 11.7031 36.582 11.6942 36.4819 11.6142C36.1874 11.389 35.1758 12.1152 35.2337 12.5197C35.2627 12.6792 35.2065 12.7529 35.0913 12.7643C34.9762 12.7758 34.9229 12.814 34.9464 12.8731C34.9639 12.9174 34.9403 12.9439 34.8842 12.932C34.8282 12.92 34.7665 12.8077 34.755 12.6925C34.7232 12.4829 34.7232 12.4829 34.5955 12.7216C34.5005 12.9132 34.4473 12.9514 34.2939 12.9096C34.1966 12.8798 34.0725 12.9119 34.0252 12.9649C33.9836 13.0327 33.8919 13.1033 33.8535 13.1356C33.7944 13.1591 33.7116 13.209 33.6525 13.2324C33.5992 13.2707 33.5725 13.3326 33.5901 13.3769C33.637 13.4951 33.962 13.3662 33.989 13.2187C34.0071 13.0918 34.2934 13.0808 34.3403 13.199C34.3579 13.2433 34.3401 13.2846 34.2899 13.2874C34.2603 13.2991 34.1775 13.3491 34.1154 13.4079C33.7898 13.7081 33.6214 13.7578 33.5127 13.6128C33.4479 13.5359 33.3743 13.4796 33.33 13.4972C33.2857 13.5148 33.315 13.5886 33.3797 13.6656C33.4857 13.7603 33.462 13.7868 33.3175 13.7244C33.1022 13.6559 33.0309 13.821 33.2075 14.0075C33.3193 14.117 33.2692 14.1198 32.9476 14.0421C32.632 13.9792 32.5464 13.979 32.4486 14.1204C32.3834 14.2147 32.2532 14.3176 32.1941 14.341C32.0611 14.3938 32.0726 14.5089 32.1811 14.7395C32.2311 14.8223 32.2074 14.8488 32.0599 14.8218C31.9684 14.8068 31.8148 14.8506 31.732 14.9005C31.6403 14.9711 31.5753 14.9798 31.5519 14.9207C31.4874 14.7581 31.0916 14.881 30.9818 15.0784C30.9372 15.1816 30.8218 15.2787 30.7479 15.308C30.4998 15.3722 30.4583 15.44 30.4188 15.8147C30.3735 16.1747 30.3587 16.1806 30.1761 16.0649C29.743 15.7921 29.2289 15.9618 29.6087 16.2729C29.7619 16.4002 29.7471 16.4061 29.5198 16.3936C29.3782 16.3814 29.2513 16.3633 29.2337 16.319C29.1927 16.2156 28.9533 16.3448 28.9293 16.4568C28.9232 16.5277 28.9732 16.6105 29.0616 16.6609C29.1912 16.7292 29.1469 16.7467 28.8784 16.7165C28.6099 16.6862 28.5065 16.7272 28.3584 16.8714C28.2637 16.9774 28.2043 17.0864 28.2278 17.1455C28.2454 17.1899 28.1595 17.2752 28.0413 17.3221C27.8788 17.3866 27.8373 17.4543 27.89 17.5873C27.931 17.6907 28.0195 17.7412 28.0933 17.7119C28.1672 17.6826 28.2497 17.7182 28.2791 17.7921C28.3084 17.866 28.2875 17.9427 28.2431 17.9602C28.184 17.9837 28.1428 17.9659 28.1193 17.9068C28.1017 17.8624 28.0103 17.8474 27.9069 17.8884C27.8034 17.9295 27.712 17.9144 27.6885 17.8553C27.6709 17.811 27.6208 17.8138 27.5882 17.8609C27.5408 17.9139 27.5054 17.9109 27.4878 17.8666C27.4233 17.704 26.8262 18.0093 26.6601 18.2804C26.5592 18.4572 26.4291 18.5601 26.2785 18.5685C26.0482 18.5915 26.0332 18.6829 26.1741 18.9519C26.2123 19.0052 26.156 19.0788 26.0526 19.1198C25.9492 19.1609 25.8636 19.1606 25.846 19.1163C25.8343 19.0867 25.7428 19.0717 25.6542 19.1069C25.5449 19.1331 25.4766 19.2628 25.4672 19.4547C25.4575 19.7321 25.3185 19.8557 25.1121 19.7665C24.947 19.6952 24.867 19.7953 24.8752 20.0315C24.8747 20.2027 24.8599 20.2085 24.8189 20.1051C24.6928 19.8302 24.5213 19.9153 24.544 20.2312C24.5639 20.4969 24.5165 20.5499 24.3217 20.5759C24.1622 20.605 24.0794 20.6549 24.0967 20.7849C24.0934 20.9059 24.0313 20.9647 23.8512 20.9849C23.6415 21.0167 23.6326 21.0374 23.7829 21.1146C24.0275 21.2569 23.9179 21.3688 23.6023 21.3059C23.4194 21.2759 23.2599 21.3049 23.1239 21.3931C22.9494 21.5136 22.9433 21.5844 23.0429 21.8356C23.1074 21.9981 23.1158 22.1487 23.0715 22.1663C23.0124 22.1897 22.9535 22.1276 22.9125 22.0241C22.7777 21.6843 22.5999 21.9258 22.6932 22.3334C22.7398 22.5372 22.7717 22.7469 22.7538 22.7882C22.6914 22.9326 22.4053 22.858 22.335 22.6807C22.294 22.5773 22.2203 22.521 22.1612 22.5444C22.1021 22.5679 22.1167 22.6476 22.1725 22.7452C22.293 22.9197 22.213 23.0198 22.0451 22.8983C21.8978 22.7857 21.7824 22.8828 21.7906 23.1189C21.7932 23.2547 21.7249 23.3844 21.6363 23.4195C21.5181 23.4664 21.4972 23.5431 21.5647 23.6702C21.6205 23.7678 21.6231 23.9036 21.5905 23.9507C21.5342 24.0244 21.5077 24.0007 21.5021 23.9003C21.5023 23.8147 21.4524 23.7319 21.3963 23.7199C21.1219 23.6749 20.5791 24.5913 20.7557 24.7777C20.8411 24.8636 20.8143 24.9255 20.637 24.9958C20.5188 25.0427 20.3889 25.0601 20.3654 25.0009C20.3068 24.8532 20.1471 24.9679 19.9986 25.2833C19.9036 25.4748 19.8973 25.6313 19.962 25.7082C20.112 25.871 20.0175 25.8914 19.7936 25.7579C19.6168 25.657 19.6168 25.657 19.628 25.8578C19.6453 25.9877 19.5949 26.0761 19.4797 26.0876C19.335 26.1108 18.6898 26.7258 18.725 26.8145C18.7308 26.8292 18.8251 26.8945 18.943 26.9332C19.1023 26.9897 19.1257 27.0488 19.087 27.1668C19.0424 27.2699 18.9981 27.2875 18.8743 27.234C18.7446 27.1658 18.7388 27.151 18.8509 27.1749C19.0131 27.1961 18.9782 27.0218 18.8159 27.0007C18.7451 26.9946 18.7064 27.1125 18.7118 27.2985C18.7258 27.5494 18.6932 27.5966 18.5546 27.5489C18.3039 27.4774 18.2917 27.619 18.5154 27.8381C18.7126 28.0335 18.7417 28.193 18.5939 28.2516C18.5496 28.2691 18.5114 28.2159 18.5116 28.1303C18.5121 27.9591 18.2877 27.9968 18.2222 28.1767C18.2044 28.218 18.1274 28.2827 18.0831 28.3003C18.024 28.3237 18.0059 28.4506 18.0322 28.5599C18.073 28.7489 18.1142 28.7667 18.2444 28.6638C18.3657 28.5815 18.4011 28.5846 18.4067 28.6849C18.4065 28.7705 18.3058 28.8617 18.2024 28.9028C18.0842 28.9497 18.0073 29.0144 18.0396 29.0528C18.0661 29.0765 18.0483 29.1178 18.0335 29.1237C18.004 29.1354 17.9388 29.2296 17.8794 29.3387C17.7933 29.5096 17.7579 29.5066 17.6017 29.4146C17.3572 29.2722 17.2504 29.4343 17.3972 29.7181C17.4647 29.8452 17.4882 29.9043 17.4352 29.8569C17.3175 29.7326 17.3027 29.7385 17.0332 30.0506C16.7726 30.342 16.6656 30.5897 16.7125 30.7079C16.7301 30.7522 16.6796 30.8406 16.5732 30.917C16.375 31.064 16.5192 31.212 16.7704 31.1124C16.9181 31.0538 16.9446 31.0775 16.8998 31.2663L16.8578 31.5052L16.6338 31.3718C16.5189 31.2976 16.3714 31.2707 16.3271 31.2882C16.2089 31.3351 16.2851 31.5272 16.4413 31.6192C16.5857 31.6816 16.5993 32.1037 16.4663 32.1564C16.4072 32.1799 16.369 32.1266 16.4018 31.9939C16.4352 31.69 16.1931 31.6834 16.0742 31.9871C16.0413 32.1198 15.9583 32.2553 15.914 32.2729C15.8549 32.2964 15.8251 32.3937 15.8366 32.5088C15.848 32.624 15.8182 32.7213 15.7739 32.7389C15.6705 32.7799 15.7487 33.279 15.8756 33.297C16.1706 33.351 15.4918 34.3556 15.1346 34.3605C14.928 34.3569 14.7589 34.6634 14.8942 34.832C14.9647 34.9238 14.9174 34.9767 14.7548 35.0412C14.548 35.1233 14.5302 35.1645 14.6828 35.4631C14.8471 35.7912 14.8471 35.7912 14.5577 35.8376C14.2979 35.8723 14.2653 35.9194 14.3297 36.0819C14.3884 36.2297 14.4355 36.2623 14.5657 36.1594C14.6574 36.0888 14.7371 36.0743 14.7547 36.1186C14.7957 36.222 14.4941 36.41 14.326 36.3741C13.9247 36.311 13.5378 37.405 13.9093 37.5654C14.0125 37.61 14.03 37.6543 13.9766 37.7781C13.932 37.8813 13.9024 37.893 13.8731 37.8192C13.8497 37.7601 13.773 37.7392 13.7139 37.7626C13.64 37.7919 13.5486 37.7769 13.5103 37.7237C13.3868 37.5846 13.2739 37.8174 13.3262 38.1216C13.3552 38.2811 13.3135 38.4345 13.2396 38.4638C13.0919 38.5224 13.1181 38.6317 13.3245 38.7208C13.407 38.7565 13.4394 38.7949 13.3803 38.8184C13.3359 38.836 13.2297 38.8268 13.1472 38.7911C12.9202 38.6931 12.8606 38.8877 13.0073 39.1715C13.1482 39.4405 13.0237 39.6438 12.785 39.5162C12.6701 39.4421 12.602 39.4862 12.4273 39.6923L12.341 39.9488L12.6181 40.0441C12.8334 40.1126 12.8451 40.1421 12.7094 40.1447C12.5234 40.1501 12.325 40.3827 12.3836 40.5304C12.4011 40.5748 12.472 40.5809 12.5458 40.5516C12.6197 40.5223 12.6964 40.5431 12.7199 40.6022C12.7374 40.6466 12.699 40.6789 12.6429 40.667C12.4394 40.628 12.3798 40.8226 12.5566 40.9235C12.7953 41.0511 12.6707 41.2544 12.3905 41.1946C12.1811 41.1409 12.1752 41.1261 12.2585 40.9049C12.2914 40.7722 12.3125 40.6099 12.2773 40.5213C12.2422 40.4326 12.2483 40.3618 12.3074 40.3384C12.3517 40.3208 12.355 40.1998 12.3081 40.0816C12.2554 39.9486 12.2676 39.8069 12.3445 39.7422C12.5842 39.5274 12.5763 39.2057 12.3547 39.2936C12.1626 39.3698 12.1959 39.0659 12.403 38.8982C12.5391 38.8101 12.563 38.698 12.4988 38.4498C12.4463 38.2313 12.3816 38.1543 12.3077 38.1836C12.2486 38.2071 12.166 38.1714 12.1367 38.0975C12.1074 38.0237 12.1579 37.9352 12.2908 37.8825C12.4386 37.8239 12.5038 37.7296 12.5012 37.5938C12.4872 37.3429 12.3458 37.2451 12.1537 37.3213C12.0207 37.374 11.9678 37.3267 11.9094 37.0933C11.8189 36.7359 11.8429 36.6238 11.9934 36.6154C12.1794 36.61 12.2723 36.1114 12.1253 35.9132C12.0547 35.8215 11.9457 35.7622 11.8866 35.7856C11.6945 35.8618 11.6802 35.6965 11.8904 35.4934C11.9852 35.3874 12.0534 35.2578 12.0358 35.2134C12.0124 35.1543 11.9474 35.163 11.8733 35.2779C11.7548 35.4104 11.7342 35.4015 11.6611 35.174C11.6114 35.0056 11.659 34.867 11.7833 34.7493C11.9461 34.5992 11.9642 34.4723 11.9033 34.1032C11.8046 33.5096 11.8163 33.5392 11.639 33.6095C11.5504 33.6447 11.5443 33.7155 11.5883 33.7835C11.706 33.9078 11.6141 34.064 11.4518 34.0429C11.3751 34.022 11.3547 33.9275 11.3848 33.7446C11.4625 33.423 11.4273 33.3344 11.2941 33.4727C11.2319 33.5316 11.1669 33.5403 11.1494 33.4959C11.1318 33.4516 11.1674 33.3691 11.2207 33.3309C11.3065 33.2455 11.292 33.1658 11.1185 32.9439C10.9391 32.7072 10.9187 32.6127 10.9783 32.4181C11.0647 32.1615 11.044 32.1526 10.7717 32.4145C10.5942 32.5705 10.5588 32.5674 10.5001 32.4197C10.4591 32.3162 10.3855 32.2599 10.3412 32.2775C10.2821 32.301 10.2701 32.357 10.2935 32.4161C10.3228 32.49 10.2933 32.5017 10.1753 32.463C10.0367 32.4154 9.99827 32.4477 9.96823 32.6306C9.95015 32.7575 9.97054 32.852 10.0149 32.8344C10.0444 32.8227 10.0531 32.8877 10.0085 32.9909C9.97566 33.1236 9.90179 33.1529 9.78383 33.1142C9.58919 33.0546 9.4766 33.2019 9.55279 33.3939C9.59381 33.4974 9.57013 33.5239 9.44631 33.4704C9.31358 33.4375 9.26034 33.4757 9.18877 33.7264L9.09047 34.039L8.93454 33.8615C8.77861 33.6839 8.77861 33.6839 8.80437 33.9644C8.84185 34.2744 9.20694 34.5913 9.4138 34.5093C9.48767 34.48 9.54067 34.5274 9.558 34.6573C9.56948 34.7724 9.52491 34.8756 9.4658 34.8991C9.39193 34.9284 9.37691 35.0198 9.41793 35.1232C9.46482 35.2414 9.54736 35.2771 9.68034 35.2244C9.86351 35.1688 9.87828 35.1629 9.77461 35.2896C9.72417 35.378 9.5349 35.5043 9.39301 35.5777C9.07967 35.7362 9.01958 36.1021 9.29677 36.1973C9.37931 36.233 9.47052 36.3336 9.47614 36.434C9.49934 36.5787 9.54647 36.6113 9.66467 36.5644C9.75333 36.5292 9.85395 36.438 9.88961 36.3555C9.92526 36.2729 9.96959 36.2553 10.0549 36.3412C10.1255 36.4329 10.1283 36.4831 10.0101 36.53C9.93625 36.5593 9.78824 36.7035 9.71106 36.8538C9.63389 37.0041 9.50066 37.1424 9.44156 37.1659C9.38246 37.1893 9.36158 37.266 9.39674 37.3547C9.44363 37.4729 9.46426 37.4818 9.55621 37.3256C9.64817 37.1694 9.66295 37.1636 9.67417 37.3643C9.67954 37.5503 9.73254 37.5977 9.89201 37.5686C10.1873 37.537 10.1988 37.6521 9.91191 37.8343C9.74633 37.9342 9.68698 38.0432 9.728 38.1467C9.88319 38.581 9.90919 38.7759 9.78489 38.8936C9.62211 39.0437 9.72174 39.2949 10.0045 39.4905C10.2137 39.6298 10.1989 39.6357 9.90343 39.7529C9.56359 39.8877 9.54832 40.0648 9.86372 40.2133C9.96691 40.2578 10.0788 40.3674 10.0991 40.4619C10.1343 40.5505 10.1165 40.5918 10.0635 40.5444C9.94578 40.4201 9.62072 40.549 9.67347 40.682C9.69691 40.7411 9.82353 40.8448 9.98277 40.9013L10.251 41.0172L10.0732 41.2588C9.95174 41.4267 9.93366 41.5535 10.0101 41.66C10.1013 41.7606 10.0893 41.8167 9.98591 41.8577C9.88248 41.8987 9.87051 41.9548 9.94109 42.0465C10.2677 42.3957 10.3263 42.5435 10.1786 42.6021C10.1047 42.6314 9.97148 42.7697 9.90908 42.9142C9.81101 43.1412 9.80796 43.1766 9.95547 43.2036C10.103 43.2306 10.0941 43.2512 9.96108 43.304C9.85765 43.345 9.84263 43.4364 9.90124 43.5842C9.94813 43.7024 9.94483 43.8234 9.9005 43.841C9.8414 43.8644 9.85874 43.9944 9.91734 44.1421C9.9994 44.349 9.99328 44.4198 9.83076 44.4843C9.63867 44.5605 9.63868 44.5605 9.86873 44.6231C10.0781 44.6768 10.0899 44.7064 9.98314 44.8684C9.87335 45.0659 10.0642 45.4177 10.3032 45.4597C10.374 45.4658 10.4683 45.531 10.4858 45.5753C10.5093 45.6344 10.465 45.652 10.3941 45.6459C10.3027 45.6309 10.3144 45.6604 10.3908 45.7669C10.4938 45.8971 10.4731 45.8882 10.3052 45.7667C10.0961 45.6273 10.0813 45.6332 9.92718 45.8482C9.78199 46.0426 9.77894 46.078 9.95294 46.1287C10.1771 46.1766 10.2146 46.4866 10.0078 46.5687C9.93387 46.598 9.89236 46.6657 9.90994 46.7101C9.93339 46.7692 9.95683 46.8283 9.96855 46.8578C9.98027 46.8874 10.0954 46.8759 10.2195 46.8438C10.3436 46.8117 10.4353 46.7411 10.4177 46.6968C10.4001 46.6524 10.4179 46.6112 10.477 46.5877C10.6691 46.5115 10.6505 46.8096 10.4613 46.936C10.3548 47.0124 10.2865 47.1421 10.3158 47.216C10.3627 47.3342 10.3332 47.3459 10.1946 47.2983C9.94387 47.2267 9.843 47.4035 10.0491 47.5783C10.1816 47.6967 10.1727 47.7174 10.0249 47.776C9.83285 47.8522 9.83542 47.9879 10.0242 48.0328C10.0802 48.0447 10.1656 48.1306 10.2066 48.234C10.2652 48.3818 10.2268 48.4141 9.94323 48.4753C9.59473 48.5451 9.54404 48.7191 9.85359 48.8528C9.93613 48.8885 9.96849 48.927 9.93894 48.9387C9.90939 48.9504 9.93869 49.0243 10.0388 49.1043C10.1713 49.2227 10.1772 49.2375 10.0414 49.2401C9.81999 49.2424 9.81265 49.7412 10.016 49.8657C10.1928 49.9666 10.1334 50.0756 9.90007 50.134C9.77015 50.1513 9.75818 50.2074 9.86111 50.3376C9.93169 50.4293 10.0642 50.5477 10.1319 50.5892C10.2203 50.6397 10.2321 50.6692 10.1111 50.6659C9.90445 50.6624 9.91238 50.9841 10.1098 51.0939C10.2247 51.168 10.2482 51.2271 10.1947 51.351C10.1471 51.4896 10.1911 51.5576 10.4151 51.691C10.639 51.8245 10.6831 51.8925 10.6355 52.0311C10.6057 52.1284 10.6233 52.1728 10.6617 52.1404C10.8806 52.0023 10.9927 52.0262 10.9361 52.1855C10.8885 52.3241 10.9091 52.333 11.0393 52.23C11.1753 52.1419 11.2255 52.1391 11.3017 52.3312C11.3486 52.4494 11.4546 52.5441 11.546 52.5591C11.7172 52.5596 12.0051 52.0351 11.9347 51.8578C11.9113 51.7987 11.9587 51.7457 12.0443 51.7459C12.1299 51.7462 12.1979 51.7021 12.2099 51.646C12.2218 51.59 12.2898 51.5459 12.3459 51.5579C12.4019 51.5698 12.4139 51.5138 12.3905 51.4547C12.3611 51.3808 12.4057 51.2776 12.5091 51.2366C12.7456 51.1428 12.7073 51.0896 12.3183 50.8848C12.1415 50.7839 11.9942 50.6714 12.0121 50.6301C12.0151 50.5947 12.1478 50.6275 12.2982 50.7047C12.5575 50.8412 12.5723 50.8354 12.6202 50.6112C12.6589 50.4932 12.6387 50.3131 12.5771 50.2008C12.5037 50.0589 12.5157 50.0028 12.6013 50.0031C12.6869 50.0033 12.7136 49.9414 12.6667 49.8232C12.6081 49.6754 12.6407 49.6283 12.8002 49.5993C12.9803 49.5791 12.9833 49.5437 12.8481 49.3751C12.7334 49.2153 12.7367 49.0943 12.8378 48.8319C12.927 48.6256 12.9157 48.4248 12.8688 48.3066C12.8072 48.1943 12.8105 48.0733 12.849 48.0409C12.9022 48.0027 12.9908 47.9675 13.0441 47.9293C13.0884 47.9117 13.0917 47.7907 13.0507 47.6873C12.9921 47.5395 13.0158 47.513 13.0953 47.5841C13.2897 47.7293 13.5798 47.4261 13.4386 47.2427C13.3681 47.151 13.3594 47.086 13.4037 47.0684C13.4628 47.045 13.5247 47.0717 13.5482 47.1308C13.5716 47.1899 13.6366 47.1813 13.675 47.1489C13.7283 47.1107 13.7522 46.9986 13.7112 46.8952C13.6702 46.7917 13.7147 46.6886 13.8123 46.6328C13.9099 46.577 14.0314 46.4091 14.0996 46.2794C14.162 46.1349 14.2864 46.0172 14.372 46.0175C14.4575 46.0177 14.5256 45.9736 14.5138 45.9441C14.4963 45.8998 14.4137 45.8641 14.3488 45.8728C14.2779 45.8667 14.3549 45.802 14.5026 45.7433C14.6741 45.6582 14.7747 45.567 14.7512 45.5079C14.7102 45.4045 15.0192 44.7176 15.1226 44.6766C15.1521 44.6649 15.2884 44.4911 15.4278 44.282C15.6738 43.9108 15.6886 43.9049 15.8713 44.0205C16.0216 44.0977 16.0422 44.1066 16.0012 44.0032C15.8073 43.6868 15.7991 43.4507 15.9441 43.3419C16.021 43.2771 16.1219 43.1003 16.1578 42.9322L16.2117 42.6372L16.3766 42.7941C16.5267 42.9569 16.7391 42.9752 16.6688 42.7979C16.6512 42.7536 16.6927 42.6858 16.7666 42.6565C16.9587 42.5803 16.8588 42.4147 16.6667 42.4909C16.5427 42.523 16.5516 42.5024 16.6879 42.3286C16.8152 42.1755 16.898 42.1256 17.0218 42.179C17.1604 42.2267 17.1693 42.206 17.0781 42.1054C16.9222 41.9279 17.0794 41.6774 17.3777 41.6104C17.5076 41.5931 17.6347 41.5255 17.6467 41.4695C17.6587 41.4134 17.7651 41.337 17.8833 41.2901C18.0163 41.2374 18.0668 41.149 18.0374 41.0751C18.0081 41.0012 18.0145 40.8448 18.068 40.721C18.1187 40.547 18.2015 40.497 18.3874 40.4917C18.8302 40.487 18.9308 40.3958 18.7573 40.1739C18.6162 39.9905 18.7022 39.8196 18.8465 39.9676C18.8729 39.9913 19.0057 40.0241 19.1208 40.0126C19.3068 40.0073 19.3394 39.9601 19.2749 39.7976C19.1987 39.6055 19.2135 39.5997 19.414 39.674C19.6971 39.7841 19.7709 39.7548 19.7006 39.5775C19.6713 39.5036 19.707 39.421 19.7661 39.3976C19.8252 39.3742 19.8787 39.2503 19.8524 39.1411C19.8353 38.9255 19.8353 38.9255 20.0771 39.0177C20.2157 39.0654 20.3013 39.0656 20.2778 39.0065C20.2544 38.9474 20.1777 38.9265 20.1186 38.95C19.9561 39.0144 20.1813 38.7199 20.3586 38.6496C20.4324 38.6203 20.5563 38.6738 20.6327 38.7802L20.7384 38.9606L20.7303 38.7244C20.7308 38.5532 20.7723 38.4855 20.9022 38.4681C21.0617 38.4391 21.0706 38.4184 20.9824 38.2824C20.9177 38.2055 20.8915 38.0962 20.9241 38.0491C20.9567 38.0019 20.998 38.0198 21.0214 38.0789C21.0448 38.138 21.1304 38.1382 21.228 38.0824C21.3108 38.0325 21.4878 38.0477 21.5821 38.1129C21.7648 38.2286 21.7796 38.2227 21.7449 37.9629C21.7102 37.703 21.8345 37.5853 22.2067 37.489C22.381 37.4541 22.5116 37.1799 22.4413 37.0026C22.412 36.9288 22.5338 36.6753 22.6968 36.4396L23.0109 36.0243L22.6241 36.0409C22.3584 36.0608 22.2196 36.0988 22.1602 36.2078C22.0594 36.3846 21.8298 36.1508 21.919 35.9444C21.9546 35.8619 21.9638 35.7556 21.9462 35.7113C21.9228 35.6522 21.8754 35.7052 21.8514 35.8173C21.8186 35.95 21.7032 36.0471 21.52 36.1027C21.3014 36.1552 21.2688 36.2023 21.3096 36.3913C21.3417 36.5154 21.4006 36.5775 21.4332 36.5304C21.4569 36.5039 21.5455 36.4687 21.637 36.4838C21.7491 36.5077 21.6928 36.5813 21.4887 36.7136C21.2641 36.8369 21.1311 36.8896 21.0516 36.8186C20.9986 36.7712 20.7535 36.8 20.5202 36.8584C20.1391 36.9753 20.0947 36.9929 20.1709 37.185C20.2178 37.3032 20.2 37.3445 20.1529 37.3119C20.0351 37.1876 19.9317 37.2286 19.8395 37.4704C19.7534 37.6413 19.7387 37.6472 19.6918 37.529C19.6156 37.3369 19.0689 37.5537 18.8496 37.863C18.7607 37.9838 18.6157 38.0926 18.5212 38.113C18.4119 38.1392 18.2581 38.2687 18.1602 38.4101C18.0624 38.5515 17.9086 38.6809 17.823 38.6806C17.7374 38.6804 17.625 38.7421 17.5835 38.8098C17.542 38.8776 17.4177 38.9953 17.2699 39.0539C17.1428 39.1214 17.0007 39.2804 16.9678 39.4132C16.9113 39.5724 16.8107 39.6636 16.6423 39.7133C16.4887 39.7571 16.3289 39.8718 16.2844 39.975C16.1478 40.2343 15.6422 40.5546 15.6368 40.3686C15.6253 40.2535 15.6638 40.2211 15.9624 40.0685C16.0747 40.0068 16.0688 39.992 15.836 39.8792C15.5353 39.7249 15.5297 39.6245 15.8252 39.5073C15.9434 39.4604 16.0265 39.3248 16.0476 39.1626C16.0598 39.0209 16.1518 38.8647 16.2404 38.8296C16.3143 38.8003 16.3943 38.7001 16.3915 38.65C16.3859 38.5496 16.4154 38.5379 16.4506 38.6265C16.524 38.7684 16.7841 38.6481 16.7196 38.4856C16.6903 38.4117 16.6225 38.3702 16.5634 38.3937C16.5191 38.4112 16.5372 38.2844 16.6322 38.0928C16.7361 37.8806 16.8072 37.8011 16.866 37.8632C16.9042 37.9165 16.9282 37.8044 16.9228 37.6184C16.9029 37.3527 16.9534 37.2643 17.107 37.2204C17.2754 37.1707 17.2932 37.1295 17.2167 37.023C17.1462 36.9313 17.1497 36.7247 17.233 36.5035C17.3491 36.1497 17.3581 36.129 17.6177 36.18C17.9333 36.2429 17.9659 36.1957 17.8461 35.7644C17.7585 35.4572 17.6701 35.4068 17.466 35.539C17.4365 35.5507 17.3952 35.5329 17.3717 35.4738C17.3483 35.4147 17.4015 35.3765 17.4665 35.3678C17.5373 35.3739 17.629 35.3033 17.6647 35.2208C17.7093 35.1176 17.7536 35.1 17.8774 35.1535C18.0838 35.2427 18.3291 35.1283 18.3502 34.966C18.3711 34.8893 18.3245 34.6855 18.2689 34.5023C18.1079 34.0532 18.1079 34.0532 18.2704 33.9887C18.3738 33.9477 18.4062 33.9862 18.4177 34.1013C18.4113 34.2577 18.4408 34.246 18.53 34.0397C18.6428 33.8068 18.6347 33.5706 18.5279 33.7327C18.4953 33.7798 18.4304 33.7885 18.3832 33.7559C18.3361 33.7233 18.4339 33.5819 18.5671 33.4435C18.7862 33.2198 18.8453 33.1964 18.9307 33.2822C19.1131 33.4835 19.214 33.3067 19.0494 33.0641C18.9553 32.9133 18.9174 32.7745 18.9708 32.6507C19.06 32.4443 19.0427 32.3144 18.9538 32.4352C18.9212 32.4823 18.8356 32.482 18.7826 32.4347C18.7148 32.3931 18.7622 32.3402 18.901 32.3022C19.2526 32.1969 19.291 32.1646 19.5108 31.6841C19.6772 31.3274 19.7482 31.2479 19.8868 31.2955C20.0196 31.3284 20.0343 31.3225 19.9757 31.1748C19.9347 31.0713 19.9586 30.9593 19.9912 30.9121C20.0682 30.8474 20.0506 30.8031 19.9003 30.7259C19.6616 30.5983 19.712 30.5099 20.1346 30.3251C20.4686 30.1756 20.5486 30.0754 20.3244 30.0276C20.0854 29.9856 20.1567 29.8205 20.4461 29.7741C20.7355 29.7277 20.7355 29.7277 20.577 29.4143C20.4186 29.101 20.4186 29.101 20.7614 28.9308C20.9477 28.8398 21.2017 28.7904 21.2931 28.8054C21.4554 28.8265 21.5234 28.7825 21.6187 28.5053C21.6841 28.3254 21.8056 28.1575 21.8795 28.1282C21.9534 28.0989 21.9832 28.0016 21.948 27.9129C21.8894 27.7652 22.071 27.2314 22.204 27.1787C22.2335 27.167 22.2865 27.2144 22.3158 27.2882C22.3451 27.3621 22.3981 27.4095 22.4572 27.386C22.5606 27.345 22.5168 27.1914 22.3899 27.1733C22.3339 27.1614 22.2338 27.0814 22.178 26.9838C22.0692 26.8389 22.0839 26.833 22.3346 26.9046C22.4821 26.9316 22.6118 26.9998 22.6294 27.0441C22.6411 27.0737 22.7415 27.0681 22.8449 27.0271C22.9927 26.9684 23.0046 26.9124 22.9224 26.7911C22.8342 26.6551 22.8431 26.6345 23.038 26.6085C23.2181 26.5883 23.2507 26.5412 23.2097 26.4378C23.1804 26.3639 23.2102 26.2666 23.2693 26.2431C23.3432 26.2138 23.3523 26.1076 23.3113 26.0042C23.2145 25.8032 23.2677 25.7649 23.6101 25.7659C23.7813 25.7664 23.7696 25.7369 23.6549 25.5772C23.5196 25.4085 23.5196 25.4085 23.6936 25.4592C23.9502 25.5455 24.1104 25.2597 23.9606 25.0113C23.89 24.9196 23.8727 24.7897 23.9083 24.7071C24.0359 24.4684 24.3969 24.1713 24.5918 24.1453C24.7365 24.1221 24.8519 24.0251 24.9469 23.8335C25.0241 23.6832 25.1456 23.5153 25.2194 23.486C25.2933 23.4567 25.332 23.3387 25.3058 23.2294L25.2533 23.0108L25.6367 23.1152C25.9641 23.2077 26.029 23.199 26.0914 23.0546C26.1212 22.9573 26.095 22.848 26.0626 22.8095C26.0155 22.7769 26.0068 22.7119 26.0394 22.6648C26.072 22.6177 26.1487 22.6385 26.2017 22.6859C26.3311 22.8398 26.5561 22.6309 26.4682 22.4092C26.4271 22.3058 26.4628 22.2233 26.581 22.1764C26.6844 22.1354 26.7407 22.0617 26.7173 22.0026C26.6938 21.9435 26.7175 21.917 26.7647 21.9496C26.8207 21.9616 26.8854 22.0385 26.903 22.0829C26.9264 22.142 27.009 22.1776 27.065 22.1896C27.1448 22.1751 27.1598 22.0836 27.0895 21.9063C26.9605 21.5812 27.0051 21.478 27.241 21.5555C27.3944 21.5972 27.3885 21.5825 27.2739 21.4227C27.0856 21.2067 27.2629 21.1364 27.5014 21.3496C27.6015 21.4296 27.6868 21.5154 27.6927 21.5302C27.6509 21.6836 27.7485 21.6278 27.8435 21.4362C27.9118 21.3065 28.0893 21.1506 28.2518 21.0861C28.503 20.9865 28.5209 20.9452 28.4034 20.7353C28.3124 20.5491 28.3244 20.493 28.4722 20.4344C28.5756 20.3934 28.667 20.4084 28.6846 20.4527C28.7491 20.6153 28.971 20.4418 29.0514 20.1704C29.1469 19.8077 29.354 19.64 29.4835 19.7939C29.5895 19.8886 29.6042 19.8828 29.714 19.6853C29.8149 19.5085 29.8623 19.4555 29.9713 19.5149C30.1777 19.604 30.5412 19.4427 30.4737 19.3156C30.3445 19.0761 30.3595 18.9847 30.5783 18.8466C30.7144 18.7584 30.8741 18.6438 30.9362 18.5849C31.0369 18.4937 31.1283 18.5087 31.2313 18.6389C31.3225 18.7395 31.3844 18.7662 31.3609 18.7071C31.3523 18.6422 31.3642 18.5861 31.4203 18.5981C31.7005 18.6579 32.2342 17.8478 32.0339 17.6878C31.9603 17.6315 31.9781 17.5902 32.1434 17.576C32.4683 17.5326 32.5956 17.3795 32.5019 17.1431C32.4432 16.9953 32.4552 16.9393 32.5704 16.9278C32.7416 16.9283 32.9148 17.2358 32.7523 17.3002C32.6784 17.3295 32.696 17.3739 32.8198 17.4274C32.9347 17.5015 33.0086 17.4722 33.0679 17.3631C33.1036 17.2806 33.1864 17.2307 33.2366 17.2279C33.2779 17.2457 33.3606 17.1957 33.4169 17.1221C33.4969 17.022 33.4911 17.0072 33.4024 17.0424C33.3433 17.0658 33.302 17.048 33.3081 16.9772C33.3201 16.9211 33.4355 16.824 33.598 16.7596C33.7458 16.701 33.8375 16.6304 33.8141 16.5713C33.7965 16.527 33.8528 16.4533 33.9562 16.4123C34.0596 16.3713 34.1011 16.3035 34.0629 16.2503C34.0247 16.197 34.0456 16.1203 34.1077 16.0615C34.1699 16.0026 34.2023 16.0411 34.2079 16.1415C34.2046 16.2625 34.2665 16.2892 34.4438 16.2189C34.562 16.172 34.6919 16.1547 34.7154 16.2138C34.7564 16.3172 34.9958 16.188 35.1173 16.0201C35.1589 15.9524 35.1769 15.8255 35.1418 15.7368C35.1125 15.663 35.1071 15.477 35.1458 15.359C35.1876 15.2057 35.2171 15.1939 35.2227 15.2943C35.2251 15.5157 35.5583 15.6229 35.6031 15.4341C35.627 15.322 35.6477 15.331 35.733 15.4168C35.8184 15.5026 35.8833 15.494 36.0372 15.3645C36.1911 15.2351 36.1883 15.1849 36.0614 15.1669C35.9287 15.134 35.9228 15.1192 36.0323 15.0074C36.0945 14.9485 36.2333 14.9105 36.3365 14.9551C36.4751 15.0027 36.4988 14.9763 36.446 14.8433C36.405 14.7398 36.4228 14.6986 36.4965 14.7549C36.5495 14.8022 36.6883 14.7643 36.8302 14.6909C36.9958 14.591 37.0225 14.5291 36.9311 14.5141C36.7127 14.481 37.0885 14.178 37.4991 14.0493C37.7414 13.9704 37.8479 13.8939 37.866 13.767C37.8812 13.59 37.896 13.5841 38.0137 13.7084C38.0784 13.7854 38.2142 13.7828 38.3561 13.7094C38.498 13.636 38.6486 13.6276 38.7428 13.6928C38.899 13.7848 38.9079 13.7641 38.9675 13.5695C39.0212 13.3601 39.036 13.3542 39.1094 13.4961C39.1739 13.6586 39.3746 13.6474 39.3102 13.4849C39.2926 13.4406 39.3489 13.3669 39.4227 13.3376C39.5409 13.2907 39.5616 13.2997 39.4816 13.3998C39.4312 13.4882 39.434 13.5384 39.5196 13.5386C39.5756 13.5506 39.6762 13.4594 39.7297 13.3356C39.7832 13.2117 39.878 13.1058 39.934 13.1177C39.999 13.1091 40.1027 12.9824 40.1561 12.8586C40.2809 12.5697 40.5087 12.411 40.4134 12.6882C40.3538 12.8828 40.4922 13.016 40.6843 12.9398C40.7877 12.8988 40.779 12.8338 40.682 12.7185L40.5467 12.5498L40.8919 12.601C41.0896 12.6252 41.2488 12.6817 41.231 12.723C41.2279 12.7584 41.2926 12.8353 41.4017 12.8947C41.5461 12.9571 41.5963 12.9543 41.6704 12.8394C41.7061 12.7568 41.7889 12.7069 41.8095 12.7158C41.8508 12.7336 41.9366 12.6483 41.9901 12.5245C42.1297 12.2297 42.7622 11.9275 42.8384 12.1196C42.8677 12.1934 42.9503 12.2291 43.0389 12.1939C43.1276 12.1588 43.2308 12.2033 43.3072 12.3098C43.3778 12.4015 43.4751 12.4313 43.5225 12.3783C43.5846 12.3195 43.6465 12.3462 43.67 12.4053C43.6993 12.4792 43.7818 12.5149 43.8705 12.4797C43.9444 12.4504 43.9622 12.4091 43.9092 12.3617C43.8621 12.3291 43.9036 12.2614 43.9922 12.2262C44.0957 12.1852 44.2167 12.1885 44.2638 12.2211C44.3639 12.3011 44.6801 12.1928 44.704 12.0807C44.7012 12.0305 44.7129 12.06 44.7364 12.1191C44.745 12.1841 44.8069 12.2108 44.9015 12.1905C44.9901 12.1553 45.0166 12.179 44.9544 12.2378C44.9012 12.276 44.8951 12.3469 44.9422 12.3795C45.0689 12.4832 45.1695 12.3919 45.1376 12.1823C45.1029 11.9224 45.2566 11.8786 45.4892 12.077C45.5893 12.157 45.7455 12.249 45.8163 12.2551C45.9019 12.2553 45.9872 12.3412 46.0165 12.415C46.0576 12.5185 46.1373 12.5039 46.3679 12.3954C46.5925 12.2721 46.7135 12.2754 46.8845 12.3615L47.1232 12.4891L46.8519 12.4086C46.6573 12.349 46.6012 12.337 46.6422 12.4405C46.7067 12.603 47.766 12.73 47.8638 12.5886C47.9112 12.5356 48.0088 12.4798 48.1033 12.4594C48.1978 12.439 48.2599 12.3802 48.2424 12.3359C48.2189 12.2768 48.2457 12.2148 48.3048 12.1914C48.3786 12.1621 48.3904 12.1917 48.3427 12.3302C48.3129 12.4276 48.3333 12.5221 48.3657 12.5605C48.4128 12.5931 48.4067 12.664 48.3535 12.7022C48.3002 12.7404 48.2883 12.7965 48.3354 12.8291C48.3767 12.8469 48.4801 12.8059 48.5601 12.7057C48.6401 12.6056 48.7287 12.5704 48.7758 12.603C48.823 12.6357 48.8169 12.7065 48.7636 12.7447C48.6867 12.8094 48.7043 12.8537 48.8075 12.8983C48.9106 12.9429 48.9639 12.9047 49.0118 12.6805C49.0808 12.294 49.19 12.2677 49.3159 12.6282C49.3832 12.8409 49.4627 12.912 49.6074 12.8888C49.7521 12.8656 49.7699 12.8243 49.667 12.6942C49.5964 12.6025 49.5849 12.4873 49.6323 12.4343C49.7093 12.3696 49.7622 12.417 49.8119 12.5854C49.844 12.7094 49.8377 12.8659 49.7992 12.8982C49.6691 13.0011 49.931 13.2735 50.1083 13.2031C50.2265 13.1562 50.3266 13.2362 50.4706 13.4698C50.5763 13.6502 50.6584 13.857 50.6375 13.9337C50.6077 14.031 50.6372 14.0193 50.7055 13.8896C50.8122 13.7276 50.8565 13.71 51.1455 13.8348C51.346 13.9092 51.5347 13.954 51.5938 13.9306C51.6529 13.9071 51.7148 13.9339 51.7324 13.9782C51.7559 14.0373 51.7085 14.0903 51.6346 14.1196C51.5607 14.1489 51.5309 14.2462 51.5778 14.3644C51.6306 14.4974 51.598 14.5445 51.4976 14.5502C51.412 14.5499 51.3588 14.5881 51.3763 14.6325C51.3998 14.6916 51.4706 14.6977 51.5445 14.6684C51.6184 14.6391 51.7009 14.6747 51.7302 14.7486C51.7595 14.8225 51.8421 14.8581 51.9012 14.8347C52.0785 14.7644 52.3019 15.069 52.2423 15.2637C52.1947 15.4023 52.2271 15.4407 52.3481 15.444C52.4337 15.4443 52.5666 15.3915 52.6347 15.3474C52.7174 15.2975 52.8237 15.3067 52.8619 15.3599C52.9149 15.4073 52.8881 15.4692 52.8438 15.4868C52.7404 15.5278 52.5713 15.8343 52.6123 15.9377C52.624 15.9673 52.689 15.9586 52.7511 15.8997C52.8133 15.8409 52.8841 15.847 52.9134 15.9209C52.9427 15.9948 52.9218 16.0714 52.8627 16.0949C52.8036 16.1183 52.8182 16.1981 52.874 16.2956C52.9563 16.4169 52.9443 16.4729 52.8261 16.5198C52.7374 16.555 52.6605 16.6197 52.6692 16.6847C52.6717 16.8204 52.2407 16.8546 52.1821 16.7069C52.1528 16.633 52.0465 16.6238 51.9283 16.6707C51.7569 16.7558 51.7421 16.7617 51.9309 16.8065C52.043 16.8304 52.1696 16.9341 52.19 17.0286C52.231 17.1321 52.2073 17.1586 52.1544 17.1112C52.0366 16.9869 51.8002 17.0806 51.853 17.2136C51.8764 17.2727 51.7936 17.3227 51.6548 17.3606C51.4953 17.3897 51.4273 17.4338 51.4625 17.5224C51.4918 17.5963 51.4503 17.6641 51.3616 17.6992C51.2729 17.7344 51.22 17.687 51.2054 17.6073C51.2148 17.4154 51.1086 17.4063 50.863 17.6063C50.6796 17.7474 50.6648 17.7533 50.8776 17.686L51.0903 17.6187L50.9418 17.9342C50.8022 18.2289 50.7727 18.2406 50.6106 18.1339C50.4486 18.0272 50.4397 18.0478 50.5159 18.2399C50.5745 18.3877 50.5329 18.4554 50.3409 18.5316C50.2079 18.5844 50.0688 18.7079 50.0184 18.7963C49.9679 18.8847 49.9384 18.8965 49.9503 18.8404C49.9656 18.6634 49.6291 18.6771 49.6138 18.8542C49.5929 18.9309 49.6429 19.0137 49.7048 19.0404C49.7873 19.0761 49.7929 19.1765 49.7395 19.3003C49.6383 19.5627 49.1421 19.6911 48.8799 19.5044C48.6295 19.3473 48.5228 19.5093 48.7347 19.6988C48.8614 19.8025 48.8731 19.832 48.7816 19.817C48.6902 19.802 48.6988 19.867 48.8018 19.9971C48.8899 20.1332 48.9103 20.2277 48.8512 20.2511C48.7921 20.2746 48.7243 20.233 48.695 20.1592C48.6306 19.9966 48.5862 20.0142 48.4026 20.241C48.2841 20.3734 48.225 20.3969 48.119 20.3021C48.0454 20.2458 47.9539 20.2308 47.9213 20.2779C47.874 20.3309 47.9387 20.4079 48.0684 20.4761C48.1774 20.5355 48.2363 20.5976 48.1919 20.6152C48.1328 20.6387 48.0503 20.603 48.0179 20.5645C47.9591 20.5024 47.9147 20.52 47.888 20.5819C47.8819 20.6527 47.7902 20.7233 47.7163 20.7526C47.6424 20.7819 47.6274 20.8733 47.6684 20.9768C47.7301 21.0891 47.6914 21.2071 47.5729 21.3396C47.4782 21.4455 47.3954 21.4955 47.3778 21.4512C47.3602 21.4068 47.4196 21.2978 47.5054 21.2124C47.6682 21.0624 47.6328 21.0593 47.3785 21.1944C47.0504 21.3587 46.9259 21.562 47.1088 21.5921C47.3478 21.6341 47.3412 21.8761 47.0775 22.203C46.9265 22.3826 46.7843 22.5416 46.7252 22.565C46.6809 22.5826 46.5385 22.8272 46.4226 23.0955C46.2265 23.5495 46.185 23.6172 45.8128 23.7136C45.4465 23.8247 45.3308 24.0073 45.623 24.0111C45.7942 24.0116 45.5894 24.4007 45.3678 24.4886C45.2791 24.5237 45.2228 24.5974 45.2167 24.6682C45.2254 24.7331 45.11 24.8302 44.977 24.883C44.8056 24.9681 44.7552 25.0565 44.7929 25.2809C44.8276 25.5408 44.7023 26.0009 44.5841 26.0478C44.5545 26.0595 44.4365 26.0208 44.3481 25.9703C44.2539 25.9051 44.1831 25.899 44.2065 25.9581C44.2299 26.0172 44.3036 26.0735 44.3596 26.0855C44.5071 26.1125 44.4588 26.5079 44.2962 26.5723C44.2223 26.6016 44.1515 26.5955 44.1281 26.5364C44.1105 26.4921 44.0486 26.4654 43.9895 26.4888C43.9304 26.5122 43.9508 26.6068 44.0124 26.7191C44.1006 26.8551 44.0825 26.982 43.9964 27.1529C43.9193 27.3033 43.8892 27.4862 43.9244 27.5748C43.9888 27.7374 43.9888 27.7374 43.812 27.6365C43.5881 27.503 43.4016 27.6796 43.5723 27.8513C43.6488 27.9578 43.6488 27.9578 43.5102 27.9101C43.2949 27.8416 43.2972 28.063 43.5092 28.2525C43.6417 28.371 43.6328 28.3916 43.3788 28.4411C43.175 28.4877 43.1217 28.5259 43.1864 28.6029C43.2394 28.6502 43.2214 28.7771 43.1414 28.8772C43.0288 29.0245 43.0492 29.119 43.1901 29.388C43.3134 29.6127 43.3397 29.722 43.2658 29.7513C43.1919 29.7806 43.1478 29.7126 43.1277 29.5325C43.0928 29.3582 43.0693 29.2991 43.0337 29.3817C43.0128 29.4583 43.0092 29.665 43.0441 29.8392C43.0791 30.0135 43.0903 30.2142 43.0636 30.2761C42.9922 30.4412 42.7917 30.3668 42.7805 30.1661C42.7808 30.0805 42.7451 30.163 42.6914 30.3724C42.5898 30.806 42.7928 31.0162 42.9385 30.6506C43.0544 30.3823 43.0689 30.4621 43.0086 30.9135C42.9696 31.1171 42.9898 31.2972 43.031 31.315C43.0723 31.3328 43.0397 31.38 42.9658 31.4093C42.892 31.4386 42.7946 31.4088 42.7475 31.3762C42.7093 31.3229 42.6385 31.3168 42.6206 31.3581C42.6028 31.3994 42.6586 31.4969 42.7322 31.5532C42.8382 31.648 42.8851 31.7662 42.8668 31.9787C42.8457 32.141 42.8599 32.3063 42.8717 32.3358C42.8982 32.3595 42.9155 32.4895 42.9063 32.5957C42.9119 32.6961 42.9736 32.8084 43.062 32.8588C43.1975 32.9419 43.1886 32.9625 43.0172 33.0476C42.9048 33.1093 42.7571 33.1679 42.6921 33.1766C42.5385 33.2204 42.6178 33.3771 42.8448 33.4751C42.9479 33.5197 43.095 33.7179 43.1887 33.9543C43.3001 34.235 43.3707 34.3267 43.4741 34.2857C43.6366 34.2212 43.7452 34.4518 43.5913 34.5812C43.4433 34.7254 43.693 35.1394 44.0642 35.3854C44.2262 35.4922 44.3498 35.6312 44.3289 35.7079C44.3287 35.7935 44.2785 35.7963 44.1901 35.7459C44.09 35.6659 44.0811 35.6866 44.0688 35.8282C44.0686 35.9138 44.1361 36.0409 44.2245 36.0913C44.3129 36.1418 44.3863 36.2837 44.4184 36.4077C44.4646 36.7827 44.6883 37.0018 44.8717 36.8607C45.0255 36.7312 45.1374 36.8408 45.0159 37.0087C44.9685 37.0616 45.0006 37.1857 45.086 37.2716C45.2653 37.5082 45.3007 37.5113 45.3958 37.3197C45.5234 37.081 45.771 37.1879 46.0001 37.593C46.1292 37.8324 46.2442 37.9066 46.3476 37.8655C46.5898 37.7865 47.0173 37.959 47.0492 38.1686C47.0959 38.3724 47.4581 38.6391 47.5205 38.4947C47.5384 38.4534 47.4943 38.3854 47.4087 38.3851C47.2966 38.3612 47.2701 38.3375 47.3353 38.2432C47.3916 38.1696 47.492 38.164 47.5862 38.2292C47.6864 38.3092 47.7809 38.2888 47.8461 38.1945C47.9824 38.0208 48.0562 37.9915 48.1149 38.1392C48.1383 38.1983 48.2384 38.2783 48.3416 38.3229C48.4389 38.3527 48.5243 38.4385 48.5329 38.5035C48.5416 38.5685 48.6272 38.5687 48.7632 38.4805C48.8904 38.413 49.0498 38.384 49.0822 38.4224C49.1352 38.4698 49.138 38.52 49.0937 38.5376C49.0346 38.561 49.0078 38.6229 49.0254 38.6673C49.084 38.815 49.3028 38.6769 49.3033 38.5057C49.3036 38.4201 49.3688 38.3258 49.4427 38.2965C49.5313 38.2614 49.5785 38.294 49.5988 38.3885C49.5986 38.4741 49.6427 38.5421 49.6987 38.5541C49.7548 38.5661 49.7757 38.4894 49.7435 38.3653C49.7086 38.1911 49.756 38.1381 50.1845 37.9681C50.4594 37.842 50.7223 37.7719 50.7725 37.7691C50.8639 37.7841 50.9378 37.7548 51.2363 37.6022C51.2896 37.5639 51.3252 37.4814 51.2959 37.4075C51.2666 37.3336 51.2875 37.257 51.3466 37.2335C51.4057 37.2101 51.4439 37.2633 51.4526 37.3283C51.4542 37.8065 51.4542 37.8065 51.6315 37.7361C51.8236 37.6599 51.9305 37.4123 51.7385 37.4885C51.6646 37.5178 51.6766 37.4618 51.7565 37.3616C51.8454 37.2409 51.9489 37.1998 52.1407 37.2092C52.5391 37.2222 52.6604 37.1399 52.5666 36.9035C52.467 36.6523 52.6328 36.4668 52.9161 36.4913C53.1994 36.5157 53.3118 36.454 53.259 36.3211C53.2356 36.262 53.3038 36.1323 53.4162 36.0706C53.5226 35.9942 53.6319 35.9679 53.6495 36.0122C53.6671 36.0566 53.7084 36.0744 53.7675 36.051C53.8118 36.0334 53.8092 35.8976 53.7506 35.7498C53.692 35.6021 53.6747 35.4722 53.7338 35.4487C53.7781 35.4311 53.84 35.4579 53.8576 35.5022C53.8811 35.5613 53.9371 35.5733 53.9962 35.5498C54.0553 35.5264 54.0408 35.4467 53.985 35.3491C53.8645 35.1746 53.9745 34.8915 54.1368 34.9127C54.2076 34.9188 54.2428 35.0074 54.2484 35.1078C54.2507 35.3292 54.4371 35.1526 54.4881 34.893C54.5662 34.4003 54.6404 34.2854 54.8972 34.2861C55.0329 34.2836 55.1629 34.2663 55.1776 34.2604C55.1924 34.2545 55.1397 34.1216 55.0811 33.9738C54.9667 33.7285 54.9786 33.6724 55.1618 33.6169C55.2859 33.5848 55.3628 33.5201 55.3452 33.4757C55.3218 33.4166 55.2805 33.3988 55.2214 33.4222C55.0736 33.4808 55.1335 33.2006 55.3289 33.0034C55.4621 32.8651 55.5803 32.8182 55.7219 32.8304C55.8636 32.8426 55.9079 32.825 55.8786 32.7511C55.861 32.7068 55.9025 32.639 55.9764 32.6097C56.1833 32.5277 56.1427 32.2531 55.9127 32.1904C55.7652 32.1634 55.727 32.1102 55.7832 32.0366C55.8306 31.9836 55.7985 31.8595 55.7486 31.7767C55.6309 31.6524 55.6546 31.6259 56.0708 31.5976C56.3218 31.5835 56.5256 31.5369 56.5138 31.5074C56.5169 31.4719 56.47 31.3537 56.4496 31.2592C56.4175 31.1352 56.4443 31.0733 56.5683 31.0411C56.6982 31.0238 56.7102 30.9678 56.6307 30.8967C56.5719 30.8345 56.4806 30.7339 56.4218 30.6718C56.3629 30.6096 56.3869 30.4975 56.461 30.3826C56.5647 30.256 56.6238 30.2325 56.6531 30.3064C56.6765 30.3655 56.7119 30.3686 56.7504 30.3362C56.7682 30.2949 56.7333 30.1207 56.6688 29.9582C56.5896 29.8015 56.546 29.5623 56.5699 29.4502C56.6295 29.2555 56.6443 29.2497 56.9541 29.2978C57.3141 29.3431 57.3704 29.2695 57.043 29.177C56.8838 29.1205 56.8573 29.0968 56.9314 28.9819C56.9966 28.8876 57.1 28.8466 57.2328 28.8795C57.4098 28.8947 57.4246 28.8889 57.31 28.7292C57.2394 28.6374 57.219 28.5429 57.2633 28.5254C57.3076 28.5078 57.2814 28.3985 57.205 28.292C57.0962 28.1471 57.1023 28.0762 57.2057 28.0352C57.2796 28.0059 57.33 27.9175 57.3007 27.8436C57.2714 27.7697 57.2775 27.6989 57.3366 27.6755C57.3809 27.6579 57.4281 27.6905 57.4367 27.7555C57.4454 27.8204 57.5132 27.8619 57.5988 27.8622C57.6991 27.8566 57.7022 27.8212 57.6316 27.7295C57.5669 27.6525 57.5819 27.5611 57.6736 27.4905C57.8807 27.3228 57.7401 26.9682 57.5123 27.127C57.3289 27.2681 57.2349 27.1173 57.4035 26.982C57.4657 26.9232 57.4896 26.8111 57.4486 26.7076C57.3724 26.5156 57.648 26.1326 57.7716 26.2717C57.8893 26.396 57.9754 26.2251 57.8992 26.033C57.864 25.9443 57.8732 25.8381 57.9264 25.7999C57.9886 25.741 57.9094 25.5844 57.6772 25.2147C57.4245 24.8362 57.36 24.6737 57.4046 24.5705C57.4492 24.4673 57.5289 24.4528 57.7088 24.5182C57.9653 24.6046 58.0483 24.469 57.8659 24.2678C57.8071 24.2056 57.7925 24.1259 57.8516 24.1025C57.9107 24.079 57.9375 24.0171 57.914 23.958C57.8906 23.8989 57.8256 23.9076 57.7576 23.9516C57.6955 24.0105 57.6157 24.025 57.5686 23.9924C57.5215 23.9598 57.5867 23.8656 57.7227 23.7774C57.9031 23.6717 57.9892 23.5007 58.0075 23.2882C58.0352 22.8839 58.0411 22.8987 57.8342 22.9808C57.716 23.0276 57.6541 23.0009 57.6633 22.8947C57.6635 22.8091 57.7287 22.7148 57.8174 22.6796C57.9799 22.6152 58.0874 22.1963 57.9725 22.1222C57.9253 22.0896 57.911 21.9243 57.9322 21.762C57.9566 21.4787 57.9449 21.4491 57.765 21.3837C57.6471 21.345 57.497 21.1822 57.4178 21.0255C57.2916 20.7507 57.3064 20.7448 57.6195 20.6719C57.9532 20.6079 57.968 20.6021 57.7945 20.3802C57.7063 20.2442 57.5917 20.0844 57.5328 20.0223C57.4564 19.9158 57.4948 19.8834 57.6839 19.8427C57.9526 19.7874 57.9383 19.622 57.664 19.577C57.4663 19.5528 57.4492 19.3373 57.656 19.2552C57.8186 19.1907 57.76 19.043 57.5592 19.0542C57.3585 19.0654 57.2033 18.6311 57.3044 18.3687C57.349 18.2655 57.3701 18.1032 57.3556 18.0235C57.3469 17.9585 57.3385 17.808 57.3476 17.7017C57.3479 17.6161 57.2951 17.4831 57.2126 17.4475C57.0358 17.3466 56.9948 17.2432 57.0691 17.0427C57.0931 16.9306 57.0844 16.8656 56.9988 16.8654C56.8661 16.8325 56.8319 16.4015 56.9649 16.3487C57.024 16.3253 57.1626 16.3729 57.2981 16.456L57.5279 16.6042L57.9806 16.2365C58.2261 16.0365 58.4834 15.8661 58.5247 15.8839C58.5807 15.8959 58.6223 15.8281 58.6195 15.7779C58.6138 15.6776 58.6434 15.6658 58.7524 15.7252C58.8467 15.7904 58.891 15.7728 58.9328 15.6194C58.9924 15.4248 59.013 15.4337 59.1751 15.5404C59.3312 15.6324 59.3814 15.6296 59.494 15.4823C59.6718 15.2408 59.9197 15.2622 60.096 15.5342C60.2224 15.7235 60.2637 15.7413 60.3615 15.5999C60.4415 15.4998 60.4595 15.3729 60.4361 15.3138C60.4009 15.2252 60.4453 15.2076 60.6223 15.2229C60.7492 15.241 60.888 15.203 60.9413 15.1648C61.0034 15.1059 61.089 15.1062 61.1272 15.1594C61.2009 15.2157 61.2156 15.2098 61.2365 15.1331C61.2459 14.9413 61.6237 14.9454 61.6999 15.1374C61.7585 15.2852 61.7939 15.2882 61.8622 15.1586C61.9661 14.9463 62.1608 15.0059 62.2663 15.2719C62.3307 15.4344 62.3779 15.467 62.4785 15.3758C62.5406 15.317 62.6352 15.2966 62.6971 15.3233C62.7501 15.3707 62.7946 15.2675 62.8216 15.12C62.843 14.8721 62.8254 14.8278 62.6927 14.7949C62.5599 14.7621 62.5599 14.7621 62.7105 14.7537C62.8109 14.7481 62.9556 14.7249 63.0295 14.6956C63.1329 14.6545 63.1711 14.7078 63.1737 14.8436C63.188 15.0089 63.2292 15.0267 63.3918 14.9623C63.51 14.9154 63.6605 14.9069 63.7431 14.9426C63.9494 15.0317 64.5519 14.9125 64.6143 14.768C64.65 14.6855 64.7091 14.662 64.7651 14.674C64.8064 14.6918 64.8209 14.7716 64.7735 14.8246C64.7083 14.9188 64.7318 14.9779 64.9055 15.1142C65.0793 15.2505 65.1353 15.2624 65.1888 15.1386C65.2691 14.9529 65.5136 15.0953 65.5542 15.3699C65.5687 15.4497 65.6128 15.5177 65.6571 15.5001C65.7014 15.4825 65.7017 15.3969 65.6607 15.2935C65.5786 15.0866 65.7146 14.9985 65.9001 15.1643C66.0209 15.2532 66.0652 15.2356 66.1926 15.0825C66.2873 14.9765 66.3849 14.9207 66.4203 14.9238C66.4616 14.9416 66.4348 15.0035 66.3579 15.0682C66.2957 15.1271 66.2629 15.2598 66.3039 15.3632C66.3625 15.511 66.3979 15.514 66.4662 15.3843C66.5492 15.2488 66.5699 15.2577 66.6285 15.4055C66.6871 15.5532 66.7284 15.5711 66.829 15.4799C66.9059 15.4151 66.9413 15.4182 66.9294 15.4742C66.9233 15.5451 66.9762 15.5924 67.0618 15.5927C67.1976 15.5901 67.2094 15.6197 67.1676 15.773C67.108 15.9677 67.2527 15.9445 67.3271 15.744C67.4251 15.517 67.7291 15.5503 67.7431 15.8013C67.7515 15.9518 67.8193 15.9933 68.0053 15.988C68.3624 15.9831 68.4888 16.1724 68.2845 16.3902C68.0417 16.6404 68.1299 16.7764 68.455 16.6475C68.6027 16.5889 68.7179 16.5774 68.6911 16.6393C68.685 16.7102 68.7734 16.7606 68.8707 16.7904C69.0537 16.8204 69.0537 16.8204 68.8853 16.8701C68.7612 16.9022 68.7049 16.9759 68.7487 17.1295C68.7867 17.2683 68.8397 17.3157 68.9284 17.2805C69.0022 17.2512 69.0996 17.281 69.123 17.3401C69.1464 17.3992 69.2466 17.4792 69.3202 17.5355C69.4027 17.5712 69.4912 17.6216 69.5029 17.6512C69.5294 17.6748 69.6529 17.8139 69.8061 17.9413C69.9533 18.0539 70.0356 18.1751 69.9765 18.1986C69.9322 18.2162 69.8644 18.1746 69.8351 18.1008C69.8058 18.0269 69.7085 17.9971 69.6051 18.0381C69.5016 18.0791 69.4453 18.1528 69.4629 18.1971C69.4864 18.2562 69.5572 18.2623 69.6458 18.2271C69.7493 18.1861 69.8023 18.2335 69.8196 18.3634C69.8428 18.5081 69.8899 18.5407 70.0081 18.4938C70.0968 18.4587 70.2237 18.4768 70.2736 18.5595C70.4295 18.7371 70.4412 18.7666 70.2464 18.7926C70.081 18.8069 70.0897 18.8719 70.2362 19.2413C70.3623 19.5161 70.477 19.6759 70.5891 19.6998C70.7218 19.7327 70.7277 19.7474 70.6182 19.8593C70.5028 19.9564 70.5173 20.0361 70.6906 20.3436C70.8315 20.6126 70.8753 20.7662 70.8483 20.9137C70.7828 21.0936 70.8035 21.1025 71.0312 20.9437C71.25 20.8056 71.315 20.797 71.4297 20.9567C71.5708 21.1401 71.4847 21.3111 71.2335 21.4107C71.1153 21.4576 71.1123 21.493 71.2537 21.5908C71.3803 21.6945 71.4096 21.7684 71.362 21.907C71.3054 22.0662 71.3319 22.0899 71.4945 22.0254C71.5979 21.9844 71.7041 21.9935 71.7276 22.0526C71.7452 22.097 71.7067 22.1293 71.6506 22.1174C71.5798 22.1112 71.5383 22.179 71.5439 22.2794C71.5495 22.3798 71.5078 22.5331 71.478 22.6305C71.4156 22.7749 71.4331 22.8192 71.5982 22.8905C71.7073 22.9499 71.8074 23.0299 71.8308 23.089C71.8543 23.1481 71.9221 23.1896 71.987 23.1809C72.0578 23.187 72.0576 23.2726 71.9921 23.4525C71.8941 23.6795 71.9086 23.7592 72.0352 23.8629C72.1412 23.9577 72.1705 24.0316 72.1023 24.1612C72.0281 24.2761 71.9986 24.2879 71.9751 24.2288C71.9165 24.081 71.7805 24.1692 71.7859 24.3551C71.7856 24.4407 71.8532 24.5678 71.9357 24.6035C72.1125 24.7044 72.0825 24.8873 71.8904 24.9635C71.7633 25.031 71.7633 25.031 71.952 25.0758C72.0906 25.1235 72.1436 25.1708 72.0873 25.2445C72.031 25.3181 72.0751 25.3861 72.2017 25.4898C72.3225 25.5787 72.4224 25.7443 72.4573 25.9185C72.4922 26.0928 72.4713 26.1695 72.4036 26.1279C72.2887 26.0538 71.9664 26.2329 72.0133 26.3511C72.0309 26.3955 72.1252 26.4607 72.2283 26.5052C72.4347 26.5944 72.5111 26.7009 72.3636 26.6739C72.3076 26.6619 72.2543 26.7001 72.2335 26.7768C72.2215 26.8329 72.2538 26.8713 72.3129 26.8479C72.3721 26.8244 72.425 26.8718 72.4189 26.9426C72.4276 27.0076 72.3713 27.0812 72.3005 27.0751C72.1853 27.0866 72.0427 27.4168 71.9439 27.9006C71.9111 28.0333 71.8132 28.1747 71.7394 28.204C71.6566 28.254 71.7037 28.2866 71.9014 28.3107C72.0785 28.326 72.2112 28.3589 72.2229 28.3884C72.2346 28.418 72.1781 28.5772 72.1126 28.7571C72.0472 28.9369 71.9731 29.0518 71.9555 29.0075C71.9438 28.9779 71.8905 29.0162 71.8549 29.0987C71.8192 29.1813 71.8159 29.3023 71.863 29.3349C71.9866 29.474 71.6094 30.2905 71.3819 30.3636C71.3523 30.3753 71.2665 30.4607 71.1717 30.5667C70.7871 30.8903 71.1797 30.8884 71.7386 30.5299ZM50.549 37.4644C50.5314 37.4201 50.5582 37.3582 50.6173 37.3347C50.6616 37.3171 50.6939 37.3556 50.682 37.4117C50.6759 37.4825 50.6433 37.5296 50.6137 37.5413C50.5989 37.5472 50.5724 37.5235 50.549 37.4644ZM48.9009 36.8014C48.8538 36.7688 48.8747 36.6921 48.922 36.6391C49.1381 36.4509 48.9702 36.3294 48.7276 36.494C48.5384 36.6203 48.4676 36.6142 48.3705 36.4988C48.2999 36.4071 48.1231 36.3063 47.9993 36.2528C47.7575 36.1606 47.7427 36.1664 47.6979 36.3552C47.6411 36.6 47.4638 36.6704 47.3935 36.4931C47.3642 36.4192 47.3998 36.3366 47.4442 36.3191C47.518 36.2897 47.5063 36.2602 47.3942 36.2363C47.3028 36.2212 47.2556 36.1886 47.3 36.1711C47.4034 36.13 46.9787 36.0078 46.8694 36.034C46.8399 36.0458 46.8337 36.1166 46.8631 36.1905C46.9041 36.2939 46.8804 36.3204 46.6531 36.3079C46.4613 36.2985 46.367 36.2333 46.2909 36.0412C46.2322 35.8935 46.2266 35.7931 46.2975 35.7992C46.3535 35.8112 46.392 35.7788 46.3744 35.7345C46.3568 35.6902 46.2034 35.6484 46.0322 35.6479C45.861 35.6474 45.7018 35.5909 45.6725 35.517C45.6432 35.4431 45.661 35.4018 45.7171 35.4138C45.7525 35.4169 45.7792 35.355 45.7499 35.2811C45.7206 35.2072 45.674 35.0034 45.6449 34.8439C45.6278 34.6284 45.5955 34.5899 45.5626 34.7227C45.5387 34.8348 45.515 34.8613 45.4857 34.7874C45.4212 34.6249 45.4156 34.5245 45.4954 34.5099C45.5308 34.513 45.4752 34.3298 45.3725 34.1141C45.2082 33.786 45.2054 33.7358 45.3294 33.7037C45.4239 33.6833 45.4802 33.6096 45.4746 33.5093C45.4484 33.4 45.3806 33.3585 45.3067 33.3878C45.2329 33.4171 45.1473 33.4168 45.1238 33.3577C45.1062 33.3134 45.1182 33.2573 45.1625 33.2398C45.2068 33.2222 45.228 33.0599 45.1989 32.9004C45.112 32.3364 45.2819 31.7731 45.5835 31.5851C45.8555 31.4088 45.8497 31.394 45.6797 30.9655C45.5449 30.6257 45.5217 30.481 45.6287 30.2333C45.6942 30.0535 45.8422 29.9093 45.9308 29.8741C46.0549 29.842 46.1112 29.7683 46.0819 29.6945C46.0526 29.6206 46.0204 29.4965 45.9853 29.4079C45.9708 29.3281 46.0186 29.1039 46.1078 28.8976C46.3396 28.361 46.4137 28.2461 46.5495 28.2436C46.6144 28.2349 46.647 28.1878 46.6236 28.1287C46.565 27.9809 46.7731 27.4709 46.906 27.4181C46.9651 27.3947 47.0128 27.2561 47.0191 27.0997C47.0285 26.9078 47.0848 26.8342 47.2354 26.8258C47.4214 26.8204 47.484 26.5904 47.3816 26.289C47.3026 26.0467 47.6324 25.2832 47.8897 25.1127C48.0553 25.0129 48.1118 24.8536 48.1243 24.6264C48.1189 24.4404 48.1607 24.287 48.2109 24.2842C48.2521 24.3021 48.3084 24.2284 48.3382 24.1311C48.4246 23.8746 48.5102 23.8748 48.7425 24.1588L48.9425 24.4044L48.8577 24.1474C48.7494 23.8312 48.8597 23.4626 49.0961 23.3688C49.1995 23.3278 49.2619 23.1833 49.2593 23.0475C49.2545 22.6904 49.4287 22.6555 49.5133 22.9981C49.5572 23.1517 49.6188 23.2641 49.6631 23.2465C49.7075 23.2289 49.7077 23.1433 49.6667 23.0399C49.6257 22.9364 49.6437 22.8096 49.7059 22.7507C49.7681 22.6919 49.7744 22.5354 49.7364 22.3966C49.6544 22.1897 49.6692 22.1839 49.7869 22.3082C49.9046 22.4325 49.9194 22.4266 49.8725 22.3084C49.8169 22.1253 50.0036 21.8631 50.2102 21.8667C50.2958 21.8669 50.3137 21.8256 50.2459 21.7841C50.1929 21.7367 50.2021 21.6305 50.2879 21.5451C50.4805 21.2978 50.6104 21.2804 50.6069 21.487C50.6183 21.6022 50.6509 21.555 50.7401 21.3487C50.8114 21.1836 50.8532 21.0302 50.8473 21.0155C50.7917 20.8323 50.928 20.6585 51.1672 20.6149C51.3267 20.5859 51.4243 20.5301 51.4126 20.5005C51.3185 20.3497 51.3336 20.2583 51.4543 20.3472C51.5545 20.4271 51.6077 20.3889 51.7381 20.2004C51.827 20.0796 51.9276 19.9884 51.9689 20.0063C52.0102 20.0241 52.0606 19.9357 52.0728 19.794C52.0909 19.6672 52.1266 19.5846 52.162 19.5877C52.2032 19.6055 52.2713 19.5614 52.3217 19.473C52.3989 19.3227 52.807 19.0582 53.2355 18.8883C53.3832 18.8296 53.401 18.7884 53.2979 18.7438C53.0915 18.6547 53.0683 18.51 53.2688 18.5843C53.4074 18.632 53.4459 18.5996 53.4492 18.4786C53.441 18.2424 53.6152 18.2075 53.653 18.4319C53.6759 18.6622 53.7556 18.6477 53.9069 18.3825C53.9663 18.2735 53.9755 18.1672 53.9166 18.1051C53.8636 18.0577 53.9609 18.0875 54.1319 18.1736C54.3087 18.2744 54.527 18.3075 54.6215 18.2872C54.7456 18.255 54.7986 18.3024 54.8748 18.4945C54.9186 18.6481 54.9181 18.8193 54.8707 18.8723C54.8292 18.9401 54.8287 19.1113 54.8815 19.2443C55.0395 19.7288 55.0268 20.0416 54.879 20.1002C54.6426 20.194 54.8921 20.6936 55.278 20.9338C55.6227 21.1561 55.7109 21.2922 55.4691 21.2C55.3512 21.1613 55.2979 21.1995 55.2353 21.4295C55.1787 21.5888 55.1046 21.7037 55.0486 21.6917C54.9925 21.6797 55.0071 21.7595 55.0539 21.8777C55.1773 22.1023 55.1617 22.365 55.0496 22.3411C55.0142 22.338 54.9697 22.4412 54.9575 22.5828C54.948 22.7747 54.9656 22.819 55.0543 22.7838C55.1134 22.7604 55.1638 22.672 55.1758 22.6159C55.1702 22.5156 55.1997 22.5038 55.3383 22.5515C55.4769 22.5991 55.468 22.6197 55.3646 22.6608C55.2907 22.6901 55.2135 22.8404 55.2072 22.9968C55.1919 23.1739 55.1562 23.2564 55.1032 23.209C55.0296 23.1527 54.9557 23.182 54.8994 23.2557C54.8194 23.3558 54.8814 23.3825 55.144 23.398L55.4864 23.399L55.2734 23.5519C55.1374 23.6401 55.0928 23.7432 55.1576 23.8202C55.2105 23.8676 55.2014 23.9738 55.1334 24.0179C55.0564 24.0826 55.0621 24.183 55.165 24.3131C55.2738 24.4581 55.2677 24.5289 55.1286 24.6525C54.96 24.7878 54.9806 24.7967 55.2346 24.7472C55.5535 24.6891 55.6534 24.8547 55.3579 24.9719C55.2397 25.0188 55.1893 25.1072 55.2423 25.1546C55.2922 25.2374 55.239 25.2756 55.0588 25.2957C54.7842 25.3363 54.7723 25.3923 55.0257 25.5141C55.2262 25.5884 55.2961 25.9369 55.1802 26.2052C55.1178 26.3497 55.1354 26.394 55.2416 26.4032C55.3537 26.4271 55.3713 26.4714 55.3089 26.6159C55.2582 26.7899 55.2434 26.7957 55.0282 26.7272C54.8218 26.6381 54.807 26.6439 54.901 26.7948C54.951 26.8775 55.0745 27.0166 55.1953 27.1055C55.3749 27.2566 55.3749 27.2566 55.1209 27.306C54.8759 27.3348 54.8817 27.3496 55.0613 27.5007C55.2733 27.6902 55.2524 27.7669 54.9422 27.89C54.7412 27.9868 54.7144 28.0487 54.7611 28.2525C54.799 28.3913 54.781 28.5182 54.6923 28.5534C54.6184 28.5827 54.5917 28.6446 54.6093 28.6889C54.6327 28.748 54.5909 28.9014 54.5285 29.0458C54.4216 29.2935 54.4274 29.3082 54.6162 29.3531C54.861 29.4098 54.7602 29.5867 54.4738 29.5976C54.3439 29.615 54.2876 29.6886 54.296 29.8392C54.3134 29.9691 54.3366 30.1138 54.3659 30.1877C54.4041 30.2409 54.333 30.3204 54.1853 30.379C53.9932 30.4552 53.9753 30.4965 54.0635 30.6325C54.1517 30.7685 54.1486 30.8039 54.0245 30.8361C53.7469 30.912 53.4213 31.2121 53.5125 31.3128C53.5714 31.3749 53.512 31.4839 53.3908 31.5662C53.2163 31.6868 53.2191 31.737 53.3337 31.8967C53.469 32.0653 53.4512 32.1066 53.2591 32.1828C53.067 32.259 53.0492 32.3002 53.1521 32.4304C53.2874 32.599 53.1868 32.6903 52.8623 32.648C52.6793 32.618 52.6763 32.6534 52.7759 32.9045L52.9166 33.2592L52.672 33.1168C52.3655 32.9476 52.2855 33.0478 52.5268 33.3112C52.6769 33.4739 52.6797 33.5241 52.5436 33.6123C52.4667 33.677 52.428 33.795 52.4632 33.8836C52.5628 34.1348 52.4828 34.2349 52.241 34.1427C51.9993 34.0505 51.875 34.1682 51.8859 34.4546C51.8913 34.6405 51.8707 34.6316 51.5522 34.5185C51.3723 34.4531 51.219 34.4113 51.2307 34.4409C51.2276 34.4763 51.257 34.5502 51.2656 34.6151C51.2743 34.6801 51.2328 34.7479 51.1324 34.7535C51.0083 34.7856 50.9964 34.8416 51.0843 35.0633C51.178 35.2997 51.1602 35.3409 51.0038 35.3346C50.6762 35.3277 50.3007 35.5451 50.2439 35.7899C50.2258 35.9168 50.1517 36.0317 50.1074 36.0493C50.0483 36.0727 50.0307 36.0284 50.0753 35.9252C50.1081 35.7925 50.0579 35.7953 49.8363 35.8832C49.6738 35.9477 49.5232 35.9561 49.4702 35.9087C49.3349 35.7401 49.246 35.8608 49.3665 36.0353C49.5722 36.3813 49.1689 37.0029 48.9009 36.8014ZM73.0247 26.7024C73.0071 26.658 73.0191 26.602 73.0634 26.5844C73.1225 26.561 73.1992 26.5818 73.2464 26.6144C73.2994 26.6618 73.2667 26.709 73.2076 26.7324C73.119 26.7676 73.0482 26.7615 73.0247 26.7024ZM54.7603 33.6393C54.7427 33.595 54.7547 33.539 54.8138 33.5155C54.8581 33.4979 54.92 33.5247 54.9376 33.569C54.961 33.6281 54.9284 33.6752 54.8841 33.6928C54.8398 33.7104 54.7837 33.6984 54.7603 33.6393ZM55.5245 32.7206C55.5069 32.6763 55.5336 32.6144 55.5927 32.5909C55.6371 32.5733 55.6694 32.6118 55.6575 32.6679C55.6513 32.7387 55.6187 32.7858 55.5892 32.7975C55.5892 32.7975 55.5479 32.7797 55.5245 32.7206ZM73.0335 25.6899C73.0101 25.6308 73.0162 25.56 73.0636 25.507C73.0962 25.4599 73.1581 25.4866 73.1815 25.5457C73.2109 25.6196 73.1958 25.7111 73.1515 25.7287C73.1072 25.7462 73.0511 25.7343 73.0335 25.6899ZM73.0841 24.5242C73.0431 24.4207 73.0551 24.3647 73.1259 24.3708C73.1819 24.3828 73.2614 24.4538 73.2907 24.5277C73.32 24.6016 73.2933 24.6635 73.249 24.6811C73.1988 24.6839 73.1252 24.6276 73.0841 24.5242ZM72.276 24.2975C72.2643 24.268 72.2763 24.2119 72.3237 24.1589C72.3563 24.1118 72.4064 24.109 72.424 24.1533C72.4475 24.2124 72.4207 24.2743 72.3764 24.2919C72.3321 24.3095 72.2819 24.3123 72.276 24.2975ZM13.5917 46.3783C13.5741 46.334 13.6008 46.272 13.6599 46.2486C13.7043 46.231 13.7366 46.2695 13.7246 46.3255C13.7185 46.3964 13.6859 46.4435 13.6564 46.4552C13.6416 46.4611 13.6151 46.4374 13.5917 46.3783ZM14.5932 45.0234C14.5874 45.0086 14.6289 44.9408 14.7058 44.8761C14.768 44.8173 14.8034 44.8203 14.7914 44.8764C14.7675 44.9885 14.6225 45.0973 14.5932 45.0234ZM44.4081 32.8037C44.4028 32.6177 44.5831 32.512 44.6476 32.6745C44.6769 32.7484 44.6471 32.8457 44.5585 32.8809C44.4787 32.8954 44.4168 32.8686 44.4081 32.8037ZM44.2394 31.9472C44.2751 31.8647 44.3135 31.8323 44.337 31.8914C44.3839 32.0096 44.3273 32.1688 44.2389 32.1184C44.2035 32.1154 44.2038 32.0298 44.2394 31.9472ZM70.9145 20.477C70.8674 20.4444 70.8646 20.3943 70.9089 20.3767C70.968 20.3532 71.0299 20.38 71.0475 20.4243C71.0709 20.4834 71.0679 20.5188 71.0531 20.5247C71.0235 20.5364 70.9616 20.5096 70.9145 20.477ZM57.4816 25.4975C57.464 25.4532 57.4612 25.403 57.476 25.3972C57.5055 25.3854 57.5675 25.4122 57.6146 25.4448C57.6676 25.4922 57.6645 25.5276 57.6202 25.5452C57.5611 25.5686 57.4992 25.5419 57.4816 25.4975ZM17.3489 41.3653C17.3371 41.3358 17.3491 41.2797 17.3965 41.2267C17.4291 41.1796 17.4793 41.1768 17.4969 41.2211C17.5203 41.2802 17.4936 41.3421 17.4492 41.3597C17.396 41.3979 17.3547 41.3801 17.3489 41.3653ZM45.069 29.8568C45.0397 29.783 45.1107 29.7035 45.2496 29.6655C45.4623 29.5982 45.4623 29.5982 45.3703 29.7544C45.2369 29.9783 45.1276 30.0046 45.069 29.8568ZM11.7653 43.0671C11.7359 42.9932 11.7273 42.9283 11.7421 42.9224C11.7568 42.9166 11.8246 42.9581 11.8835 43.0202C11.9423 43.0824 11.951 43.1474 11.9066 43.1649C11.8476 43.1884 11.7887 43.1262 11.7653 43.0671ZM45.3097 29.2997C45.2625 29.2671 45.2597 29.2169 45.304 29.1993C45.3631 29.1758 45.425 29.2026 45.4426 29.2469C45.4661 29.306 45.463 29.3414 45.4482 29.3473C45.4187 29.359 45.3568 29.3323 45.3097 29.2997ZM10.1886 43.2308C10.171 43.1865 10.1977 43.1246 10.2568 43.1011C10.3012 43.0836 10.3335 43.122 10.3216 43.1781C10.3154 43.2489 10.2828 43.296 10.2533 43.3078C10.2385 43.3136 10.2062 43.2751 10.1886 43.2308ZM16.0579 40.6975C16.0404 40.6531 16.0376 40.603 16.0523 40.5971C16.0819 40.5854 16.1438 40.6121 16.1909 40.6447C16.2439 40.6921 16.2409 40.7275 16.1965 40.7451C16.1374 40.7685 16.0755 40.7418 16.0579 40.6975ZM18.5608 38.73C18.549 38.7004 18.561 38.6444 18.6084 38.5914C18.641 38.5443 18.6912 38.5415 18.7088 38.5858C18.7322 38.6449 18.7055 38.7068 18.6611 38.7244C18.6079 38.7626 18.5666 38.7448 18.5608 38.73ZM46.2464 26.8761C46.223 26.817 46.2439 26.7403 46.2765 26.6932C46.3801 26.5665 46.6724 26.5703 46.6395 26.7031C46.6184 26.8653 46.2933 26.9943 46.2464 26.8761ZM15.7951 38.6984C15.8129 38.6571 15.8748 38.6839 15.9396 38.7608C16.0455 38.8556 16.0366 38.8762 15.9187 38.8375C15.8303 38.7871 15.7773 38.7397 15.7951 38.6984ZM46.5849 26.1775C46.5439 26.0741 46.6947 25.98 46.7831 26.0305C46.8303 26.0631 46.8035 26.125 46.7444 26.1484C46.6616 26.1984 46.5967 26.207 46.5849 26.1775ZM13.3439 39.1577C13.3441 39.0721 13.3798 38.9896 13.4241 38.972C13.4537 38.9603 13.5066 39.0076 13.5064 39.0932C13.5062 39.1788 13.4705 39.2614 13.4262 39.279C13.3966 39.2907 13.3584 39.2375 13.3439 39.1577ZM46.8944 25.3194C46.9122 25.2782 46.9861 25.2489 47.051 25.2402C47.1366 25.2404 47.1188 25.2817 47.0154 25.3227C46.9326 25.3727 46.8618 25.3666 46.8944 25.3194ZM67.7702 14.5764C67.7114 14.5142 67.7144 14.4788 67.7705 14.4908C67.8413 14.4969 67.8943 14.5443 67.9177 14.6034C67.9646 14.7216 67.8938 14.7155 67.7702 14.5764ZM19.1697 31.2551C19.1521 31.2108 19.1788 31.1489 19.2379 31.1254C19.2823 31.1078 19.3146 31.1463 19.3027 31.2024C19.2966 31.2732 19.2639 31.3203 19.2344 31.332C19.2344 31.332 19.1931 31.3142 19.1697 31.2551ZM61.6259 13.1832C61.6024 13.1241 61.632 13.1124 61.7028 13.1185C61.7588 13.1304 61.8325 13.1867 61.8501 13.2311C61.8735 13.2902 61.8292 13.3078 61.7731 13.2958C61.6964 13.2749 61.6434 13.2275 61.6259 13.1832ZM53.0449 16.3817C53.0215 16.3226 53.051 16.3109 53.1218 16.317C53.1779 16.329 53.2515 16.3853 53.2691 16.4296C53.2925 16.4887 53.2482 16.5063 53.1922 16.4943C53.1303 16.4676 53.0625 16.426 53.0449 16.3817ZM58.6155 14.0866C58.5773 14.0334 58.5951 13.9921 58.6955 13.9865C58.7811 13.9867 58.8842 14.0313 58.9018 14.0756C58.9487 14.1938 58.7126 14.202 58.6155 14.0866ZM21.4505 28.4694C21.4154 28.3807 21.6023 28.033 21.7057 27.9919C21.7648 27.9685 21.7498 28.0599 21.6579 28.2161C21.5124 28.4961 21.474 28.5285 21.4505 28.4694ZM21.7128 27.5787C21.6953 27.5344 21.7426 27.4814 21.8165 27.4521C21.9495 27.3993 22.0348 27.4852 21.9724 27.6296C21.9368 27.7122 21.7539 27.6821 21.7128 27.5787ZM53.5444 13.0713C53.4856 13.0092 53.5006 12.9177 53.548 12.8647C53.6101 12.8059 53.672 12.8326 53.7131 12.9361C53.8099 13.1371 53.6945 13.2341 53.5444 13.0713ZM19.7918 26.3571C19.7801 26.3275 19.7921 26.2715 19.8395 26.2185C19.8721 26.1714 19.9223 26.1685 19.9398 26.2129C19.9633 26.272 19.9366 26.3339 19.8922 26.3515C19.8479 26.369 19.7977 26.3719 19.7918 26.3571ZM27.9303 21.0084C28.046 20.8258 28.1494 20.7847 28.1963 20.9029C28.2197 20.962 28.1428 21.0268 28.0246 21.0736C27.8621 21.1381 27.8414 21.1292 27.9303 21.0084ZM28.7297 20.1784C28.7121 20.134 28.7388 20.0721 28.7979 20.0487C28.8423 20.0311 28.8746 20.0696 28.8627 20.1256C28.8566 20.1964 28.824 20.2436 28.7944 20.2553C28.7796 20.2612 28.7531 20.2375 28.7297 20.1784ZM44.0435 9.81186C43.9905 9.76448 44.0348 9.7469 44.1056 9.75301C44.2916 9.74764 44.3446 9.79502 44.2116 9.84776C44.1673 9.86535 44.0758 9.85033 44.0435 9.81186ZM42.7445 9.89962C42.7623 9.85835 42.8244 9.79949 42.91 9.79974C42.9956 9.79999 43.0634 9.8415 43.0514 9.89755C43.0336 9.93883 42.9715 9.99768 42.8859 9.99743C42.8003 9.99719 42.7325 9.95567 42.7445 9.89962ZM35.9141 11.9934C35.9498 11.9108 35.9882 11.8784 36.0117 11.9376C36.0586 12.0558 36.002 12.215 35.9136 12.1645C35.8723 12.1467 35.8726 12.0611 35.9141 11.9934ZM38.3283 11.0528C38.3108 11.0085 38.308 10.9583 38.3227 10.9524C38.3523 10.9407 38.4142 10.9675 38.4613 11.0001C38.5143 11.0474 38.5113 11.0829 38.4669 11.1004C38.4078 11.1239 38.3459 11.0971 38.3283 11.0528Z" fill="#3D405B"/>
<path fill-rule="evenodd" clip-rule="evenodd" d="M52.3191 33.9068C52.3015 33.8625 52.2278 33.8062 52.1718 33.7942C52.101 33.7881 52.0773 33.8146 52.0949 33.8589C52.1124 33.9032 52.1713 33.9654 52.2421 33.9715C52.2982 33.9835 52.3366 33.9511 52.3191 33.9068Z" fill="#518CC8"/>
<path fill-rule="evenodd" clip-rule="evenodd" d="M45.5486 32.4882C45.5606 32.4322 45.5224 32.3789 45.4457 32.358C45.3897 32.3461 45.3629 32.408 45.3864 32.4671C45.4567 32.6444 45.5216 32.6357 45.5486 32.4882Z" fill="#518CC8"/>
<path fill-rule="evenodd" clip-rule="evenodd" d="M46.0116 30.6801C45.9471 30.5176 45.8559 30.4169 45.8116 30.4345C45.7525 30.458 45.7787 30.5672 45.8817 30.6974C46.0904 31.0079 46.1347 30.9904 46.0116 30.6801Z" fill="#518CC8"/>
<path fill-rule="evenodd" clip-rule="evenodd" d="M55.1116 21.2049C55.1236 21.1489 55.0854 21.0956 55.0293 21.0837C54.9733 21.0717 54.92 21.1099 54.9081 21.166C54.8961 21.222 54.9343 21.2752 54.9904 21.2872C55.0523 21.314 55.0997 21.261 55.1116 21.2049Z" fill="#518CC8"/>
<path fill-rule="evenodd" clip-rule="evenodd" d="M51.2617 37.9682C51.2324 37.8944 51.1261 37.8852 50.9931 37.9379C50.8749 37.9848 50.7832 38.0554 50.8008 38.0997C50.8184 38.1441 50.8538 38.1471 50.9012 38.0941C50.9338 38.047 50.984 38.0442 51.0016 38.0885C51.025 38.1476 51.1017 38.1685 51.1756 38.1392C51.2494 38.1099 51.2851 38.0273 51.2617 37.9682Z" fill="#518CC8"/>
<path fill-rule="evenodd" clip-rule="evenodd" d="M73.1065 28.5001C73.0683 28.4468 72.9975 28.4407 72.9532 28.4583C72.9088 28.4759 72.8614 28.5289 72.8701 28.5938C72.8788 28.6588 72.9407 28.6855 73.0293 28.6504C73.118 28.6152 73.1447 28.5533 73.1065 28.5001Z" fill="#518CC8"/>
<path fill-rule="evenodd" clip-rule="evenodd" d="M46.8787 38.0825C46.8404 38.0293 46.7844 38.0173 46.7401 38.0349C46.7164 38.0614 46.6277 38.0966 46.5391 38.1317C46.4652 38.1611 46.4532 38.2171 46.5004 38.2497C46.6211 38.3386 46.9757 38.1979 46.8787 38.0825Z" fill="#518CC8"/>
<path fill-rule="evenodd" clip-rule="evenodd" d="M54.8994 34.5075C54.8818 34.4632 54.8199 34.4365 54.7608 34.4599C54.7164 34.4775 54.7193 34.5277 54.7664 34.5603C54.8194 34.6077 54.8754 34.6196 54.905 34.6079C54.9198 34.6021 54.9228 34.5666 54.8994 34.5075Z" fill="#518CC8"/>
<path fill-rule="evenodd" clip-rule="evenodd" d="M73.9423 23.5851C73.9189 23.526 73.8511 23.4845 73.7951 23.4725C73.7449 23.4753 73.7123 23.5224 73.7416 23.5963C73.7709 23.6702 73.8297 23.7323 73.8888 23.7089C73.9273 23.6765 73.9599 23.6294 73.9423 23.5851Z" fill="#518CC8"/>
<path fill-rule="evenodd" clip-rule="evenodd" d="M57.5917 28.1042C57.5742 28.0599 57.5123 28.0332 57.4532 28.0566C57.4088 28.0742 57.4116 28.1244 57.4588 28.157C57.5118 28.2044 57.5678 28.2163 57.5974 28.2046C57.6121 28.1987 57.6152 28.1633 57.5917 28.1042Z" fill="#518CC8"/>
<path fill-rule="evenodd" clip-rule="evenodd" d="M73.2121 20.5751C73.165 20.5425 73.1031 20.5157 73.0735 20.5275C73.0587 20.5333 73.0616 20.5835 73.0791 20.6278C73.1026 20.6869 73.1586 20.6989 73.2177 20.6755C73.2621 20.6579 73.2651 20.6225 73.2121 20.5751Z" fill="#518CC8"/>
<path fill-rule="evenodd" clip-rule="evenodd" d="M57.737 26.6613C57.7816 26.5581 57.7581 26.499 57.699 26.5225C57.5956 26.5635 57.5271 26.7788 57.6303 26.8233C57.6509 26.8323 57.7131 26.7734 57.737 26.6613Z" fill="#518CC8"/>
<path fill-rule="evenodd" clip-rule="evenodd" d="M42.7607 32.0551C42.7431 32.0107 42.6664 31.9898 42.5778 32.025C42.5039 32.0543 42.4919 32.1104 42.5391 32.143C42.5921 32.1903 42.6629 32.1965 42.722 32.173C42.7663 32.1554 42.7783 32.0994 42.7607 32.0551Z" fill="#518CC8"/>
<path fill-rule="evenodd" clip-rule="evenodd" d="M72.8564 19.8096C72.8388 19.7653 72.7769 19.7385 72.7326 19.7561C72.6735 19.7796 72.6615 19.8356 72.6791 19.8799C72.7025 19.939 72.7438 19.9569 72.8029 19.9334C72.8472 19.9158 72.874 19.8539 72.8564 19.8096Z" fill="#518CC8"/>
<path fill-rule="evenodd" clip-rule="evenodd" d="M16.3213 39.4644C16.2923 39.305 16.2716 39.2961 16.1738 39.4375C16.088 39.5228 16.073 39.6143 16.126 39.6616C16.2467 39.7505 16.3326 39.6652 16.3213 39.4644Z" fill="#518CC8"/>
<path fill-rule="evenodd" clip-rule="evenodd" d="M71.6357 17.25C71.5947 17.1466 71.5593 17.1435 71.5532 17.2143C71.5471 17.2852 71.597 17.3679 71.6324 17.371C71.6648 17.4095 71.6768 17.3534 71.6357 17.25Z" fill="#518CC8"/>
<path fill-rule="evenodd" clip-rule="evenodd" d="M71.3859 17.0072C71.3388 16.9746 71.2473 16.9595 71.203 16.9771C71.1439 17.0006 71.1615 17.0449 71.2086 17.0775C71.2616 17.1249 71.3472 17.1251 71.3916 17.1075C71.4359 17.09 71.4331 17.0398 71.3859 17.0072Z" fill="#518CC8"/>
<path fill-rule="evenodd" clip-rule="evenodd" d="M19.0345 37.465C19.0465 37.409 18.9845 37.3822 18.9254 37.4057C18.8516 37.435 18.7805 37.5145 18.7685 37.5705C18.7624 37.6413 18.8185 37.6533 18.8776 37.6299C18.9515 37.6006 19.0225 37.5211 19.0345 37.465Z" fill="#518CC8"/>
<path fill-rule="evenodd" clip-rule="evenodd" d="M17.2354 37.5456C17.1972 37.4923 17.1264 37.4862 17.0821 37.5038C17.0377 37.5214 16.9903 37.5744 16.999 37.6393C17.0077 37.7043 17.0696 37.731 17.1582 37.6959C17.2469 37.6607 17.2884 37.5929 17.2354 37.5456Z" fill="#518CC8"/>
<path fill-rule="evenodd" clip-rule="evenodd" d="M21.1875 35.8243C21.1465 35.7209 21.1111 35.7178 21.1049 35.7886C21.0988 35.8594 21.1488 35.9422 21.1842 35.9453C21.2313 35.9779 21.2285 35.9277 21.1875 35.8243Z" fill="#518CC8"/>
<path fill-rule="evenodd" clip-rule="evenodd" d="M17.4872 36.7965C17.4579 36.7226 17.3902 36.6811 17.3458 36.6987C17.2867 36.7221 17.2806 36.7929 17.3099 36.8668C17.3393 36.9407 17.3922 36.9881 17.4513 36.9646C17.4957 36.947 17.5166 36.8704 17.4872 36.7965Z" fill="#518CC8"/>
<path fill-rule="evenodd" clip-rule="evenodd" d="M44.5941 25.6847C44.5469 25.6521 44.4702 25.6312 44.4111 25.6547C44.3668 25.6723 44.3548 25.7283 44.3724 25.7726C44.3959 25.8317 44.4667 25.8379 44.5553 25.8027C44.6144 25.7792 44.6412 25.7173 44.5941 25.6847Z" fill="#518CC8"/>
<path fill-rule="evenodd" clip-rule="evenodd" d="M45.5083 24.2794C45.4701 24.2261 45.3669 24.1816 45.3019 24.1902C45.2163 24.19 45.2044 24.246 45.2574 24.2934C45.2956 24.3467 45.3988 24.3912 45.4637 24.3826C45.5345 24.3887 45.5524 24.3474 45.5083 24.2794Z" fill="#518CC8"/>
<path fill-rule="evenodd" clip-rule="evenodd" d="M46.2753 23.0685C46.2578 23.0242 46.1958 22.9975 46.1367 23.0209C46.0924 23.0385 46.0952 23.0887 46.1424 23.1213C46.1954 23.1687 46.2514 23.1806 46.281 23.1689C46.2957 23.1631 46.2988 23.1276 46.2753 23.0685Z" fill="#518CC8"/>
<path fill-rule="evenodd" clip-rule="evenodd" d="M46.4443 22.5908C46.3972 22.5582 46.3353 22.5315 46.3058 22.5432C46.291 22.5491 46.2938 22.5992 46.3114 22.6436C46.3348 22.7027 46.3909 22.7146 46.45 22.6912C46.4795 22.6795 46.4826 22.6441 46.4443 22.5908Z" fill="#518CC8"/>
<path fill-rule="evenodd" clip-rule="evenodd" d="M18.8858 33.5566C18.815 33.5505 18.7322 33.6004 18.7291 33.6359C18.7113 33.6771 18.7673 33.6891 18.8649 33.6333C18.9477 33.5834 18.9566 33.5627 18.8858 33.5566Z" fill="#518CC8"/>
<path fill-rule="evenodd" clip-rule="evenodd" d="M19.5206 32.3985C19.5504 32.3012 19.6156 32.2069 19.66 32.1893C19.7782 32.1424 19.906 31.8181 19.865 31.7147C19.8415 31.6556 19.8092 31.6171 19.7796 31.6288C19.7058 31.6582 19.352 32.5338 19.3991 32.5664C19.4345 32.5694 19.4908 32.4958 19.5206 32.3985Z" fill="#518CC8"/>
<path fill-rule="evenodd" clip-rule="evenodd" d="M15.5465 33.975C15.5172 33.9011 15.4347 33.8654 15.3756 33.8889C15.1835 33.9651 15.183 34.1362 15.369 34.1309C15.5815 34.1492 15.6052 34.1227 15.5465 33.975Z" fill="#518CC8"/>
<path fill-rule="evenodd" clip-rule="evenodd" d="M50.3968 18.3724C50.4088 18.3164 50.3705 18.2631 50.2939 18.2422C50.167 18.2242 50.0338 18.3625 50.0865 18.4955C50.1275 18.5989 50.3787 18.4993 50.3968 18.3724Z" fill="#518CC8"/>
<path fill-rule="evenodd" clip-rule="evenodd" d="M51.747 17.1188C51.7651 16.992 51.5911 16.9413 51.5376 17.0651C51.493 17.1683 51.5605 17.2954 51.6492 17.2602C51.6877 17.2279 51.735 17.1749 51.747 17.1188Z" fill="#518CC8"/>
<path fill-rule="evenodd" clip-rule="evenodd" d="M56.5489 14.3936C56.5993 14.3052 56.5965 14.255 56.5109 14.2547C56.3634 14.2277 56.2361 14.3809 56.283 14.4991C56.3329 14.5818 56.4363 14.5408 56.5489 14.3936Z" fill="#518CC8"/>
<path fill-rule="evenodd" clip-rule="evenodd" d="M9.47484 32.8948C9.38643 32.8444 9.28606 32.85 9.25345 32.8971C9.16455 33.0179 9.32073 33.1099 9.49803 33.0395C9.61624 32.9926 9.60452 32.9631 9.47484 32.8948Z" fill="#518CC8"/>
<path fill-rule="evenodd" clip-rule="evenodd" d="M17.9457 29.0732C17.8985 29.0406 17.8218 29.0197 17.7627 29.0431C17.7184 29.0607 17.7064 29.1167 17.724 29.1611C17.7475 29.2202 17.8183 29.2263 17.9069 29.1911C17.9808 29.1618 17.9986 29.1205 17.9457 29.0732Z" fill="#518CC8"/>
<path fill-rule="evenodd" clip-rule="evenodd" d="M50.9896 13.914C50.9425 13.8814 50.8658 13.8605 50.8067 13.8839C50.7624 13.9015 50.7504 13.9576 50.768 14.0019C50.7914 14.061 50.8622 14.0671 50.9509 14.0319C51.0248 14.0026 51.0426 13.9614 50.9896 13.914Z" fill="#518CC8"/>
<path d="M24.964 24.1346C24.9151 24.154 24.8911 24.2095 24.9105 24.2584C24.93 24.3074 24.9854 24.3314 25.0344 24.3119C25.0833 24.2925 25.1073 24.2371 25.0878 24.1881C25.0684 24.1391 25.013 24.1152 24.964 24.1346Z" fill="#518CC8"/>
<path fill-rule="evenodd" clip-rule="evenodd" d="M25.5683 23.5872C25.5507 23.5429 25.4888 23.5162 25.4445 23.5338C25.3854 23.5572 25.3734 23.6133 25.391 23.6576C25.4144 23.7167 25.4557 23.7345 25.5148 23.7111C25.5591 23.6935 25.5918 23.6464 25.5683 23.5872Z" fill="#518CC8"/>
<path fill-rule="evenodd" clip-rule="evenodd" d="M30.9914 18.9392C31.1513 18.739 31.1513 18.739 30.9682 18.7945C30.8647 18.8355 30.773 18.9061 30.7315 18.9739C30.7048 19.0358 30.61 19.1418 30.5272 19.1917C30.3912 19.2799 30.4118 19.2888 30.5891 19.2185C30.728 19.1805 30.8966 19.0452 30.9914 18.9392Z" fill="#518CC8"/>
<path fill-rule="evenodd" clip-rule="evenodd" d="M45.417 12.2422C45.3699 12.2095 45.308 12.1828 45.2784 12.1945C45.2636 12.2004 45.2664 12.2506 45.284 12.2949C45.3075 12.354 45.3635 12.366 45.4226 12.3425C45.4522 12.3308 45.4494 12.2806 45.417 12.2422Z" fill="#518CC8"/>
<path fill-rule="evenodd" clip-rule="evenodd" d="M44.541 12.4875C44.5234 12.4431 44.4467 12.4222 44.358 12.4574C44.2842 12.4867 44.2722 12.5428 44.3193 12.5754C44.3723 12.6228 44.4431 12.6289 44.5023 12.6054C44.5318 12.5937 44.5585 12.5318 44.541 12.4875Z" fill="#518CC8"/>
<path fill-rule="evenodd" clip-rule="evenodd" d="M43.124 12.5366C43.1064 12.4923 43.0297 12.4714 42.9558 12.5007C42.8819 12.53 42.8404 12.5977 42.858 12.6421C42.8815 12.7012 42.9523 12.7073 43.0262 12.678C43.0853 12.6545 43.1416 12.5809 43.124 12.5366Z" fill="#518CC8"/>
<path fill-rule="evenodd" clip-rule="evenodd" d="M37.6113 14.4155C37.5937 14.3712 37.5318 14.3445 37.4727 14.3679C37.4284 14.3855 37.4312 14.4357 37.4783 14.4683C37.5313 14.5157 37.5873 14.5276 37.6169 14.5159C37.6317 14.51 37.6289 14.4599 37.6113 14.4155Z" fill="#518CC8"/>
<path fill-rule="evenodd" clip-rule="evenodd" d="M40.1455 13.3073C40.1279 13.263 40.0512 13.2421 39.9625 13.2772C39.8887 13.3065 39.8767 13.3626 39.9238 13.3952C39.9768 13.4426 40.0476 13.4487 40.1067 13.4252C40.1363 13.4135 40.163 13.3516 40.1455 13.3073Z" fill="#518CC8"/>
<path fill-rule="evenodd" clip-rule="evenodd" d="M47.5833 9.72478C47.6192 9.55664 47.4658 9.51487 47.3945 9.67996C47.3588 9.76251 47.3823 9.82161 47.4383 9.83358C47.5239 9.83382 47.5919 9.78974 47.5833 9.72478Z" fill="#518CC8"/>
</svg>
